<mxfile host="app.diagrams.net" modified="2020-10-08T08:14:27.657Z" agent="5.0 (X11; Linux x86_64) AppleWebKit/537.36 (KHTML, like Gecko) Chrome/85.0.4183.83 Safari/537.36" etag="1AC22WFCrTc_HXNr_Mb9" version="13.7.8" type="github" pages="11">
  <diagram name="CritSec" id="R8yzjhwUe6rfAUIDN_Sf">
    <mxGraphModel dx="1381" dy="866" grid="1" gridSize="10" guides="1" tooltips="1" connect="1" arrows="1" fold="1" page="1" pageScale="1" pageWidth="1169" pageHeight="827" math="0" shadow="0">
      <root>
        <mxCell id="2rw7g3JDZZeC0QugKMXs-0" />
        <mxCell id="2rw7g3JDZZeC0QugKMXs-1" parent="2rw7g3JDZZeC0QugKMXs-0" />
        <mxCell id="2rw7g3JDZZeC0QugKMXs-7" value="&lt;font face=&quot;Courier New&quot; style=&quot;font-size: 24px&quot;&gt;войти_в_критическую_секцию()&lt;br&gt;&lt;div&gt;&amp;nbsp;...&lt;/div&gt;&lt;div&gt;&amp;nbsp;...&lt;/div&gt;&lt;div&gt;&amp;nbsp;...&lt;/div&gt;&lt;div&gt;&lt;span&gt;выйти_из_критической_секции()&lt;/span&gt;&lt;/div&gt;&lt;/font&gt;" style="text;html=1;align=left;verticalAlign=middle;resizable=0;points=[];autosize=1;" vertex="1" parent="2rw7g3JDZZeC0QugKMXs-1">
          <mxGeometry x="60" y="154" width="430" height="80" as="geometry" />
        </mxCell>
        <mxCell id="2rw7g3JDZZeC0QugKMXs-8" value="" style="shape=curlyBracket;whiteSpace=wrap;html=1;rounded=1;size=0.5;direction=west;" vertex="1" parent="2rw7g3JDZZeC0QugKMXs-1">
          <mxGeometry x="500" y="161.5" width="40" height="80" as="geometry" />
        </mxCell>
        <mxCell id="2rw7g3JDZZeC0QugKMXs-9" value="&lt;span style=&quot;color: rgb(0 , 0 , 0) ; font-style: normal ; font-weight: 400 ; letter-spacing: normal ; text-align: left ; text-indent: 0px ; text-transform: none ; word-spacing: 0px ; background-color: rgb(248 , 249 , 250) ; display: inline ; float: none&quot;&gt;&lt;font style=&quot;font-size: 22px&quot;&gt;критическая секция - работа с гарантией невмешательства со стороны других клиентов&lt;/font&gt;&lt;/span&gt;" style="text;whiteSpace=wrap;html=1;" vertex="1" parent="2rw7g3JDZZeC0QugKMXs-1">
          <mxGeometry x="585" y="161.5" width="380" height="65" as="geometry" />
        </mxCell>
        <mxCell id="1bSV3bRYhwjHZD1TMnOY-0" value="&lt;font face=&quot;Garamond&quot; color=&quot;#006633&quot; size=&quot;1&quot;&gt;&lt;b style=&quot;font-size: 36px&quot;&gt;Критическая секция&lt;/b&gt;&lt;/font&gt;" style="text;html=1;align=left;verticalAlign=middle;whiteSpace=wrap;rounded=0;" vertex="1" parent="2rw7g3JDZZeC0QugKMXs-1">
          <mxGeometry x="40" y="40" width="920" height="20" as="geometry" />
        </mxCell>
        <mxCell id="Xc_2y6Owgtkm6S8HWwj1-0" value="" style="endArrow=classic;html=1;dashed=1;dashPattern=1 2;" edge="1" parent="2rw7g3JDZZeC0QugKMXs-1">
          <mxGeometry width="50" height="50" relative="1" as="geometry">
            <mxPoint x="740" y="480" as="sourcePoint" />
            <mxPoint x="370" y="270" as="targetPoint" />
          </mxGeometry>
        </mxCell>
        <mxCell id="Xc_2y6Owgtkm6S8HWwj1-1" value="" style="endArrow=classic;html=1;dashed=1;dashPattern=1 2;entryX=0.419;entryY=-0.05;entryDx=0;entryDy=0;entryPerimeter=0;" edge="1" parent="2rw7g3JDZZeC0QugKMXs-1" target="2rw7g3JDZZeC0QugKMXs-7">
          <mxGeometry width="50" height="50" relative="1" as="geometry">
            <mxPoint x="740" y="480" as="sourcePoint" />
            <mxPoint x="490" y="140" as="targetPoint" />
          </mxGeometry>
        </mxCell>
        <mxCell id="Xc_2y6Owgtkm6S8HWwj1-2" value="&lt;span style=&quot;font-size: 22px&quot;&gt;любой заинтересованный клиент должен иметь возможность&lt;/span&gt;" style="text;whiteSpace=wrap;html=1;" vertex="1" parent="2rw7g3JDZZeC0QugKMXs-1">
          <mxGeometry x="740" y="440" width="380" height="65" as="geometry" />
        </mxCell>
      </root>
    </mxGraphModel>
  </diagram>
  <diagram id="ri0MmFJmHngoHadG3IKB" name="Mutex - impl1">
    <mxGraphModel dx="1174" dy="736" grid="1" gridSize="10" guides="1" tooltips="1" connect="1" arrows="1" fold="1" page="1" pageScale="1" pageWidth="1169" pageHeight="827" math="0" shadow="0">
      <root>
        <mxCell id="xBMb9qlrZogLvSsRFh5L-0" />
        <mxCell id="xBMb9qlrZogLvSsRFh5L-1" parent="xBMb9qlrZogLvSsRFh5L-0" />
        <mxCell id="xBMb9qlrZogLvSsRFh5L-2" value="&lt;div style=&quot;text-align: justify&quot;&gt;&lt;span&gt;is_locked = false;&lt;/span&gt;&lt;/div&gt;&lt;div style=&quot;text-align: justify&quot;&gt;&lt;span&gt;...&lt;/span&gt;&lt;/div&gt;&lt;div style=&quot;text-align: justify&quot;&gt;&lt;span&gt;...&lt;/span&gt;&lt;/div&gt;&lt;div style=&quot;text-align: justify&quot;&gt;заблокировать(){&lt;/div&gt;&lt;div style=&quot;text-align: justify&quot;&gt;&amp;nbsp; &amp;nbsp;while (is_locked)&lt;/div&gt;&lt;div style=&quot;text-align: justify&quot;&gt;&amp;nbsp; &amp;nbsp; &amp;nbsp;;&lt;/div&gt;&lt;div style=&quot;text-align: justify&quot;&gt;&amp;nbsp; &amp;nbsp;is_locked = true;&lt;/div&gt;&lt;div style=&quot;text-align: justify&quot;&gt;&lt;br&gt;&lt;/div&gt;&lt;div style=&quot;text-align: justify&quot;&gt;}&lt;/div&gt;&lt;div style=&quot;text-align: justify&quot;&gt;&lt;br&gt;&lt;/div&gt;&lt;div style=&quot;text-align: justify&quot;&gt;снять_блок(){&lt;/div&gt;&lt;div style=&quot;text-align: justify&quot;&gt;&amp;nbsp; &amp;nbsp;is_locked = false;&lt;/div&gt;&lt;div style=&quot;text-align: justify&quot;&gt;}&lt;/div&gt;&lt;div style=&quot;text-align: justify&quot;&gt;&lt;span&gt;&lt;br&gt;&lt;/span&gt;&lt;/div&gt;" style="text;html=1;strokeColor=none;fillColor=none;align=left;verticalAlign=middle;whiteSpace=wrap;rounded=0;fontFamily=Courier New;fontSize=16;" parent="xBMb9qlrZogLvSsRFh5L-1" vertex="1">
          <mxGeometry x="80" y="350" width="320" height="180" as="geometry" />
        </mxCell>
        <mxCell id="xBMb9qlrZogLvSsRFh5L-3" value="" style="shape=curlyBracket;whiteSpace=wrap;html=1;rounded=1;fontFamily=Courier New;fontSize=16;size=0.5;" parent="xBMb9qlrZogLvSsRFh5L-1" vertex="1">
          <mxGeometry x="430" y="370" width="30" height="60" as="geometry" />
        </mxCell>
        <mxCell id="xBMb9qlrZogLvSsRFh5L-4" value="&lt;ol&gt;&lt;li&gt;&lt;font face=&quot;Helvetica&quot; style=&quot;font-size: 16px&quot;&gt;скопировать из памяти в регистр&lt;/font&gt;&lt;/li&gt;&lt;li&gt;&lt;font face=&quot;Helvetica&quot; style=&quot;font-size: 16px&quot;&gt;сравнить регистр с константой&lt;/font&gt;&lt;/li&gt;&lt;li&gt;&lt;font face=&quot;Helvetica&quot; style=&quot;font-size: 16px&quot;&gt;если значения равны, продолжить с п. 1&lt;/font&gt;&lt;/li&gt;&lt;/ol&gt;" style="text;html=1;strokeColor=none;fillColor=none;align=left;verticalAlign=middle;whiteSpace=wrap;rounded=0;fontFamily=Courier New;fontSize=16;" parent="xBMb9qlrZogLvSsRFh5L-1" vertex="1">
          <mxGeometry x="500" y="390" width="380" height="20" as="geometry" />
        </mxCell>
        <mxCell id="_fYuvyG5yXttpf5lUWXw-1" value="" style="endArrow=none;dashed=1;html=1;dashPattern=1 3;strokeWidth=2;" edge="1" parent="xBMb9qlrZogLvSsRFh5L-1">
          <mxGeometry width="50" height="50" relative="1" as="geometry">
            <mxPoint x="470" y="389" as="sourcePoint" />
            <mxPoint x="890" y="389" as="targetPoint" />
          </mxGeometry>
        </mxCell>
        <mxCell id="_fYuvyG5yXttpf5lUWXw-2" value="" style="endArrow=none;dashed=1;html=1;dashPattern=1 3;strokeWidth=2;" edge="1" parent="xBMb9qlrZogLvSsRFh5L-1">
          <mxGeometry width="50" height="50" relative="1" as="geometry">
            <mxPoint x="470" y="410" as="sourcePoint" />
            <mxPoint x="890" y="410" as="targetPoint" />
          </mxGeometry>
        </mxCell>
        <mxCell id="ha82zn1XFjL23xBg-vT0-0" value="&lt;font face=&quot;Courier New&quot; style=&quot;font-size: 24px&quot;&gt;заблокировать()&lt;br&gt;&lt;div&gt;&amp;nbsp;...&lt;/div&gt;&lt;div&gt;&amp;nbsp;...&lt;/div&gt;&lt;div&gt;&amp;nbsp;...&lt;/div&gt;&lt;div&gt;&lt;span&gt;снять_блок()&lt;/span&gt;&lt;/div&gt;&lt;/font&gt;" style="text;html=1;align=left;verticalAlign=middle;resizable=0;points=[];autosize=1;" vertex="1" parent="xBMb9qlrZogLvSsRFh5L-1">
          <mxGeometry x="710" y="130" width="230" height="80" as="geometry" />
        </mxCell>
        <mxCell id="sWSpizUy4wnmXVAiIbhy-0" value="&lt;font face=&quot;Garamond&quot; color=&quot;#006633&quot; size=&quot;1&quot;&gt;&lt;b style=&quot;font-size: 36px&quot;&gt;Мьютекс&lt;/b&gt;&lt;/font&gt;" style="text;html=1;align=left;verticalAlign=middle;whiteSpace=wrap;rounded=0;" vertex="1" parent="xBMb9qlrZogLvSsRFh5L-1">
          <mxGeometry x="40" y="40" width="920" height="20" as="geometry" />
        </mxCell>
        <mxCell id="OR0bZcdH-7x2DhH_oAC_-0" value="&lt;font face=&quot;Courier New&quot; style=&quot;font-size: 24px&quot;&gt;войти_в_критическую_секцию()&lt;br&gt;&lt;div&gt;&amp;nbsp;...&lt;/div&gt;&lt;div&gt;&amp;nbsp;...&lt;/div&gt;&lt;div&gt;&amp;nbsp;...&lt;/div&gt;&lt;div&gt;&lt;span&gt;выйти_из_критической_секции()&lt;/span&gt;&lt;/div&gt;&lt;/font&gt;" style="text;html=1;align=left;verticalAlign=middle;resizable=0;points=[];autosize=1;" vertex="1" parent="xBMb9qlrZogLvSsRFh5L-1">
          <mxGeometry x="50" y="130" width="430" height="80" as="geometry" />
        </mxCell>
        <mxCell id="OR0bZcdH-7x2DhH_oAC_-1" value="" style="shape=flexArrow;endArrow=classic;html=1;dashed=1;dashPattern=1 2;exitX=1.009;exitY=0.6;exitDx=0;exitDy=0;exitPerimeter=0;entryX=-0.004;entryY=0.6;entryDx=0;entryDy=0;entryPerimeter=0;" edge="1" parent="xBMb9qlrZogLvSsRFh5L-1" source="OR0bZcdH-7x2DhH_oAC_-0" target="ha82zn1XFjL23xBg-vT0-0">
          <mxGeometry width="50" height="50" relative="1" as="geometry">
            <mxPoint x="500" y="300" as="sourcePoint" />
            <mxPoint x="550" y="250" as="targetPoint" />
          </mxGeometry>
        </mxCell>
      </root>
    </mxGraphModel>
  </diagram>
  <diagram id="MGE0amIgMyFyMzsWidT_" name="Mutex - spinlock">
    <mxGraphModel dx="1174" dy="736" grid="1" gridSize="10" guides="1" tooltips="1" connect="1" arrows="1" fold="1" page="1" pageScale="1" pageWidth="1169" pageHeight="827" math="0" shadow="0">
      <root>
        <mxCell id="egzKSEprmWDQXE4lO2Hz-0" />
        <mxCell id="egzKSEprmWDQXE4lO2Hz-1" parent="egzKSEprmWDQXE4lO2Hz-0" />
        <mxCell id="egzKSEprmWDQXE4lO2Hz-2" value="" style="rounded=0;whiteSpace=wrap;html=1;fillColor=#d5e8d4;strokeColor=#82b366;" parent="egzKSEprmWDQXE4lO2Hz-1" vertex="1">
          <mxGeometry x="80" y="220" width="120" height="40" as="geometry" />
        </mxCell>
        <mxCell id="egzKSEprmWDQXE4lO2Hz-4" value="" style="rounded=0;whiteSpace=wrap;html=1;fillColor=#fff2cc;strokeColor=#d6b656;" parent="egzKSEprmWDQXE4lO2Hz-1" vertex="1">
          <mxGeometry x="200" y="220" width="120" height="40" as="geometry" />
        </mxCell>
        <mxCell id="egzKSEprmWDQXE4lO2Hz-5" value="" style="rounded=0;whiteSpace=wrap;html=1;fillColor=#fff2cc;strokeColor=#d6b656;" parent="egzKSEprmWDQXE4lO2Hz-1" vertex="1">
          <mxGeometry x="80" y="460" width="120" height="40" as="geometry" />
        </mxCell>
        <mxCell id="egzKSEprmWDQXE4lO2Hz-6" value="" style="rounded=0;whiteSpace=wrap;html=1;fillColor=#d5e8d4;strokeColor=#82b366;" parent="egzKSEprmWDQXE4lO2Hz-1" vertex="1">
          <mxGeometry x="200" y="460" width="120" height="40" as="geometry" />
        </mxCell>
        <mxCell id="0aPPDFqxMMvj2nhd9XFM-1" value="" style="rounded=0;whiteSpace=wrap;html=1;strokeColor=#82b366;fillColor=#97D077;" parent="egzKSEprmWDQXE4lO2Hz-1" vertex="1">
          <mxGeometry x="360" y="220" width="80" height="40" as="geometry" />
        </mxCell>
        <mxCell id="0aPPDFqxMMvj2nhd9XFM-2" value="" style="rounded=0;whiteSpace=wrap;html=1;fillColor=#d5e8d4;strokeColor=#82b366;" parent="egzKSEprmWDQXE4lO2Hz-1" vertex="1">
          <mxGeometry x="320" y="220" width="40" height="40" as="geometry" />
        </mxCell>
        <mxCell id="0aPPDFqxMMvj2nhd9XFM-0" value="&lt;font style=&quot;font-size: 30px&quot;&gt;V&lt;/font&gt;" style="whiteSpace=wrap;html=1;aspect=fixed;" parent="egzKSEprmWDQXE4lO2Hz-1" vertex="1">
          <mxGeometry x="360" y="300" width="40" height="40" as="geometry" />
        </mxCell>
        <mxCell id="0aPPDFqxMMvj2nhd9XFM-6" value="" style="whiteSpace=wrap;html=1;aspect=fixed;" parent="egzKSEprmWDQXE4lO2Hz-1" vertex="1">
          <mxGeometry x="80" y="340" width="40" height="40" as="geometry" />
        </mxCell>
        <mxCell id="0aPPDFqxMMvj2nhd9XFM-7" value="&lt;font style=&quot;font-size: 30px&quot;&gt;V&lt;/font&gt;" style="whiteSpace=wrap;html=1;aspect=fixed;" parent="egzKSEprmWDQXE4lO2Hz-1" vertex="1">
          <mxGeometry x="400" y="300" width="40" height="40" as="geometry" />
        </mxCell>
        <mxCell id="0aPPDFqxMMvj2nhd9XFM-8" value="" style="rounded=0;whiteSpace=wrap;html=1;fillColor=#fff2cc;strokeColor=#d6b656;" parent="egzKSEprmWDQXE4lO2Hz-1" vertex="1">
          <mxGeometry x="320" y="460" width="120" height="40" as="geometry" />
        </mxCell>
        <mxCell id="0aPPDFqxMMvj2nhd9XFM-9" value="" style="whiteSpace=wrap;html=1;aspect=fixed;" parent="egzKSEprmWDQXE4lO2Hz-1" vertex="1">
          <mxGeometry x="120" y="340" width="40" height="40" as="geometry" />
        </mxCell>
        <mxCell id="0aPPDFqxMMvj2nhd9XFM-10" value="" style="whiteSpace=wrap;html=1;aspect=fixed;" parent="egzKSEprmWDQXE4lO2Hz-1" vertex="1">
          <mxGeometry x="200" y="340" width="40" height="40" as="geometry" />
        </mxCell>
        <mxCell id="0aPPDFqxMMvj2nhd9XFM-11" value="" style="whiteSpace=wrap;html=1;aspect=fixed;" parent="egzKSEprmWDQXE4lO2Hz-1" vertex="1">
          <mxGeometry x="160" y="340" width="40" height="40" as="geometry" />
        </mxCell>
        <mxCell id="0aPPDFqxMMvj2nhd9XFM-13" value="" style="whiteSpace=wrap;html=1;aspect=fixed;" parent="egzKSEprmWDQXE4lO2Hz-1" vertex="1">
          <mxGeometry x="240" y="340" width="40" height="40" as="geometry" />
        </mxCell>
        <mxCell id="0aPPDFqxMMvj2nhd9XFM-14" value="" style="whiteSpace=wrap;html=1;aspect=fixed;" parent="egzKSEprmWDQXE4lO2Hz-1" vertex="1">
          <mxGeometry x="280" y="340" width="40" height="40" as="geometry" />
        </mxCell>
        <mxCell id="0aPPDFqxMMvj2nhd9XFM-15" value="" style="whiteSpace=wrap;html=1;aspect=fixed;" parent="egzKSEprmWDQXE4lO2Hz-1" vertex="1">
          <mxGeometry x="320" y="340" width="40" height="40" as="geometry" />
        </mxCell>
        <mxCell id="0aPPDFqxMMvj2nhd9XFM-16" value="" style="rounded=0;whiteSpace=wrap;html=1;fillColor=#d5e8d4;strokeColor=#82b366;" parent="egzKSEprmWDQXE4lO2Hz-1" vertex="1">
          <mxGeometry x="440" y="460" width="120" height="40" as="geometry" />
        </mxCell>
        <mxCell id="0aPPDFqxMMvj2nhd9XFM-17" value="" style="rounded=0;whiteSpace=wrap;html=1;fillColor=#fff2cc;strokeColor=#d6b656;" parent="egzKSEprmWDQXE4lO2Hz-1" vertex="1">
          <mxGeometry x="440" y="220" width="120" height="40" as="geometry" />
        </mxCell>
        <mxCell id="0aPPDFqxMMvj2nhd9XFM-18" value="&lt;font style=&quot;font-size: 30px&quot;&gt;V&lt;/font&gt;" style="whiteSpace=wrap;html=1;aspect=fixed;" parent="egzKSEprmWDQXE4lO2Hz-1" vertex="1">
          <mxGeometry x="440" y="300" width="40" height="40" as="geometry" />
        </mxCell>
        <mxCell id="0aPPDFqxMMvj2nhd9XFM-19" value="&lt;font style=&quot;font-size: 30px&quot;&gt;V&lt;/font&gt;" style="whiteSpace=wrap;html=1;aspect=fixed;" parent="egzKSEprmWDQXE4lO2Hz-1" vertex="1">
          <mxGeometry x="480" y="300" width="40" height="40" as="geometry" />
        </mxCell>
        <mxCell id="0aPPDFqxMMvj2nhd9XFM-20" value="&lt;font style=&quot;font-size: 30px&quot;&gt;V&lt;/font&gt;" style="whiteSpace=wrap;html=1;aspect=fixed;" parent="egzKSEprmWDQXE4lO2Hz-1" vertex="1">
          <mxGeometry x="520" y="300" width="40" height="40" as="geometry" />
        </mxCell>
        <mxCell id="0aPPDFqxMMvj2nhd9XFM-21" value="&lt;font style=&quot;font-size: 30px&quot;&gt;V&lt;/font&gt;" style="whiteSpace=wrap;html=1;aspect=fixed;" parent="egzKSEprmWDQXE4lO2Hz-1" vertex="1">
          <mxGeometry x="560" y="300" width="40" height="40" as="geometry" />
        </mxCell>
        <mxCell id="0aPPDFqxMMvj2nhd9XFM-22" value="" style="rounded=0;whiteSpace=wrap;html=1;strokeColor=#82b366;fillColor=#97D077;" parent="egzKSEprmWDQXE4lO2Hz-1" vertex="1">
          <mxGeometry x="560" y="220" width="120" height="40" as="geometry" />
        </mxCell>
        <mxCell id="EkMnIeAbIw2VScNW5JcH-1" value="" style="shape=mxgraph.bpmn.loop;html=1;outlineConnect=0;fillColor=#97D077;aspect=fixed;strokeWidth=4;strokeColor=#006600;" parent="egzKSEprmWDQXE4lO2Hz-1" vertex="1">
          <mxGeometry x="521" y="462" width="35" height="35" as="geometry" />
        </mxCell>
        <mxCell id="EkMnIeAbIw2VScNW5JcH-2" value="" style="rounded=0;whiteSpace=wrap;html=1;fillColor=#fff2cc;strokeColor=#d6b656;" parent="egzKSEprmWDQXE4lO2Hz-1" vertex="1">
          <mxGeometry x="560" y="460" width="120" height="40" as="geometry" />
        </mxCell>
        <mxCell id="EkMnIeAbIw2VScNW5JcH-3" value="&lt;font style=&quot;font-size: 30px&quot;&gt;V&lt;/font&gt;" style="whiteSpace=wrap;html=1;aspect=fixed;" parent="egzKSEprmWDQXE4lO2Hz-1" vertex="1">
          <mxGeometry x="600" y="300" width="40" height="40" as="geometry" />
        </mxCell>
        <mxCell id="EkMnIeAbIw2VScNW5JcH-4" value="&lt;font style=&quot;font-size: 30px&quot;&gt;V&lt;/font&gt;" style="whiteSpace=wrap;html=1;aspect=fixed;" parent="egzKSEprmWDQXE4lO2Hz-1" vertex="1">
          <mxGeometry x="640" y="300" width="40" height="40" as="geometry" />
        </mxCell>
        <mxCell id="EkMnIeAbIw2VScNW5JcH-5" value="" style="rounded=0;whiteSpace=wrap;html=1;fillColor=#d5e8d4;strokeColor=#82b366;" parent="egzKSEprmWDQXE4lO2Hz-1" vertex="1">
          <mxGeometry x="680" y="460.5" width="120" height="40" as="geometry" />
        </mxCell>
        <mxCell id="EkMnIeAbIw2VScNW5JcH-6" value="" style="shape=mxgraph.bpmn.loop;html=1;outlineConnect=0;fillColor=#97D077;aspect=fixed;strokeWidth=4;strokeColor=#006600;" parent="egzKSEprmWDQXE4lO2Hz-1" vertex="1">
          <mxGeometry x="722.5" y="462.5" width="35" height="35" as="geometry" />
        </mxCell>
        <mxCell id="EkMnIeAbIw2VScNW5JcH-7" value="" style="shape=mxgraph.bpmn.loop;html=1;outlineConnect=0;fillColor=#97D077;aspect=fixed;strokeWidth=4;strokeColor=#006600;" parent="egzKSEprmWDQXE4lO2Hz-1" vertex="1">
          <mxGeometry x="761" y="462.5" width="35" height="35" as="geometry" />
        </mxCell>
        <mxCell id="EkMnIeAbIw2VScNW5JcH-8" value="" style="shape=mxgraph.bpmn.loop;html=1;outlineConnect=0;fillColor=#97D077;aspect=fixed;strokeWidth=4;strokeColor=#006600;" parent="egzKSEprmWDQXE4lO2Hz-1" vertex="1">
          <mxGeometry x="683.5" y="463" width="35" height="35" as="geometry" />
        </mxCell>
        <mxCell id="EkMnIeAbIw2VScNW5JcH-9" value="" style="rounded=0;whiteSpace=wrap;html=1;fillColor=#fff2cc;strokeColor=#d6b656;" parent="egzKSEprmWDQXE4lO2Hz-1" vertex="1">
          <mxGeometry x="680" y="220" width="120" height="40" as="geometry" />
        </mxCell>
        <mxCell id="EkMnIeAbIw2VScNW5JcH-10" value="&lt;font style=&quot;font-size: 30px&quot;&gt;V&lt;/font&gt;" style="whiteSpace=wrap;html=1;aspect=fixed;" parent="egzKSEprmWDQXE4lO2Hz-1" vertex="1">
          <mxGeometry x="680" y="300" width="40" height="40" as="geometry" />
        </mxCell>
        <mxCell id="EkMnIeAbIw2VScNW5JcH-11" value="&lt;font style=&quot;font-size: 30px&quot;&gt;V&lt;/font&gt;" style="whiteSpace=wrap;html=1;aspect=fixed;" parent="egzKSEprmWDQXE4lO2Hz-1" vertex="1">
          <mxGeometry x="720" y="300" width="40" height="40" as="geometry" />
        </mxCell>
        <mxCell id="EkMnIeAbIw2VScNW5JcH-12" value="&lt;font style=&quot;font-size: 30px&quot;&gt;V&lt;/font&gt;" style="whiteSpace=wrap;html=1;aspect=fixed;" parent="egzKSEprmWDQXE4lO2Hz-1" vertex="1">
          <mxGeometry x="760" y="300" width="40" height="40" as="geometry" />
        </mxCell>
        <mxCell id="EkMnIeAbIw2VScNW5JcH-13" value="&lt;font style=&quot;font-size: 30px&quot;&gt;V&lt;/font&gt;" style="whiteSpace=wrap;html=1;aspect=fixed;" parent="egzKSEprmWDQXE4lO2Hz-1" vertex="1">
          <mxGeometry x="800" y="300" width="40" height="40" as="geometry" />
        </mxCell>
        <mxCell id="EkMnIeAbIw2VScNW5JcH-14" value="" style="rounded=0;whiteSpace=wrap;html=1;strokeColor=#82b366;fillColor=#97D077;" parent="egzKSEprmWDQXE4lO2Hz-1" vertex="1">
          <mxGeometry x="800" y="220" width="40" height="40" as="geometry" />
        </mxCell>
        <mxCell id="EkMnIeAbIw2VScNW5JcH-15" value="" style="whiteSpace=wrap;html=1;aspect=fixed;" parent="egzKSEprmWDQXE4lO2Hz-1" vertex="1">
          <mxGeometry x="840" y="340" width="40" height="40" as="geometry" />
        </mxCell>
        <mxCell id="EkMnIeAbIw2VScNW5JcH-16" value="" style="whiteSpace=wrap;html=1;aspect=fixed;" parent="egzKSEprmWDQXE4lO2Hz-1" vertex="1">
          <mxGeometry x="880" y="340" width="40" height="40" as="geometry" />
        </mxCell>
        <mxCell id="EkMnIeAbIw2VScNW5JcH-17" value="" style="rounded=0;whiteSpace=wrap;html=1;strokeColor=#82b366;fillColor=#d5e8d4;" parent="egzKSEprmWDQXE4lO2Hz-1" vertex="1">
          <mxGeometry x="840" y="220" width="80" height="40" as="geometry" />
        </mxCell>
        <mxCell id="EkMnIeAbIw2VScNW5JcH-18" value="" style="rounded=0;whiteSpace=wrap;html=1;fillColor=#fff2cc;strokeColor=#d6b656;" parent="egzKSEprmWDQXE4lO2Hz-1" vertex="1">
          <mxGeometry x="800" y="460.5" width="120" height="40" as="geometry" />
        </mxCell>
        <mxCell id="EkMnIeAbIw2VScNW5JcH-20" value="" style="rounded=0;whiteSpace=wrap;html=1;strokeColor=#82b366;fillColor=#97D077;" parent="egzKSEprmWDQXE4lO2Hz-1" vertex="1">
          <mxGeometry x="921" y="460" width="119" height="40" as="geometry" />
        </mxCell>
        <mxCell id="EkMnIeAbIw2VScNW5JcH-23" value="&lt;font style=&quot;font-size: 30px&quot;&gt;V&lt;/font&gt;" style="whiteSpace=wrap;html=1;aspect=fixed;" parent="egzKSEprmWDQXE4lO2Hz-1" vertex="1">
          <mxGeometry x="920" y="380" width="40" height="40" as="geometry" />
        </mxCell>
        <mxCell id="EkMnIeAbIw2VScNW5JcH-24" value="" style="rounded=0;whiteSpace=wrap;html=1;fillColor=#fff2cc;strokeColor=#d6b656;" parent="egzKSEprmWDQXE4lO2Hz-1" vertex="1">
          <mxGeometry x="920" y="220" width="120" height="40" as="geometry" />
        </mxCell>
        <mxCell id="Ox74ODpOmAC8dxmcJTIc-1" value="" style="endArrow=classic;html=1;entryX=0.25;entryY=1;entryDx=0;entryDy=0;exitX=0.5;exitY=0;exitDx=0;exitDy=0;" parent="egzKSEprmWDQXE4lO2Hz-1" source="0aPPDFqxMMvj2nhd9XFM-0" target="0aPPDFqxMMvj2nhd9XFM-1" edge="1">
          <mxGeometry width="50" height="50" relative="1" as="geometry">
            <mxPoint x="400" y="390" as="sourcePoint" />
            <mxPoint x="260" y="640" as="targetPoint" />
          </mxGeometry>
        </mxCell>
        <mxCell id="69qzEcdlD3jyEWn3shQl-0" value="" style="endArrow=classic;html=1;exitX=0.5;exitY=1;exitDx=0;exitDy=0;entryX=0.5;entryY=0;entryDx=0;entryDy=0;" parent="egzKSEprmWDQXE4lO2Hz-1" source="0aPPDFqxMMvj2nhd9XFM-19" target="0aPPDFqxMMvj2nhd9XFM-16" edge="1">
          <mxGeometry width="50" height="50" relative="1" as="geometry">
            <mxPoint x="500" y="458" as="sourcePoint" />
            <mxPoint x="460" y="430" as="targetPoint" />
          </mxGeometry>
        </mxCell>
        <mxCell id="69qzEcdlD3jyEWn3shQl-1" value="" style="endArrow=classic;html=1;exitX=0.5;exitY=1;exitDx=0;exitDy=0;" parent="egzKSEprmWDQXE4lO2Hz-1" source="EkMnIeAbIw2VScNW5JcH-10" edge="1">
          <mxGeometry width="50" height="50" relative="1" as="geometry">
            <mxPoint x="700" y="460" as="sourcePoint" />
            <mxPoint x="700" y="460" as="targetPoint" />
          </mxGeometry>
        </mxCell>
        <mxCell id="69qzEcdlD3jyEWn3shQl-2" value="" style="endArrow=classic;html=1;" parent="egzKSEprmWDQXE4lO2Hz-1" edge="1">
          <mxGeometry width="50" height="50" relative="1" as="geometry">
            <mxPoint x="538" y="340" as="sourcePoint" />
            <mxPoint x="538" y="457" as="targetPoint" />
          </mxGeometry>
        </mxCell>
        <mxCell id="VBAqKeldqFWhcmaFy6Zt-0" value="" style="endArrow=none;dashed=1;html=1;dashPattern=1 3;strokeWidth=2;" parent="egzKSEprmWDQXE4lO2Hz-1" edge="1">
          <mxGeometry width="50" height="50" relative="1" as="geometry">
            <mxPoint x="200" y="540" as="sourcePoint" />
            <mxPoint x="200" y="180" as="targetPoint" />
          </mxGeometry>
        </mxCell>
        <mxCell id="VBAqKeldqFWhcmaFy6Zt-3" value="" style="endArrow=none;dashed=1;html=1;dashPattern=1 3;strokeWidth=2;" parent="egzKSEprmWDQXE4lO2Hz-1" edge="1">
          <mxGeometry width="50" height="50" relative="1" as="geometry">
            <mxPoint x="320" y="540" as="sourcePoint" />
            <mxPoint x="320" y="180" as="targetPoint" />
          </mxGeometry>
        </mxCell>
        <mxCell id="VBAqKeldqFWhcmaFy6Zt-4" value="" style="endArrow=none;dashed=1;html=1;dashPattern=1 3;strokeWidth=2;" parent="egzKSEprmWDQXE4lO2Hz-1" edge="1">
          <mxGeometry width="50" height="50" relative="1" as="geometry">
            <mxPoint x="440" y="540" as="sourcePoint" />
            <mxPoint x="440" y="180" as="targetPoint" />
          </mxGeometry>
        </mxCell>
        <mxCell id="VBAqKeldqFWhcmaFy6Zt-5" value="" style="endArrow=none;dashed=1;html=1;dashPattern=1 3;strokeWidth=2;" parent="egzKSEprmWDQXE4lO2Hz-1" edge="1">
          <mxGeometry width="50" height="50" relative="1" as="geometry">
            <mxPoint x="560" y="540" as="sourcePoint" />
            <mxPoint x="560" y="180" as="targetPoint" />
          </mxGeometry>
        </mxCell>
        <mxCell id="VBAqKeldqFWhcmaFy6Zt-6" value="" style="endArrow=none;dashed=1;html=1;dashPattern=1 3;strokeWidth=2;" parent="egzKSEprmWDQXE4lO2Hz-1" edge="1">
          <mxGeometry width="50" height="50" relative="1" as="geometry">
            <mxPoint x="679.1700000000001" y="540" as="sourcePoint" />
            <mxPoint x="679.1700000000001" y="180" as="targetPoint" />
          </mxGeometry>
        </mxCell>
        <mxCell id="VBAqKeldqFWhcmaFy6Zt-7" value="" style="endArrow=none;dashed=1;html=1;dashPattern=1 3;strokeWidth=2;" parent="egzKSEprmWDQXE4lO2Hz-1" edge="1">
          <mxGeometry width="50" height="50" relative="1" as="geometry">
            <mxPoint x="799.17" y="540" as="sourcePoint" />
            <mxPoint x="799.17" y="180" as="targetPoint" />
          </mxGeometry>
        </mxCell>
        <mxCell id="VBAqKeldqFWhcmaFy6Zt-8" value="" style="endArrow=none;dashed=1;html=1;dashPattern=1 3;strokeWidth=2;" parent="egzKSEprmWDQXE4lO2Hz-1" edge="1">
          <mxGeometry width="50" height="50" relative="1" as="geometry">
            <mxPoint x="920" y="540" as="sourcePoint" />
            <mxPoint x="920" y="180" as="targetPoint" />
          </mxGeometry>
        </mxCell>
        <mxCell id="N81QqHq27Ue9tbVYdFpq-0" value="&lt;font style=&quot;font-size: 24px&quot;&gt;Поток 1&lt;/font&gt;" style="text;html=1;strokeColor=none;fillColor=none;align=center;verticalAlign=middle;whiteSpace=wrap;rounded=0;" parent="egzKSEprmWDQXE4lO2Hz-1" vertex="1">
          <mxGeometry x="30" y="160" width="130" height="20" as="geometry" />
        </mxCell>
        <mxCell id="yUw7EQO-VUPE7KpfeguR-0" value="&lt;font style=&quot;font-size: 24px&quot;&gt;Поток 2&lt;/font&gt;" style="text;html=1;strokeColor=none;fillColor=none;align=center;verticalAlign=middle;whiteSpace=wrap;rounded=0;" parent="egzKSEprmWDQXE4lO2Hz-1" vertex="1">
          <mxGeometry x="30" y="540" width="130" height="20" as="geometry" />
        </mxCell>
        <mxCell id="G235KOUm36JRrY9uVVRr-0" value="&lt;font face=&quot;Garamond&quot; color=&quot;#006633&quot; size=&quot;1&quot;&gt;&lt;b style=&quot;font-size: 36px&quot;&gt;Спин-блокировка на мьютексе&lt;/b&gt;&lt;/font&gt;" style="text;html=1;align=left;verticalAlign=middle;whiteSpace=wrap;rounded=0;" parent="egzKSEprmWDQXE4lO2Hz-1" vertex="1">
          <mxGeometry x="40" y="40" width="920" height="20" as="geometry" />
        </mxCell>
        <mxCell id="_kNGEcyH6tN4Kq5b5k_X-0" value="&lt;font color=&quot;#000000&quot; style=&quot;font-size: 18px&quot;&gt;Наличие блокировки потока 2 не учитывается при планировании&lt;/font&gt;" style="text;html=1;strokeColor=none;fillColor=none;align=center;verticalAlign=middle;whiteSpace=wrap;rounded=0;fontColor=#006633;" parent="egzKSEprmWDQXE4lO2Hz-1" vertex="1">
          <mxGeometry x="300" y="580" width="590" height="20" as="geometry" />
        </mxCell>
        <mxCell id="yQzKRLeDWQbCE8Vg_R0H-0" value="" style="endArrow=classic;html=1;exitX=0.5;exitY=1;exitDx=0;exitDy=0;" parent="egzKSEprmWDQXE4lO2Hz-1" source="EkMnIeAbIw2VScNW5JcH-11" edge="1">
          <mxGeometry width="50" height="50" relative="1" as="geometry">
            <mxPoint x="710" y="350.0000000000001" as="sourcePoint" />
            <mxPoint x="740" y="460" as="targetPoint" />
          </mxGeometry>
        </mxCell>
        <mxCell id="yQzKRLeDWQbCE8Vg_R0H-1" value="" style="endArrow=classic;html=1;exitX=0.5;exitY=1;exitDx=0;exitDy=0;entryX=0.842;entryY=-0.005;entryDx=0;entryDy=0;entryPerimeter=0;" parent="egzKSEprmWDQXE4lO2Hz-1" source="EkMnIeAbIw2VScNW5JcH-12" target="EkMnIeAbIw2VScNW5JcH-5" edge="1">
          <mxGeometry width="50" height="50" relative="1" as="geometry">
            <mxPoint x="720" y="360.0000000000001" as="sourcePoint" />
            <mxPoint x="779" y="450" as="targetPoint" />
          </mxGeometry>
        </mxCell>
        <mxCell id="yQzKRLeDWQbCE8Vg_R0H-2" value="" style="endArrow=classic;html=1;fontColor=#006633;exitX=0.5;exitY=1;exitDx=0;exitDy=0;entryX=0.166;entryY=-0.025;entryDx=0;entryDy=0;entryPerimeter=0;" parent="egzKSEprmWDQXE4lO2Hz-1" source="EkMnIeAbIw2VScNW5JcH-23" target="EkMnIeAbIw2VScNW5JcH-20" edge="1">
          <mxGeometry width="50" height="50" relative="1" as="geometry">
            <mxPoint x="771" y="299.5" as="sourcePoint" />
            <mxPoint x="821" y="249.5" as="targetPoint" />
          </mxGeometry>
        </mxCell>
        <mxCell id="TMttSzgqC6ydwPq43Xw_-0" value="&lt;font style=&quot;font-size: 30px&quot;&gt;V&lt;/font&gt;" style="whiteSpace=wrap;html=1;aspect=fixed;" parent="egzKSEprmWDQXE4lO2Hz-1" vertex="1">
          <mxGeometry x="961" y="380" width="40" height="40" as="geometry" />
        </mxCell>
        <mxCell id="TMttSzgqC6ydwPq43Xw_-1" value="&lt;font style=&quot;font-size: 30px&quot;&gt;V&lt;/font&gt;" style="whiteSpace=wrap;html=1;aspect=fixed;" parent="egzKSEprmWDQXE4lO2Hz-1" vertex="1">
          <mxGeometry x="1001" y="380" width="40" height="40" as="geometry" />
        </mxCell>
      </root>
    </mxGraphModel>
  </diagram>
  <diagram name="Mutex - queue" id="ASGZ3K-WkQ0-r-J1xUNQ">
    <mxGraphModel dx="1174" dy="736" grid="1" gridSize="10" guides="1" tooltips="1" connect="1" arrows="1" fold="1" page="1" pageScale="1" pageWidth="1169" pageHeight="827" math="0" shadow="0">
      <root>
        <mxCell id="yh3LMR_NNYSIdBTZSJ3h-0" />
        <mxCell id="yh3LMR_NNYSIdBTZSJ3h-1" parent="yh3LMR_NNYSIdBTZSJ3h-0" />
        <mxCell id="yh3LMR_NNYSIdBTZSJ3h-2" value="" style="rounded=0;whiteSpace=wrap;html=1;fillColor=#d5e8d4;strokeColor=#82b366;" parent="yh3LMR_NNYSIdBTZSJ3h-1" vertex="1">
          <mxGeometry x="80" y="220" width="120" height="40" as="geometry" />
        </mxCell>
        <mxCell id="yh3LMR_NNYSIdBTZSJ3h-3" value="" style="rounded=0;whiteSpace=wrap;html=1;fillColor=#fff2cc;strokeColor=#d6b656;" parent="yh3LMR_NNYSIdBTZSJ3h-1" vertex="1">
          <mxGeometry x="200" y="220" width="120" height="40" as="geometry" />
        </mxCell>
        <mxCell id="yh3LMR_NNYSIdBTZSJ3h-4" value="" style="rounded=0;whiteSpace=wrap;html=1;fillColor=#fff2cc;strokeColor=#d6b656;" parent="yh3LMR_NNYSIdBTZSJ3h-1" vertex="1">
          <mxGeometry x="80" y="460" width="120" height="40" as="geometry" />
        </mxCell>
        <mxCell id="yh3LMR_NNYSIdBTZSJ3h-5" value="" style="rounded=0;whiteSpace=wrap;html=1;fillColor=#d5e8d4;strokeColor=#82b366;" parent="yh3LMR_NNYSIdBTZSJ3h-1" vertex="1">
          <mxGeometry x="200" y="460" width="120" height="40" as="geometry" />
        </mxCell>
        <mxCell id="yh3LMR_NNYSIdBTZSJ3h-6" value="" style="rounded=0;whiteSpace=wrap;html=1;strokeColor=#82b366;fillColor=#97D077;" parent="yh3LMR_NNYSIdBTZSJ3h-1" vertex="1">
          <mxGeometry x="360" y="220" width="80" height="40" as="geometry" />
        </mxCell>
        <mxCell id="yh3LMR_NNYSIdBTZSJ3h-7" value="" style="rounded=0;whiteSpace=wrap;html=1;fillColor=#d5e8d4;strokeColor=#82b366;" parent="yh3LMR_NNYSIdBTZSJ3h-1" vertex="1">
          <mxGeometry x="320" y="220" width="40" height="40" as="geometry" />
        </mxCell>
        <mxCell id="yh3LMR_NNYSIdBTZSJ3h-8" value="&lt;font style=&quot;font-size: 30px&quot;&gt;V&lt;/font&gt;" style="whiteSpace=wrap;html=1;aspect=fixed;" parent="yh3LMR_NNYSIdBTZSJ3h-1" vertex="1">
          <mxGeometry x="360" y="300" width="40" height="40" as="geometry" />
        </mxCell>
        <mxCell id="yh3LMR_NNYSIdBTZSJ3h-9" value="" style="whiteSpace=wrap;html=1;aspect=fixed;" parent="yh3LMR_NNYSIdBTZSJ3h-1" vertex="1">
          <mxGeometry x="80" y="340" width="40" height="40" as="geometry" />
        </mxCell>
        <mxCell id="yh3LMR_NNYSIdBTZSJ3h-10" value="&lt;font style=&quot;font-size: 30px&quot;&gt;V&lt;/font&gt;" style="whiteSpace=wrap;html=1;aspect=fixed;" parent="yh3LMR_NNYSIdBTZSJ3h-1" vertex="1">
          <mxGeometry x="400" y="300" width="40" height="40" as="geometry" />
        </mxCell>
        <mxCell id="yh3LMR_NNYSIdBTZSJ3h-11" value="" style="rounded=0;whiteSpace=wrap;html=1;fillColor=#fff2cc;strokeColor=#d6b656;" parent="yh3LMR_NNYSIdBTZSJ3h-1" vertex="1">
          <mxGeometry x="320" y="460" width="120" height="40" as="geometry" />
        </mxCell>
        <mxCell id="yh3LMR_NNYSIdBTZSJ3h-12" value="" style="whiteSpace=wrap;html=1;aspect=fixed;" parent="yh3LMR_NNYSIdBTZSJ3h-1" vertex="1">
          <mxGeometry x="120" y="340" width="40" height="40" as="geometry" />
        </mxCell>
        <mxCell id="yh3LMR_NNYSIdBTZSJ3h-13" value="" style="whiteSpace=wrap;html=1;aspect=fixed;" parent="yh3LMR_NNYSIdBTZSJ3h-1" vertex="1">
          <mxGeometry x="200" y="340" width="40" height="40" as="geometry" />
        </mxCell>
        <mxCell id="yh3LMR_NNYSIdBTZSJ3h-14" value="" style="whiteSpace=wrap;html=1;aspect=fixed;" parent="yh3LMR_NNYSIdBTZSJ3h-1" vertex="1">
          <mxGeometry x="160" y="340" width="40" height="40" as="geometry" />
        </mxCell>
        <mxCell id="yh3LMR_NNYSIdBTZSJ3h-15" value="" style="whiteSpace=wrap;html=1;aspect=fixed;" parent="yh3LMR_NNYSIdBTZSJ3h-1" vertex="1">
          <mxGeometry x="240" y="340" width="40" height="40" as="geometry" />
        </mxCell>
        <mxCell id="yh3LMR_NNYSIdBTZSJ3h-16" value="" style="whiteSpace=wrap;html=1;aspect=fixed;" parent="yh3LMR_NNYSIdBTZSJ3h-1" vertex="1">
          <mxGeometry x="280" y="340" width="40" height="40" as="geometry" />
        </mxCell>
        <mxCell id="yh3LMR_NNYSIdBTZSJ3h-17" value="" style="whiteSpace=wrap;html=1;aspect=fixed;" parent="yh3LMR_NNYSIdBTZSJ3h-1" vertex="1">
          <mxGeometry x="320" y="340" width="40" height="40" as="geometry" />
        </mxCell>
        <mxCell id="yh3LMR_NNYSIdBTZSJ3h-18" value="" style="rounded=0;whiteSpace=wrap;html=1;fillColor=#d5e8d4;strokeColor=#82b366;" parent="yh3LMR_NNYSIdBTZSJ3h-1" vertex="1">
          <mxGeometry x="440" y="460" width="80" height="40" as="geometry" />
        </mxCell>
        <mxCell id="yh3LMR_NNYSIdBTZSJ3h-19" value="" style="rounded=0;whiteSpace=wrap;html=1;fillColor=#fff2cc;strokeColor=#d6b656;" parent="yh3LMR_NNYSIdBTZSJ3h-1" vertex="1">
          <mxGeometry x="440" y="220" width="80" height="40" as="geometry" />
        </mxCell>
        <mxCell id="yh3LMR_NNYSIdBTZSJ3h-20" value="&lt;font style=&quot;font-size: 30px&quot;&gt;V&lt;/font&gt;" style="whiteSpace=wrap;html=1;aspect=fixed;" parent="yh3LMR_NNYSIdBTZSJ3h-1" vertex="1">
          <mxGeometry x="440" y="300" width="40" height="40" as="geometry" />
        </mxCell>
        <mxCell id="yh3LMR_NNYSIdBTZSJ3h-21" value="&lt;font style=&quot;font-size: 30px&quot;&gt;V&lt;/font&gt;" style="whiteSpace=wrap;html=1;aspect=fixed;" parent="yh3LMR_NNYSIdBTZSJ3h-1" vertex="1">
          <mxGeometry x="480" y="300" width="40" height="40" as="geometry" />
        </mxCell>
        <mxCell id="yh3LMR_NNYSIdBTZSJ3h-23" value="&lt;font style=&quot;font-size: 30px&quot;&gt;V&lt;/font&gt;" style="whiteSpace=wrap;html=1;aspect=fixed;" parent="yh3LMR_NNYSIdBTZSJ3h-1" vertex="1">
          <mxGeometry x="520" y="300" width="40" height="40" as="geometry" />
        </mxCell>
        <mxCell id="yh3LMR_NNYSIdBTZSJ3h-24" value="" style="rounded=0;whiteSpace=wrap;html=1;strokeColor=#82b366;fillColor=#97D077;" parent="yh3LMR_NNYSIdBTZSJ3h-1" vertex="1">
          <mxGeometry x="520" y="220" width="120" height="40" as="geometry" />
        </mxCell>
        <mxCell id="yh3LMR_NNYSIdBTZSJ3h-27" value="" style="rounded=0;whiteSpace=wrap;html=1;fillColor=#e51400;strokeColor=#B20000;fontColor=#ffffff;" parent="yh3LMR_NNYSIdBTZSJ3h-1" vertex="1">
          <mxGeometry x="520" y="460" width="280" height="40" as="geometry" />
        </mxCell>
        <mxCell id="yh3LMR_NNYSIdBTZSJ3h-28" value="&lt;font style=&quot;font-size: 30px&quot;&gt;V&lt;/font&gt;" style="whiteSpace=wrap;html=1;aspect=fixed;" parent="yh3LMR_NNYSIdBTZSJ3h-1" vertex="1">
          <mxGeometry x="560" y="300" width="40" height="40" as="geometry" />
        </mxCell>
        <mxCell id="yh3LMR_NNYSIdBTZSJ3h-29" value="&lt;font style=&quot;font-size: 30px&quot;&gt;V&lt;/font&gt;" style="whiteSpace=wrap;html=1;aspect=fixed;" parent="yh3LMR_NNYSIdBTZSJ3h-1" vertex="1">
          <mxGeometry x="600" y="300" width="40" height="40" as="geometry" />
        </mxCell>
        <mxCell id="yh3LMR_NNYSIdBTZSJ3h-35" value="&lt;font style=&quot;font-size: 30px&quot;&gt;V&lt;/font&gt;" style="whiteSpace=wrap;html=1;aspect=fixed;" parent="yh3LMR_NNYSIdBTZSJ3h-1" vertex="1">
          <mxGeometry x="640" y="300" width="40" height="40" as="geometry" />
        </mxCell>
        <mxCell id="yh3LMR_NNYSIdBTZSJ3h-39" value="" style="rounded=0;whiteSpace=wrap;html=1;strokeColor=#82b366;fillColor=#97D077;" parent="yh3LMR_NNYSIdBTZSJ3h-1" vertex="1">
          <mxGeometry x="640" y="220" width="40" height="40" as="geometry" />
        </mxCell>
        <mxCell id="yh3LMR_NNYSIdBTZSJ3h-45" value="" style="rounded=0;whiteSpace=wrap;html=1;strokeColor=#82b366;fillColor=#97D077;" parent="yh3LMR_NNYSIdBTZSJ3h-1" vertex="1">
          <mxGeometry x="801" y="460" width="119" height="40" as="geometry" />
        </mxCell>
        <mxCell id="yh3LMR_NNYSIdBTZSJ3h-46" value="" style="whiteSpace=wrap;html=1;aspect=fixed;" parent="yh3LMR_NNYSIdBTZSJ3h-1" vertex="1">
          <mxGeometry x="720" y="340" width="40" height="40" as="geometry" />
        </mxCell>
        <mxCell id="yh3LMR_NNYSIdBTZSJ3h-47" value="" style="whiteSpace=wrap;html=1;aspect=fixed;" parent="yh3LMR_NNYSIdBTZSJ3h-1" vertex="1">
          <mxGeometry x="760" y="340" width="40" height="40" as="geometry" />
        </mxCell>
        <mxCell id="yh3LMR_NNYSIdBTZSJ3h-48" value="&lt;font style=&quot;font-size: 30px&quot;&gt;V&lt;/font&gt;" style="whiteSpace=wrap;html=1;aspect=fixed;" parent="yh3LMR_NNYSIdBTZSJ3h-1" vertex="1">
          <mxGeometry x="801" y="380" width="40" height="40" as="geometry" />
        </mxCell>
        <mxCell id="yh3LMR_NNYSIdBTZSJ3h-50" value="" style="endArrow=classic;html=1;exitX=0.5;exitY=0;exitDx=0;exitDy=0;entryX=0.25;entryY=1;entryDx=0;entryDy=0;" parent="yh3LMR_NNYSIdBTZSJ3h-1" source="yh3LMR_NNYSIdBTZSJ3h-8" target="yh3LMR_NNYSIdBTZSJ3h-6" edge="1">
          <mxGeometry width="50" height="50" relative="1" as="geometry">
            <mxPoint x="210" y="690" as="sourcePoint" />
            <mxPoint x="410" y="390" as="targetPoint" />
          </mxGeometry>
        </mxCell>
        <mxCell id="DAJnWWRiXqsbYn3FnPX8-0" value="" style="endArrow=classic;html=1;exitX=0.5;exitY=1;exitDx=0;exitDy=0;entryX=0.75;entryY=0;entryDx=0;entryDy=0;" parent="yh3LMR_NNYSIdBTZSJ3h-1" source="yh3LMR_NNYSIdBTZSJ3h-21" target="yh3LMR_NNYSIdBTZSJ3h-18" edge="1">
          <mxGeometry width="50" height="50" relative="1" as="geometry">
            <mxPoint x="560" y="540" as="sourcePoint" />
            <mxPoint x="470" y="400" as="targetPoint" />
          </mxGeometry>
        </mxCell>
        <mxCell id="JOh_HqATC-TCsiU0-dHM-0" value="&lt;font style=&quot;font-size: 30px&quot;&gt;V&lt;/font&gt;" style="whiteSpace=wrap;html=1;aspect=fixed;" parent="yh3LMR_NNYSIdBTZSJ3h-1" vertex="1">
          <mxGeometry x="680" y="300" width="40" height="40" as="geometry" />
        </mxCell>
        <mxCell id="JOh_HqATC-TCsiU0-dHM-4" value="" style="rounded=0;whiteSpace=wrap;html=1;strokeColor=#82b366;fillColor=#97D077;" parent="yh3LMR_NNYSIdBTZSJ3h-1" vertex="1">
          <mxGeometry x="680" y="220" width="40" height="40" as="geometry" />
        </mxCell>
        <mxCell id="JOh_HqATC-TCsiU0-dHM-6" value="" style="rounded=0;whiteSpace=wrap;html=1;fillColor=#d5e8d4;strokeColor=#82b366;" parent="yh3LMR_NNYSIdBTZSJ3h-1" vertex="1">
          <mxGeometry x="720" y="220" width="80" height="40" as="geometry" />
        </mxCell>
        <mxCell id="JOh_HqATC-TCsiU0-dHM-10" value="" style="rounded=0;whiteSpace=wrap;html=1;fillColor=#fff2cc;strokeColor=#d6b656;" parent="yh3LMR_NNYSIdBTZSJ3h-1" vertex="1">
          <mxGeometry x="800" y="220" width="120" height="40" as="geometry" />
        </mxCell>
        <mxCell id="JOh_HqATC-TCsiU0-dHM-11" value="" style="endArrow=classic;html=1;exitX=0.5;exitY=1;exitDx=0;exitDy=0;entryX=0.168;entryY=-0.05;entryDx=0;entryDy=0;entryPerimeter=0;" parent="yh3LMR_NNYSIdBTZSJ3h-1" source="yh3LMR_NNYSIdBTZSJ3h-48" target="yh3LMR_NNYSIdBTZSJ3h-45" edge="1">
          <mxGeometry width="50" height="50" relative="1" as="geometry">
            <mxPoint x="361" y="360" as="sourcePoint" />
            <mxPoint x="411" y="310" as="targetPoint" />
          </mxGeometry>
        </mxCell>
        <mxCell id="AjKmlMG_dV8qZQKT6oqJ-0" value="" style="endArrow=none;dashed=1;html=1;dashPattern=1 3;strokeWidth=2;" parent="yh3LMR_NNYSIdBTZSJ3h-1" edge="1">
          <mxGeometry width="50" height="50" relative="1" as="geometry">
            <mxPoint x="200" y="540" as="sourcePoint" />
            <mxPoint x="200" y="180" as="targetPoint" />
          </mxGeometry>
        </mxCell>
        <mxCell id="AjKmlMG_dV8qZQKT6oqJ-1" value="" style="endArrow=none;dashed=1;html=1;dashPattern=1 3;strokeWidth=2;" parent="yh3LMR_NNYSIdBTZSJ3h-1" edge="1">
          <mxGeometry width="50" height="50" relative="1" as="geometry">
            <mxPoint x="320" y="540" as="sourcePoint" />
            <mxPoint x="320" y="180" as="targetPoint" />
          </mxGeometry>
        </mxCell>
        <mxCell id="AjKmlMG_dV8qZQKT6oqJ-2" value="" style="endArrow=none;dashed=1;html=1;dashPattern=1 3;strokeWidth=2;" parent="yh3LMR_NNYSIdBTZSJ3h-1" edge="1">
          <mxGeometry width="50" height="50" relative="1" as="geometry">
            <mxPoint x="439" y="540" as="sourcePoint" />
            <mxPoint x="439" y="180" as="targetPoint" />
          </mxGeometry>
        </mxCell>
        <mxCell id="AjKmlMG_dV8qZQKT6oqJ-3" value="" style="endArrow=none;dashed=1;html=1;dashPattern=1 3;strokeWidth=2;" parent="yh3LMR_NNYSIdBTZSJ3h-1" edge="1">
          <mxGeometry width="50" height="50" relative="1" as="geometry">
            <mxPoint x="520" y="540" as="sourcePoint" />
            <mxPoint x="520" y="180" as="targetPoint" />
          </mxGeometry>
        </mxCell>
        <mxCell id="AjKmlMG_dV8qZQKT6oqJ-4" value="" style="endArrow=none;dashed=1;html=1;dashPattern=1 3;strokeWidth=2;" parent="yh3LMR_NNYSIdBTZSJ3h-1" edge="1">
          <mxGeometry width="50" height="50" relative="1" as="geometry">
            <mxPoint x="800" y="540" as="sourcePoint" />
            <mxPoint x="800" y="180" as="targetPoint" />
          </mxGeometry>
        </mxCell>
        <mxCell id="GddL1m6ZqGgKWiHQ9kwL-0" value="&lt;font face=&quot;Garamond&quot; color=&quot;#006633&quot; size=&quot;1&quot;&gt;&lt;b style=&quot;font-size: 36px&quot;&gt;Учет блокировки на мьютексе планировщиком&lt;/b&gt;&lt;/font&gt;" style="text;html=1;align=left;verticalAlign=middle;whiteSpace=wrap;rounded=0;" parent="yh3LMR_NNYSIdBTZSJ3h-1" vertex="1">
          <mxGeometry x="40" y="40" width="920" height="20" as="geometry" />
        </mxCell>
        <mxCell id="GddL1m6ZqGgKWiHQ9kwL-1" value="&lt;font color=&quot;#000000&quot; style=&quot;font-size: 18px&quot;&gt;ОС переводит поток 2 в&amp;nbsp; заблокированное состояние при попытке получить блокировку&lt;br&gt;и переходит к исполнению потока 1&lt;br&gt;&lt;/font&gt;" style="text;html=1;strokeColor=none;fillColor=none;align=center;verticalAlign=middle;whiteSpace=wrap;rounded=0;fontColor=#006633;" parent="yh3LMR_NNYSIdBTZSJ3h-1" vertex="1">
          <mxGeometry x="350" y="600" width="740" height="20" as="geometry" />
        </mxCell>
        <mxCell id="UAjm2Q3lkkWxLT09DMD2-0" value="&lt;font style=&quot;font-size: 24px&quot;&gt;Поток 1&lt;/font&gt;" style="text;html=1;strokeColor=none;fillColor=none;align=center;verticalAlign=middle;whiteSpace=wrap;rounded=0;" parent="yh3LMR_NNYSIdBTZSJ3h-1" vertex="1">
          <mxGeometry x="30" y="160" width="130" height="20" as="geometry" />
        </mxCell>
        <mxCell id="UAjm2Q3lkkWxLT09DMD2-1" value="&lt;font style=&quot;font-size: 24px&quot;&gt;Поток 2&lt;/font&gt;" style="text;html=1;strokeColor=none;fillColor=none;align=center;verticalAlign=middle;whiteSpace=wrap;rounded=0;" parent="yh3LMR_NNYSIdBTZSJ3h-1" vertex="1">
          <mxGeometry x="30" y="540" width="130" height="20" as="geometry" />
        </mxCell>
        <mxCell id="UAjm2Q3lkkWxLT09DMD2-2" value="" style="endArrow=classic;html=1;fontColor=#006633;exitX=0.5;exitY=0;exitDx=0;exitDy=0;" parent="yh3LMR_NNYSIdBTZSJ3h-1" source="GddL1m6ZqGgKWiHQ9kwL-1" edge="1">
          <mxGeometry width="50" height="50" relative="1" as="geometry">
            <mxPoint x="330" y="310" as="sourcePoint" />
            <mxPoint x="520" y="500" as="targetPoint" />
          </mxGeometry>
        </mxCell>
        <mxCell id="DyKDLtuY2JlvFsA1qYwL-0" value="" style="endArrow=none;dashed=1;html=1;dashPattern=1 3;strokeWidth=2;" parent="yh3LMR_NNYSIdBTZSJ3h-1" edge="1">
          <mxGeometry width="50" height="50" relative="1" as="geometry">
            <mxPoint x="550" y="540" as="sourcePoint" />
            <mxPoint x="550" y="180" as="targetPoint" />
          </mxGeometry>
        </mxCell>
        <mxCell id="DyKDLtuY2JlvFsA1qYwL-1" value="" style="endArrow=none;dashed=1;html=1;dashPattern=1 3;strokeWidth=2;" parent="yh3LMR_NNYSIdBTZSJ3h-1" edge="1">
          <mxGeometry width="50" height="50" relative="1" as="geometry">
            <mxPoint x="670" y="540" as="sourcePoint" />
            <mxPoint x="670" y="180" as="targetPoint" />
          </mxGeometry>
        </mxCell>
        <mxCell id="e2B9ESi0OKJbhoZ58Zqm-0" value="&lt;font style=&quot;font-size: 30px&quot;&gt;V&lt;/font&gt;" style="whiteSpace=wrap;html=1;aspect=fixed;" parent="yh3LMR_NNYSIdBTZSJ3h-1" vertex="1">
          <mxGeometry x="841" y="380" width="40" height="40" as="geometry" />
        </mxCell>
        <mxCell id="e2B9ESi0OKJbhoZ58Zqm-1" value="&lt;font style=&quot;font-size: 30px&quot;&gt;V&lt;/font&gt;" style="whiteSpace=wrap;html=1;aspect=fixed;" parent="yh3LMR_NNYSIdBTZSJ3h-1" vertex="1">
          <mxGeometry x="880" y="380" width="40" height="40" as="geometry" />
        </mxCell>
      </root>
    </mxGraphModel>
  </diagram>
  <diagram name="ProCon" id="jtQSJkvOh9wRR3adhcuP">
    <mxGraphModel dx="1174" dy="736" grid="1" gridSize="10" guides="1" tooltips="1" connect="1" arrows="1" fold="1" page="1" pageScale="1" pageWidth="1169" pageHeight="827" math="0" shadow="0">
      <root>
        <mxCell id="5OuP_5MeBpYRX6x22-8O-0" />
        <mxCell id="5OuP_5MeBpYRX6x22-8O-1" parent="5OuP_5MeBpYRX6x22-8O-0" />
        <mxCell id="2mohUejvQCOeJ5CQN0tC-2" value="" style="endArrow=classic;html=1;exitX=0.5;exitY=1;exitDx=0;exitDy=0;entryX=0.75;entryY=0;entryDx=0;entryDy=0;" parent="5OuP_5MeBpYRX6x22-8O-1" source="2mohUejvQCOeJ5CQN0tC-1" target="6MKCHYrUBUT9Yu_W55Oy-27" edge="1">
          <mxGeometry width="50" height="50" relative="1" as="geometry">
            <mxPoint x="560" y="440" as="sourcePoint" />
            <mxPoint x="610" y="390" as="targetPoint" />
          </mxGeometry>
        </mxCell>
        <mxCell id="5OuP_5MeBpYRX6x22-8O-3" value="" style="rounded=0;whiteSpace=wrap;html=1;fillColor=#fff2cc;strokeColor=#d6b656;" parent="5OuP_5MeBpYRX6x22-8O-1" vertex="1">
          <mxGeometry x="40" y="240" width="120" height="40" as="geometry" />
        </mxCell>
        <mxCell id="5OuP_5MeBpYRX6x22-8O-5" value="" style="rounded=0;whiteSpace=wrap;html=1;fillColor=#d5e8d4;strokeColor=#82b366;" parent="5OuP_5MeBpYRX6x22-8O-1" vertex="1">
          <mxGeometry x="40" y="580" width="120" height="40" as="geometry" />
        </mxCell>
        <mxCell id="5OuP_5MeBpYRX6x22-8O-6" value="" style="rounded=0;whiteSpace=wrap;html=1;strokeColor=#82b366;fillColor=#97D077;" parent="5OuP_5MeBpYRX6x22-8O-1" vertex="1">
          <mxGeometry x="160" y="240" width="80" height="40" as="geometry" />
        </mxCell>
        <mxCell id="5OuP_5MeBpYRX6x22-8O-11" value="" style="rounded=0;whiteSpace=wrap;html=1;fillColor=#fff2cc;strokeColor=#d6b656;" parent="5OuP_5MeBpYRX6x22-8O-1" vertex="1">
          <mxGeometry x="160" y="580" width="120" height="40" as="geometry" />
        </mxCell>
        <mxCell id="5OuP_5MeBpYRX6x22-8O-13" value="" style="whiteSpace=wrap;html=1;aspect=fixed;" parent="5OuP_5MeBpYRX6x22-8O-1" vertex="1">
          <mxGeometry x="40" y="360" width="40" height="40" as="geometry" />
        </mxCell>
        <mxCell id="5OuP_5MeBpYRX6x22-8O-15" value="" style="whiteSpace=wrap;html=1;aspect=fixed;" parent="5OuP_5MeBpYRX6x22-8O-1" vertex="1">
          <mxGeometry x="80" y="360" width="40" height="40" as="geometry" />
        </mxCell>
        <mxCell id="5OuP_5MeBpYRX6x22-8O-16" value="" style="whiteSpace=wrap;html=1;aspect=fixed;" parent="5OuP_5MeBpYRX6x22-8O-1" vertex="1">
          <mxGeometry x="120" y="360" width="40" height="40" as="geometry" />
        </mxCell>
        <mxCell id="5OuP_5MeBpYRX6x22-8O-19" value="" style="rounded=0;whiteSpace=wrap;html=1;fillColor=#fff2cc;strokeColor=#d6b656;" parent="5OuP_5MeBpYRX6x22-8O-1" vertex="1">
          <mxGeometry x="280" y="240" width="120" height="40" as="geometry" />
        </mxCell>
        <mxCell id="5OuP_5MeBpYRX6x22-8O-21" value="&lt;font style=&quot;font-size: 30px&quot;&gt;V&lt;/font&gt;" style="whiteSpace=wrap;html=1;aspect=fixed;" parent="5OuP_5MeBpYRX6x22-8O-1" vertex="1">
          <mxGeometry x="320" y="400" width="40" height="40" as="geometry" />
        </mxCell>
        <mxCell id="5OuP_5MeBpYRX6x22-8O-33" value="" style="endArrow=classic;html=1;exitX=0.5;exitY=1;exitDx=0;exitDy=0;entryX=0.5;entryY=0;entryDx=0;entryDy=0;" parent="5OuP_5MeBpYRX6x22-8O-1" source="eeE--ODAn1rO5j4N8dqk-0" edge="1">
          <mxGeometry width="50" height="50" relative="1" as="geometry">
            <mxPoint x="50" y="710" as="sourcePoint" />
            <mxPoint x="180" y="360" as="targetPoint" />
          </mxGeometry>
        </mxCell>
        <mxCell id="5OuP_5MeBpYRX6x22-8O-34" value="" style="endArrow=classic;html=1;exitX=0.5;exitY=1;exitDx=0;exitDy=0;entryX=0.5;entryY=0;entryDx=0;entryDy=0;" parent="5OuP_5MeBpYRX6x22-8O-1" source="iAUGiWTYHJOm4b5LVbHB-0" edge="1">
          <mxGeometry width="50" height="50" relative="1" as="geometry">
            <mxPoint x="400" y="660" as="sourcePoint" />
            <mxPoint x="300" y="580" as="targetPoint" />
          </mxGeometry>
        </mxCell>
        <mxCell id="5OuP_5MeBpYRX6x22-8O-44" value="" style="endArrow=none;dashed=1;html=1;dashPattern=1 3;strokeWidth=2;" parent="5OuP_5MeBpYRX6x22-8O-1" edge="1">
          <mxGeometry width="50" height="50" relative="1" as="geometry">
            <mxPoint x="160" y="630" as="sourcePoint" />
            <mxPoint x="160" y="200" as="targetPoint" />
          </mxGeometry>
        </mxCell>
        <mxCell id="5OuP_5MeBpYRX6x22-8O-45" value="" style="endArrow=none;dashed=1;html=1;dashPattern=1 3;strokeWidth=2;" parent="5OuP_5MeBpYRX6x22-8O-1" edge="1">
          <mxGeometry width="50" height="50" relative="1" as="geometry">
            <mxPoint x="279" y="630" as="sourcePoint" />
            <mxPoint x="279" y="200" as="targetPoint" />
          </mxGeometry>
        </mxCell>
        <mxCell id="5OuP_5MeBpYRX6x22-8O-48" value="&lt;font face=&quot;Garamond&quot; color=&quot;#006633&quot; size=&quot;1&quot;&gt;&lt;b style=&quot;font-size: 36px&quot;&gt;Производитель и потребитель&lt;/b&gt;&lt;/font&gt;" style="text;html=1;align=left;verticalAlign=middle;whiteSpace=wrap;rounded=0;" parent="5OuP_5MeBpYRX6x22-8O-1" vertex="1">
          <mxGeometry x="40" y="40" width="920" height="20" as="geometry" />
        </mxCell>
        <mxCell id="5OuP_5MeBpYRX6x22-8O-49" value="&lt;font color=&quot;#000000&quot; style=&quot;font-size: 18px&quot;&gt;Производитель и потребитель успевают выполнить необходимые действия за отводимый им квант времени&lt;/font&gt;" style="text;html=1;strokeColor=none;fillColor=none;align=center;verticalAlign=middle;whiteSpace=wrap;rounded=0;fontColor=#006633;" parent="5OuP_5MeBpYRX6x22-8O-1" vertex="1">
          <mxGeometry x="310" y="700" width="450" height="20" as="geometry" />
        </mxCell>
        <mxCell id="5OuP_5MeBpYRX6x22-8O-50" value="&lt;font style=&quot;font-size: 24px&quot;&gt;Поток 1&lt;/font&gt;" style="text;html=1;strokeColor=none;fillColor=none;align=center;verticalAlign=middle;whiteSpace=wrap;rounded=0;" parent="5OuP_5MeBpYRX6x22-8O-1" vertex="1">
          <mxGeometry x="30" y="160" width="130" height="20" as="geometry" />
        </mxCell>
        <mxCell id="5OuP_5MeBpYRX6x22-8O-51" value="&lt;font style=&quot;font-size: 24px&quot;&gt;Поток 2&lt;/font&gt;" style="text;html=1;strokeColor=none;fillColor=none;align=center;verticalAlign=middle;whiteSpace=wrap;rounded=0;" parent="5OuP_5MeBpYRX6x22-8O-1" vertex="1">
          <mxGeometry x="30" y="640" width="130" height="20" as="geometry" />
        </mxCell>
        <mxCell id="5OuP_5MeBpYRX6x22-8O-53" value="" style="endArrow=none;dashed=1;html=1;dashPattern=1 3;strokeWidth=2;" parent="5OuP_5MeBpYRX6x22-8O-1" edge="1">
          <mxGeometry width="50" height="50" relative="1" as="geometry">
            <mxPoint x="400" y="630" as="sourcePoint" />
            <mxPoint x="400" y="200" as="targetPoint" />
          </mxGeometry>
        </mxCell>
        <mxCell id="6MKCHYrUBUT9Yu_W55Oy-9" value="" style="whiteSpace=wrap;html=1;aspect=fixed;" parent="5OuP_5MeBpYRX6x22-8O-1" vertex="1">
          <mxGeometry x="240" y="360" width="40" height="40" as="geometry" />
        </mxCell>
        <mxCell id="6MKCHYrUBUT9Yu_W55Oy-10" value="" style="rounded=0;whiteSpace=wrap;html=1;fillColor=#d5e8d4;strokeColor=#82b366;" parent="5OuP_5MeBpYRX6x22-8O-1" vertex="1">
          <mxGeometry x="240" y="240" width="40" height="40" as="geometry" />
        </mxCell>
        <mxCell id="6MKCHYrUBUT9Yu_W55Oy-12" value="" style="rounded=0;whiteSpace=wrap;html=1;fillColor=none;fontColor=#006633;" parent="5OuP_5MeBpYRX6x22-8O-1" vertex="1">
          <mxGeometry x="160" y="480" width="40" height="40" as="geometry" />
        </mxCell>
        <mxCell id="6MKCHYrUBUT9Yu_W55Oy-14" value="" style="group" parent="5OuP_5MeBpYRX6x22-8O-1" vertex="1" connectable="0">
          <mxGeometry x="200" y="480" width="40" height="40" as="geometry" />
        </mxCell>
        <mxCell id="6MKCHYrUBUT9Yu_W55Oy-7" value="" style="rounded=0;whiteSpace=wrap;html=1;fillColor=none;fontColor=#006633;" parent="6MKCHYrUBUT9Yu_W55Oy-14" vertex="1">
          <mxGeometry width="40" height="40" as="geometry" />
        </mxCell>
        <mxCell id="6MKCHYrUBUT9Yu_W55Oy-8" style="edgeStyle=orthogonalEdgeStyle;rounded=0;orthogonalLoop=1;jettySize=auto;html=1;exitX=0.5;exitY=1;exitDx=0;exitDy=0;fontColor=#006633;" parent="6MKCHYrUBUT9Yu_W55Oy-14" source="6MKCHYrUBUT9Yu_W55Oy-7" target="6MKCHYrUBUT9Yu_W55Oy-7" edge="1">
          <mxGeometry relative="1" as="geometry" />
        </mxCell>
        <mxCell id="6MKCHYrUBUT9Yu_W55Oy-11" value="" style="ellipse;whiteSpace=wrap;html=1;aspect=fixed;fontColor=#006633;fillColor=#FF8000;" parent="6MKCHYrUBUT9Yu_W55Oy-14" vertex="1">
          <mxGeometry x="10" y="10" width="20" height="20" as="geometry" />
        </mxCell>
        <mxCell id="6MKCHYrUBUT9Yu_W55Oy-16" value="" style="group" parent="5OuP_5MeBpYRX6x22-8O-1" vertex="1" connectable="0">
          <mxGeometry x="240" y="480" width="40" height="40" as="geometry" />
        </mxCell>
        <mxCell id="6MKCHYrUBUT9Yu_W55Oy-17" value="" style="rounded=0;whiteSpace=wrap;html=1;fillColor=none;fontColor=#006633;" parent="6MKCHYrUBUT9Yu_W55Oy-16" vertex="1">
          <mxGeometry width="40" height="40" as="geometry" />
        </mxCell>
        <mxCell id="6MKCHYrUBUT9Yu_W55Oy-18" style="edgeStyle=orthogonalEdgeStyle;rounded=0;orthogonalLoop=1;jettySize=auto;html=1;exitX=0.5;exitY=1;exitDx=0;exitDy=0;fontColor=#006633;" parent="6MKCHYrUBUT9Yu_W55Oy-16" source="6MKCHYrUBUT9Yu_W55Oy-17" target="6MKCHYrUBUT9Yu_W55Oy-17" edge="1">
          <mxGeometry relative="1" as="geometry" />
        </mxCell>
        <mxCell id="6MKCHYrUBUT9Yu_W55Oy-19" value="" style="ellipse;whiteSpace=wrap;html=1;aspect=fixed;fontColor=#006633;fillColor=#FF8000;" parent="6MKCHYrUBUT9Yu_W55Oy-16" vertex="1">
          <mxGeometry x="10" y="10" width="20" height="20" as="geometry" />
        </mxCell>
        <mxCell id="6MKCHYrUBUT9Yu_W55Oy-21" value="" style="group;fillColor=#ffffff;" parent="5OuP_5MeBpYRX6x22-8O-1" vertex="1" connectable="0">
          <mxGeometry x="280" y="480" width="40" height="40" as="geometry" />
        </mxCell>
        <mxCell id="6MKCHYrUBUT9Yu_W55Oy-22" value="" style="rounded=0;whiteSpace=wrap;html=1;fillColor=none;fontColor=#006633;" parent="6MKCHYrUBUT9Yu_W55Oy-21" vertex="1">
          <mxGeometry width="40" height="40" as="geometry" />
        </mxCell>
        <mxCell id="6MKCHYrUBUT9Yu_W55Oy-23" style="edgeStyle=orthogonalEdgeStyle;rounded=0;orthogonalLoop=1;jettySize=auto;html=1;exitX=0.5;exitY=1;exitDx=0;exitDy=0;fontColor=#006633;" parent="6MKCHYrUBUT9Yu_W55Oy-21" source="6MKCHYrUBUT9Yu_W55Oy-22" target="6MKCHYrUBUT9Yu_W55Oy-22" edge="1">
          <mxGeometry relative="1" as="geometry" />
        </mxCell>
        <mxCell id="6MKCHYrUBUT9Yu_W55Oy-24" value="" style="ellipse;whiteSpace=wrap;html=1;aspect=fixed;fontColor=#006633;fillColor=#FF8000;" parent="6MKCHYrUBUT9Yu_W55Oy-21" vertex="1">
          <mxGeometry x="10" y="10" width="20" height="20" as="geometry" />
        </mxCell>
        <mxCell id="6MKCHYrUBUT9Yu_W55Oy-25" value="" style="rounded=0;whiteSpace=wrap;html=1;fontColor=#006633;" parent="5OuP_5MeBpYRX6x22-8O-1" vertex="1">
          <mxGeometry x="320" y="480" width="40" height="40" as="geometry" />
        </mxCell>
        <mxCell id="6MKCHYrUBUT9Yu_W55Oy-27" value="" style="rounded=0;whiteSpace=wrap;html=1;strokeColor=#82b366;fillColor=#97D077;" parent="5OuP_5MeBpYRX6x22-8O-1" vertex="1">
          <mxGeometry x="280" y="580" width="80" height="40" as="geometry" />
        </mxCell>
        <mxCell id="6MKCHYrUBUT9Yu_W55Oy-28" value="" style="rounded=0;whiteSpace=wrap;html=1;fillColor=#d5e8d4;strokeColor=#82b366;" parent="5OuP_5MeBpYRX6x22-8O-1" vertex="1">
          <mxGeometry x="360" y="580" width="40" height="40" as="geometry" />
        </mxCell>
        <mxCell id="6MKCHYrUBUT9Yu_W55Oy-29" value="" style="rounded=0;whiteSpace=wrap;html=1;fillColor=none;fontColor=#006633;" parent="5OuP_5MeBpYRX6x22-8O-1" vertex="1">
          <mxGeometry x="360" y="480" width="40" height="40" as="geometry" />
        </mxCell>
        <mxCell id="6MKCHYrUBUT9Yu_W55Oy-30" value="" style="rounded=0;whiteSpace=wrap;html=1;fillColor=none;fontColor=#006633;" parent="5OuP_5MeBpYRX6x22-8O-1" vertex="1">
          <mxGeometry x="360" y="360" width="40" height="40" as="geometry" />
        </mxCell>
        <mxCell id="6MKCHYrUBUT9Yu_W55Oy-31" value="" style="rounded=0;whiteSpace=wrap;html=1;strokeColor=#82b366;fillColor=#97D077;" parent="5OuP_5MeBpYRX6x22-8O-1" vertex="1">
          <mxGeometry x="400" y="239" width="80" height="40" as="geometry" />
        </mxCell>
        <mxCell id="6MKCHYrUBUT9Yu_W55Oy-34" value="" style="rounded=0;whiteSpace=wrap;html=1;fillColor=#fff2cc;strokeColor=#d6b656;" parent="5OuP_5MeBpYRX6x22-8O-1" vertex="1">
          <mxGeometry x="400" y="579" width="120" height="40" as="geometry" />
        </mxCell>
        <mxCell id="6MKCHYrUBUT9Yu_W55Oy-37" value="" style="rounded=0;whiteSpace=wrap;html=1;fillColor=#fff2cc;strokeColor=#d6b656;" parent="5OuP_5MeBpYRX6x22-8O-1" vertex="1">
          <mxGeometry x="520" y="239" width="120" height="40" as="geometry" />
        </mxCell>
        <mxCell id="6MKCHYrUBUT9Yu_W55Oy-38" value="&lt;font style=&quot;font-size: 30px&quot;&gt;V&lt;/font&gt;" style="whiteSpace=wrap;html=1;aspect=fixed;" parent="5OuP_5MeBpYRX6x22-8O-1" vertex="1">
          <mxGeometry x="560" y="399" width="40" height="40" as="geometry" />
        </mxCell>
        <mxCell id="6MKCHYrUBUT9Yu_W55Oy-39" value="" style="endArrow=classic;html=1;exitX=0.5;exitY=1;exitDx=0;exitDy=0;entryX=0.5;entryY=0;entryDx=0;entryDy=0;" parent="5OuP_5MeBpYRX6x22-8O-1" source="iAUGiWTYHJOm4b5LVbHB-1" edge="1">
          <mxGeometry width="50" height="50" relative="1" as="geometry">
            <mxPoint x="420" y="279.0000000000001" as="sourcePoint" />
            <mxPoint x="420" y="359" as="targetPoint" />
          </mxGeometry>
        </mxCell>
        <mxCell id="6MKCHYrUBUT9Yu_W55Oy-40" value="" style="endArrow=classic;html=1;exitX=0.5;exitY=1;exitDx=0;exitDy=0;entryX=0.25;entryY=0;entryDx=0;entryDy=0;" parent="5OuP_5MeBpYRX6x22-8O-1" source="9iP4gp3AKpJiKwBeB_uu-2" target="6MKCHYrUBUT9Yu_W55Oy-60" edge="1">
          <mxGeometry width="50" height="50" relative="1" as="geometry">
            <mxPoint x="540" y="579" as="sourcePoint" />
            <mxPoint x="590" y="650" as="targetPoint" />
          </mxGeometry>
        </mxCell>
        <mxCell id="6MKCHYrUBUT9Yu_W55Oy-41" value="" style="endArrow=none;dashed=1;html=1;dashPattern=1 3;strokeWidth=2;" parent="5OuP_5MeBpYRX6x22-8O-1" edge="1">
          <mxGeometry width="50" height="50" relative="1" as="geometry">
            <mxPoint x="519" y="629" as="sourcePoint" />
            <mxPoint x="519" y="198.9999999999999" as="targetPoint" />
          </mxGeometry>
        </mxCell>
        <mxCell id="6MKCHYrUBUT9Yu_W55Oy-42" value="" style="endArrow=none;dashed=1;html=1;dashPattern=1 3;strokeWidth=2;" parent="5OuP_5MeBpYRX6x22-8O-1" edge="1">
          <mxGeometry width="50" height="50" relative="1" as="geometry">
            <mxPoint x="640" y="629" as="sourcePoint" />
            <mxPoint x="640" y="198.9999999999999" as="targetPoint" />
          </mxGeometry>
        </mxCell>
        <mxCell id="6MKCHYrUBUT9Yu_W55Oy-43" value="" style="whiteSpace=wrap;html=1;aspect=fixed;" parent="5OuP_5MeBpYRX6x22-8O-1" vertex="1">
          <mxGeometry x="480" y="359" width="40" height="40" as="geometry" />
        </mxCell>
        <mxCell id="6MKCHYrUBUT9Yu_W55Oy-44" value="" style="rounded=0;whiteSpace=wrap;html=1;fillColor=#d5e8d4;strokeColor=#82b366;" parent="5OuP_5MeBpYRX6x22-8O-1" vertex="1">
          <mxGeometry x="480" y="239" width="40" height="40" as="geometry" />
        </mxCell>
        <mxCell id="6MKCHYrUBUT9Yu_W55Oy-45" value="" style="rounded=0;whiteSpace=wrap;html=1;fillColor=none;fontColor=#006633;" parent="5OuP_5MeBpYRX6x22-8O-1" vertex="1">
          <mxGeometry x="400" y="480" width="40" height="40" as="geometry" />
        </mxCell>
        <mxCell id="6MKCHYrUBUT9Yu_W55Oy-46" value="" style="group" parent="5OuP_5MeBpYRX6x22-8O-1" vertex="1" connectable="0">
          <mxGeometry x="440" y="480" width="40" height="40" as="geometry" />
        </mxCell>
        <mxCell id="6MKCHYrUBUT9Yu_W55Oy-47" value="" style="rounded=0;whiteSpace=wrap;html=1;fillColor=none;fontColor=#006633;" parent="6MKCHYrUBUT9Yu_W55Oy-46" vertex="1">
          <mxGeometry width="40" height="40" as="geometry" />
        </mxCell>
        <mxCell id="6MKCHYrUBUT9Yu_W55Oy-48" style="edgeStyle=orthogonalEdgeStyle;rounded=0;orthogonalLoop=1;jettySize=auto;html=1;exitX=0.5;exitY=1;exitDx=0;exitDy=0;fontColor=#006633;" parent="6MKCHYrUBUT9Yu_W55Oy-46" source="6MKCHYrUBUT9Yu_W55Oy-47" target="6MKCHYrUBUT9Yu_W55Oy-47" edge="1">
          <mxGeometry relative="1" as="geometry" />
        </mxCell>
        <mxCell id="6MKCHYrUBUT9Yu_W55Oy-49" value="" style="ellipse;whiteSpace=wrap;html=1;aspect=fixed;fontColor=#006633;fillColor=#FF8000;" parent="6MKCHYrUBUT9Yu_W55Oy-46" vertex="1">
          <mxGeometry x="10" y="10" width="20" height="20" as="geometry" />
        </mxCell>
        <mxCell id="6MKCHYrUBUT9Yu_W55Oy-50" value="" style="group" parent="5OuP_5MeBpYRX6x22-8O-1" vertex="1" connectable="0">
          <mxGeometry x="480" y="480" width="40" height="40" as="geometry" />
        </mxCell>
        <mxCell id="6MKCHYrUBUT9Yu_W55Oy-51" value="" style="rounded=0;whiteSpace=wrap;html=1;fillColor=none;fontColor=#006633;" parent="6MKCHYrUBUT9Yu_W55Oy-50" vertex="1">
          <mxGeometry width="40" height="40" as="geometry" />
        </mxCell>
        <mxCell id="6MKCHYrUBUT9Yu_W55Oy-52" style="edgeStyle=orthogonalEdgeStyle;rounded=0;orthogonalLoop=1;jettySize=auto;html=1;exitX=0.5;exitY=1;exitDx=0;exitDy=0;fontColor=#006633;" parent="6MKCHYrUBUT9Yu_W55Oy-50" source="6MKCHYrUBUT9Yu_W55Oy-51" target="6MKCHYrUBUT9Yu_W55Oy-51" edge="1">
          <mxGeometry relative="1" as="geometry" />
        </mxCell>
        <mxCell id="6MKCHYrUBUT9Yu_W55Oy-53" value="" style="ellipse;whiteSpace=wrap;html=1;aspect=fixed;fontColor=#006633;fillColor=#FF8000;" parent="6MKCHYrUBUT9Yu_W55Oy-50" vertex="1">
          <mxGeometry x="10" y="10" width="20" height="20" as="geometry" />
        </mxCell>
        <mxCell id="6MKCHYrUBUT9Yu_W55Oy-55" value="" style="group;fillColor=#ffffff;" parent="5OuP_5MeBpYRX6x22-8O-1" vertex="1" connectable="0">
          <mxGeometry x="520" y="480" width="40" height="40" as="geometry" />
        </mxCell>
        <mxCell id="6MKCHYrUBUT9Yu_W55Oy-56" value="" style="rounded=0;whiteSpace=wrap;html=1;fillColor=none;fontColor=#006633;" parent="6MKCHYrUBUT9Yu_W55Oy-55" vertex="1">
          <mxGeometry width="40" height="40" as="geometry" />
        </mxCell>
        <mxCell id="6MKCHYrUBUT9Yu_W55Oy-57" style="edgeStyle=orthogonalEdgeStyle;rounded=0;orthogonalLoop=1;jettySize=auto;html=1;exitX=0.5;exitY=1;exitDx=0;exitDy=0;fontColor=#006633;" parent="6MKCHYrUBUT9Yu_W55Oy-55" source="6MKCHYrUBUT9Yu_W55Oy-56" target="6MKCHYrUBUT9Yu_W55Oy-56" edge="1">
          <mxGeometry relative="1" as="geometry" />
        </mxCell>
        <mxCell id="6MKCHYrUBUT9Yu_W55Oy-58" value="" style="ellipse;whiteSpace=wrap;html=1;aspect=fixed;fontColor=#006633;fillColor=#FF8000;" parent="6MKCHYrUBUT9Yu_W55Oy-55" vertex="1">
          <mxGeometry x="10" y="10" width="20" height="20" as="geometry" />
        </mxCell>
        <mxCell id="6MKCHYrUBUT9Yu_W55Oy-60" value="" style="rounded=0;whiteSpace=wrap;html=1;strokeColor=#82b366;fillColor=#97D077;" parent="5OuP_5MeBpYRX6x22-8O-1" vertex="1">
          <mxGeometry x="520" y="579" width="80" height="40" as="geometry" />
        </mxCell>
        <mxCell id="6MKCHYrUBUT9Yu_W55Oy-61" value="" style="rounded=0;whiteSpace=wrap;html=1;fillColor=#d5e8d4;strokeColor=#82b366;" parent="5OuP_5MeBpYRX6x22-8O-1" vertex="1">
          <mxGeometry x="600" y="579" width="40" height="40" as="geometry" />
        </mxCell>
        <mxCell id="6MKCHYrUBUT9Yu_W55Oy-63" value="" style="rounded=0;whiteSpace=wrap;html=1;fillColor=none;fontColor=#006633;" parent="5OuP_5MeBpYRX6x22-8O-1" vertex="1">
          <mxGeometry x="600" y="359" width="40" height="40" as="geometry" />
        </mxCell>
        <mxCell id="6MKCHYrUBUT9Yu_W55Oy-64" value="" style="rounded=0;whiteSpace=wrap;html=1;strokeColor=#82b366;fillColor=#97D077;" parent="5OuP_5MeBpYRX6x22-8O-1" vertex="1">
          <mxGeometry x="640" y="239" width="80" height="40" as="geometry" />
        </mxCell>
        <mxCell id="6MKCHYrUBUT9Yu_W55Oy-66" value="&lt;font style=&quot;font-size: 30px&quot;&gt;V&lt;/font&gt;" style="whiteSpace=wrap;html=1;aspect=fixed;" parent="5OuP_5MeBpYRX6x22-8O-1" vertex="1">
          <mxGeometry x="680" y="319" width="40" height="40" as="geometry" />
        </mxCell>
        <mxCell id="6MKCHYrUBUT9Yu_W55Oy-67" value="" style="rounded=0;whiteSpace=wrap;html=1;fillColor=#fff2cc;strokeColor=#d6b656;" parent="5OuP_5MeBpYRX6x22-8O-1" vertex="1">
          <mxGeometry x="640" y="579" width="120" height="40" as="geometry" />
        </mxCell>
        <mxCell id="6MKCHYrUBUT9Yu_W55Oy-69" value="" style="rounded=0;whiteSpace=wrap;html=1;fillColor=#d5e8d4;strokeColor=#82b366;" parent="5OuP_5MeBpYRX6x22-8O-1" vertex="1">
          <mxGeometry x="760" y="579" width="40" height="40" as="geometry" />
        </mxCell>
        <mxCell id="6MKCHYrUBUT9Yu_W55Oy-70" value="" style="rounded=0;whiteSpace=wrap;html=1;fillColor=#fff2cc;strokeColor=#d6b656;" parent="5OuP_5MeBpYRX6x22-8O-1" vertex="1">
          <mxGeometry x="760" y="239" width="120" height="40" as="geometry" />
        </mxCell>
        <mxCell id="6MKCHYrUBUT9Yu_W55Oy-71" value="&lt;font style=&quot;font-size: 30px&quot;&gt;V&lt;/font&gt;" style="whiteSpace=wrap;html=1;aspect=fixed;" parent="5OuP_5MeBpYRX6x22-8O-1" vertex="1">
          <mxGeometry x="800" y="399" width="40" height="40" as="geometry" />
        </mxCell>
        <mxCell id="6MKCHYrUBUT9Yu_W55Oy-72" value="" style="endArrow=classic;html=1;exitX=0.5;exitY=0;exitDx=0;exitDy=0;entryX=0.25;entryY=1;entryDx=0;entryDy=0;" parent="5OuP_5MeBpYRX6x22-8O-1" source="9iP4gp3AKpJiKwBeB_uu-3" target="6MKCHYrUBUT9Yu_W55Oy-64" edge="1">
          <mxGeometry width="50" height="50" relative="1" as="geometry">
            <mxPoint x="660" y="279.0000000000001" as="sourcePoint" />
            <mxPoint x="800" y="210" as="targetPoint" />
          </mxGeometry>
        </mxCell>
        <mxCell id="6MKCHYrUBUT9Yu_W55Oy-73" value="" style="endArrow=classic;html=1;entryX=0.5;entryY=0;entryDx=0;entryDy=0;" parent="5OuP_5MeBpYRX6x22-8O-1" target="6MKCHYrUBUT9Yu_W55Oy-69" edge="1">
          <mxGeometry width="50" height="50" relative="1" as="geometry">
            <mxPoint x="780" y="440" as="sourcePoint" />
            <mxPoint x="820" y="540" as="targetPoint" />
          </mxGeometry>
        </mxCell>
        <mxCell id="6MKCHYrUBUT9Yu_W55Oy-74" value="" style="endArrow=none;dashed=1;html=1;dashPattern=1 3;strokeWidth=2;" parent="5OuP_5MeBpYRX6x22-8O-1" edge="1">
          <mxGeometry width="50" height="50" relative="1" as="geometry">
            <mxPoint x="759" y="629" as="sourcePoint" />
            <mxPoint x="759" y="198.9999999999999" as="targetPoint" />
          </mxGeometry>
        </mxCell>
        <mxCell id="6MKCHYrUBUT9Yu_W55Oy-75" value="" style="endArrow=none;dashed=1;html=1;dashPattern=1 3;strokeWidth=2;" parent="5OuP_5MeBpYRX6x22-8O-1" edge="1">
          <mxGeometry width="50" height="50" relative="1" as="geometry">
            <mxPoint x="880.31" y="629" as="sourcePoint" />
            <mxPoint x="880.31" y="198.9999999999999" as="targetPoint" />
          </mxGeometry>
        </mxCell>
        <mxCell id="6MKCHYrUBUT9Yu_W55Oy-76" value="" style="whiteSpace=wrap;html=1;aspect=fixed;" parent="5OuP_5MeBpYRX6x22-8O-1" vertex="1">
          <mxGeometry x="720" y="359" width="40" height="40" as="geometry" />
        </mxCell>
        <mxCell id="6MKCHYrUBUT9Yu_W55Oy-77" value="" style="rounded=0;whiteSpace=wrap;html=1;fillColor=#d5e8d4;strokeColor=#82b366;" parent="5OuP_5MeBpYRX6x22-8O-1" vertex="1">
          <mxGeometry x="720" y="239" width="40" height="40" as="geometry" />
        </mxCell>
        <mxCell id="6MKCHYrUBUT9Yu_W55Oy-88" value="" style="group;fillColor=#ffffff;" parent="5OuP_5MeBpYRX6x22-8O-1" vertex="1" connectable="0">
          <mxGeometry x="760" y="479" width="40" height="40" as="geometry" />
        </mxCell>
        <mxCell id="6MKCHYrUBUT9Yu_W55Oy-89" value="" style="rounded=0;whiteSpace=wrap;html=1;fillColor=none;fontColor=#006633;" parent="6MKCHYrUBUT9Yu_W55Oy-88" vertex="1">
          <mxGeometry y="1" width="40" height="40" as="geometry" />
        </mxCell>
        <mxCell id="6MKCHYrUBUT9Yu_W55Oy-90" style="edgeStyle=orthogonalEdgeStyle;rounded=0;orthogonalLoop=1;jettySize=auto;html=1;exitX=0.5;exitY=1;exitDx=0;exitDy=0;fontColor=#006633;" parent="6MKCHYrUBUT9Yu_W55Oy-88" source="6MKCHYrUBUT9Yu_W55Oy-89" target="6MKCHYrUBUT9Yu_W55Oy-89" edge="1">
          <mxGeometry relative="1" as="geometry" />
        </mxCell>
        <mxCell id="6MKCHYrUBUT9Yu_W55Oy-91" value="" style="ellipse;whiteSpace=wrap;html=1;aspect=fixed;fontColor=#006633;fillColor=#FF8000;" parent="6MKCHYrUBUT9Yu_W55Oy-88" vertex="1">
          <mxGeometry x="10" y="10" width="20" height="20" as="geometry" />
        </mxCell>
        <mxCell id="6MKCHYrUBUT9Yu_W55Oy-59" value="" style="rounded=0;whiteSpace=wrap;html=1;fillColor=none;fontColor=#006633;" parent="6MKCHYrUBUT9Yu_W55Oy-88" vertex="1">
          <mxGeometry x="-200" y="1" width="40" height="40" as="geometry" />
        </mxCell>
        <mxCell id="6MKCHYrUBUT9Yu_W55Oy-62" value="" style="rounded=0;whiteSpace=wrap;html=1;fillColor=none;fontColor=#006633;" parent="6MKCHYrUBUT9Yu_W55Oy-88" vertex="1">
          <mxGeometry x="-160" y="1" width="40" height="40" as="geometry" />
        </mxCell>
        <mxCell id="6MKCHYrUBUT9Yu_W55Oy-78" value="" style="rounded=0;whiteSpace=wrap;html=1;fillColor=none;fontColor=#006633;" parent="6MKCHYrUBUT9Yu_W55Oy-88" vertex="1">
          <mxGeometry x="-120" y="1" width="40" height="40" as="geometry" />
        </mxCell>
        <mxCell id="6MKCHYrUBUT9Yu_W55Oy-79" value="" style="group" parent="6MKCHYrUBUT9Yu_W55Oy-88" vertex="1" connectable="0">
          <mxGeometry x="-80" y="1" width="40" height="40" as="geometry" />
        </mxCell>
        <mxCell id="6MKCHYrUBUT9Yu_W55Oy-80" value="" style="rounded=0;whiteSpace=wrap;html=1;fillColor=none;fontColor=#006633;" parent="6MKCHYrUBUT9Yu_W55Oy-79" vertex="1">
          <mxGeometry width="40" height="40" as="geometry" />
        </mxCell>
        <mxCell id="6MKCHYrUBUT9Yu_W55Oy-81" style="edgeStyle=orthogonalEdgeStyle;rounded=0;orthogonalLoop=1;jettySize=auto;html=1;exitX=0.5;exitY=1;exitDx=0;exitDy=0;fontColor=#006633;" parent="6MKCHYrUBUT9Yu_W55Oy-79" source="6MKCHYrUBUT9Yu_W55Oy-80" target="6MKCHYrUBUT9Yu_W55Oy-80" edge="1">
          <mxGeometry relative="1" as="geometry" />
        </mxCell>
        <mxCell id="6MKCHYrUBUT9Yu_W55Oy-82" value="" style="ellipse;whiteSpace=wrap;html=1;aspect=fixed;fontColor=#006633;fillColor=#FF8000;" parent="6MKCHYrUBUT9Yu_W55Oy-79" vertex="1">
          <mxGeometry x="10" y="10" width="20" height="20" as="geometry" />
        </mxCell>
        <mxCell id="6MKCHYrUBUT9Yu_W55Oy-83" value="" style="group" parent="6MKCHYrUBUT9Yu_W55Oy-88" vertex="1" connectable="0">
          <mxGeometry x="-40" y="1" width="40" height="40" as="geometry" />
        </mxCell>
        <mxCell id="6MKCHYrUBUT9Yu_W55Oy-84" value="" style="rounded=0;whiteSpace=wrap;html=1;fillColor=none;fontColor=#006633;" parent="6MKCHYrUBUT9Yu_W55Oy-83" vertex="1">
          <mxGeometry width="40" height="40" as="geometry" />
        </mxCell>
        <mxCell id="6MKCHYrUBUT9Yu_W55Oy-85" style="edgeStyle=orthogonalEdgeStyle;rounded=0;orthogonalLoop=1;jettySize=auto;html=1;exitX=0.5;exitY=1;exitDx=0;exitDy=0;fontColor=#006633;" parent="6MKCHYrUBUT9Yu_W55Oy-83" source="6MKCHYrUBUT9Yu_W55Oy-84" target="6MKCHYrUBUT9Yu_W55Oy-84" edge="1">
          <mxGeometry relative="1" as="geometry" />
        </mxCell>
        <mxCell id="6MKCHYrUBUT9Yu_W55Oy-86" value="" style="ellipse;whiteSpace=wrap;html=1;aspect=fixed;fontColor=#006633;fillColor=#FF8000;" parent="6MKCHYrUBUT9Yu_W55Oy-83" vertex="1">
          <mxGeometry x="10" y="10" width="20" height="20" as="geometry" />
        </mxCell>
        <mxCell id="6MKCHYrUBUT9Yu_W55Oy-92" value="" style="rounded=0;whiteSpace=wrap;html=1;fillColor=none;fontColor=#006633;" parent="5OuP_5MeBpYRX6x22-8O-1" vertex="1">
          <mxGeometry x="800" y="480" width="40" height="40" as="geometry" />
        </mxCell>
        <mxCell id="6MKCHYrUBUT9Yu_W55Oy-93" value="" style="rounded=0;whiteSpace=wrap;html=1;strokeColor=#82b366;fillColor=#97D077;" parent="5OuP_5MeBpYRX6x22-8O-1" vertex="1">
          <mxGeometry x="800" y="579" width="40" height="40" as="geometry" />
        </mxCell>
        <mxCell id="6MKCHYrUBUT9Yu_W55Oy-94" value="" style="rounded=0;whiteSpace=wrap;html=1;fillColor=#d5e8d4;strokeColor=#82b366;" parent="5OuP_5MeBpYRX6x22-8O-1" vertex="1">
          <mxGeometry x="840" y="579" width="40" height="40" as="geometry" />
        </mxCell>
        <mxCell id="6MKCHYrUBUT9Yu_W55Oy-95" value="" style="rounded=0;whiteSpace=wrap;html=1;fillColor=none;fontColor=#006633;" parent="5OuP_5MeBpYRX6x22-8O-1" vertex="1">
          <mxGeometry x="840" y="480" width="40" height="40" as="geometry" />
        </mxCell>
        <mxCell id="6MKCHYrUBUT9Yu_W55Oy-96" value="" style="rounded=0;whiteSpace=wrap;html=1;fillColor=none;fontColor=#006633;" parent="5OuP_5MeBpYRX6x22-8O-1" vertex="1">
          <mxGeometry x="840" y="359" width="40" height="40" as="geometry" />
        </mxCell>
        <mxCell id="6MKCHYrUBUT9Yu_W55Oy-97" value="&lt;font style=&quot;font-size: 24px&quot;&gt;Буфер&lt;/font&gt;" style="text;html=1;strokeColor=none;fillColor=none;align=center;verticalAlign=middle;whiteSpace=wrap;rounded=0;" parent="5OuP_5MeBpYRX6x22-8O-1" vertex="1">
          <mxGeometry x="10" y="490" width="130" height="20" as="geometry" />
        </mxCell>
        <mxCell id="eeE--ODAn1rO5j4N8dqk-0" value="&lt;font style=&quot;font-size: 30px&quot;&gt;V&lt;/font&gt;" style="whiteSpace=wrap;html=1;aspect=fixed;" parent="5OuP_5MeBpYRX6x22-8O-1" vertex="1">
          <mxGeometry x="160" y="320" width="40" height="40" as="geometry" />
        </mxCell>
        <mxCell id="eeE--ODAn1rO5j4N8dqk-1" value="" style="endArrow=classic;html=1;exitX=0.5;exitY=0;exitDx=0;exitDy=0;entryX=0.25;entryY=1;entryDx=0;entryDy=0;" parent="5OuP_5MeBpYRX6x22-8O-1" source="eeE--ODAn1rO5j4N8dqk-0" target="5OuP_5MeBpYRX6x22-8O-6" edge="1">
          <mxGeometry width="50" height="50" relative="1" as="geometry">
            <mxPoint x="180" y="279.9999999999999" as="sourcePoint" />
            <mxPoint x="210" y="180" as="targetPoint" />
          </mxGeometry>
        </mxCell>
        <mxCell id="iAUGiWTYHJOm4b5LVbHB-0" value="&lt;font style=&quot;font-size: 30px&quot;&gt;V&lt;/font&gt;" style="whiteSpace=wrap;html=1;aspect=fixed;" parent="5OuP_5MeBpYRX6x22-8O-1" vertex="1">
          <mxGeometry x="280" y="400" width="40" height="40" as="geometry" />
        </mxCell>
        <mxCell id="iAUGiWTYHJOm4b5LVbHB-1" value="&lt;font style=&quot;font-size: 30px&quot;&gt;V&lt;/font&gt;" style="whiteSpace=wrap;html=1;aspect=fixed;" parent="5OuP_5MeBpYRX6x22-8O-1" vertex="1">
          <mxGeometry x="400" y="319" width="40" height="40" as="geometry" />
        </mxCell>
        <mxCell id="iAUGiWTYHJOm4b5LVbHB-2" value="" style="endArrow=classic;html=1;exitX=0.5;exitY=0;exitDx=0;exitDy=0;" parent="5OuP_5MeBpYRX6x22-8O-1" source="iAUGiWTYHJOm4b5LVbHB-1" edge="1">
          <mxGeometry width="50" height="50" relative="1" as="geometry">
            <mxPoint x="420" y="279.0000000000001" as="sourcePoint" />
            <mxPoint x="420" y="280" as="targetPoint" />
          </mxGeometry>
        </mxCell>
        <mxCell id="9iP4gp3AKpJiKwBeB_uu-2" value="&lt;font style=&quot;font-size: 30px&quot;&gt;V&lt;/font&gt;" style="whiteSpace=wrap;html=1;aspect=fixed;" parent="5OuP_5MeBpYRX6x22-8O-1" vertex="1">
          <mxGeometry x="520" y="399" width="40" height="40" as="geometry" />
        </mxCell>
        <mxCell id="9iP4gp3AKpJiKwBeB_uu-3" value="&lt;font style=&quot;font-size: 30px&quot;&gt;V&lt;/font&gt;" style="whiteSpace=wrap;html=1;aspect=fixed;" parent="5OuP_5MeBpYRX6x22-8O-1" vertex="1">
          <mxGeometry x="640" y="319" width="40" height="40" as="geometry" />
        </mxCell>
        <mxCell id="9iP4gp3AKpJiKwBeB_uu-4" value="&lt;font style=&quot;font-size: 30px&quot;&gt;V&lt;/font&gt;" style="whiteSpace=wrap;html=1;aspect=fixed;" parent="5OuP_5MeBpYRX6x22-8O-1" vertex="1">
          <mxGeometry x="760" y="399" width="40" height="40" as="geometry" />
        </mxCell>
        <mxCell id="2mohUejvQCOeJ5CQN0tC-0" value="" style="endArrow=classic;html=1;exitX=0.75;exitY=1;exitDx=0;exitDy=0;" parent="5OuP_5MeBpYRX6x22-8O-1" source="5OuP_5MeBpYRX6x22-8O-6" target="6MKCHYrUBUT9Yu_W55Oy-11" edge="1">
          <mxGeometry width="50" height="50" relative="1" as="geometry">
            <mxPoint x="560" y="440" as="sourcePoint" />
            <mxPoint x="610" y="390" as="targetPoint" />
          </mxGeometry>
        </mxCell>
        <mxCell id="5OuP_5MeBpYRX6x22-8O-8" value="&lt;font style=&quot;font-size: 30px&quot;&gt;V&lt;/font&gt;" style="whiteSpace=wrap;html=1;aspect=fixed;" parent="5OuP_5MeBpYRX6x22-8O-1" vertex="1">
          <mxGeometry x="200" y="320" width="40" height="40" as="geometry" />
        </mxCell>
        <mxCell id="2mohUejvQCOeJ5CQN0tC-1" value="" style="ellipse;whiteSpace=wrap;html=1;aspect=fixed;fillColor=#FF8000;" parent="5OuP_5MeBpYRX6x22-8O-1" vertex="1">
          <mxGeometry x="330" y="530" width="20" height="20" as="geometry" />
        </mxCell>
        <mxCell id="2mohUejvQCOeJ5CQN0tC-7" value="" style="endArrow=classic;html=1;entryX=0.5;entryY=0;entryDx=0;entryDy=0;" parent="5OuP_5MeBpYRX6x22-8O-1" target="6MKCHYrUBUT9Yu_W55Oy-47" edge="1">
          <mxGeometry width="50" height="50" relative="1" as="geometry">
            <mxPoint x="460" y="280" as="sourcePoint" />
            <mxPoint x="930" y="490" as="targetPoint" />
          </mxGeometry>
        </mxCell>
        <mxCell id="2mohUejvQCOeJ5CQN0tC-8" value="" style="endArrow=classic;html=1;exitX=0.5;exitY=1;exitDx=0;exitDy=0;entryX=0.75;entryY=0;entryDx=0;entryDy=0;" parent="5OuP_5MeBpYRX6x22-8O-1" source="2mohUejvQCOeJ5CQN0tC-9" edge="1">
          <mxGeometry width="50" height="50" relative="1" as="geometry">
            <mxPoint x="800" y="440" as="sourcePoint" />
            <mxPoint x="580" y="580" as="targetPoint" />
          </mxGeometry>
        </mxCell>
        <mxCell id="2mohUejvQCOeJ5CQN0tC-9" value="" style="ellipse;whiteSpace=wrap;html=1;aspect=fixed;fillColor=#FF8000;" parent="5OuP_5MeBpYRX6x22-8O-1" vertex="1">
          <mxGeometry x="570" y="530" width="20" height="20" as="geometry" />
        </mxCell>
        <mxCell id="2mohUejvQCOeJ5CQN0tC-10" value="" style="endArrow=classic;html=1;exitX=0.5;exitY=1;exitDx=0;exitDy=0;entryX=0.75;entryY=0;entryDx=0;entryDy=0;" parent="5OuP_5MeBpYRX6x22-8O-1" source="2mohUejvQCOeJ5CQN0tC-11" edge="1">
          <mxGeometry width="50" height="50" relative="1" as="geometry">
            <mxPoint x="1040" y="439" as="sourcePoint" />
            <mxPoint x="820" y="579" as="targetPoint" />
          </mxGeometry>
        </mxCell>
        <mxCell id="2mohUejvQCOeJ5CQN0tC-11" value="" style="ellipse;whiteSpace=wrap;html=1;aspect=fixed;fillColor=#FF8000;" parent="5OuP_5MeBpYRX6x22-8O-1" vertex="1">
          <mxGeometry x="810" y="529" width="20" height="20" as="geometry" />
        </mxCell>
        <mxCell id="6MKCHYrUBUT9Yu_W55Oy-33" value="&lt;font style=&quot;font-size: 30px&quot;&gt;V&lt;/font&gt;" style="whiteSpace=wrap;html=1;aspect=fixed;" parent="5OuP_5MeBpYRX6x22-8O-1" vertex="1">
          <mxGeometry x="440" y="319" width="40" height="40" as="geometry" />
        </mxCell>
      </root>
    </mxGraphModel>
  </diagram>
  <diagram name="ProCon - Pro fails" id="S5e9kMrUdoZhbQj7bhlz">
    <mxGraphModel dx="1174" dy="736" grid="1" gridSize="10" guides="1" tooltips="1" connect="1" arrows="1" fold="1" page="1" pageScale="1" pageWidth="1169" pageHeight="827" math="0" shadow="0">
      <root>
        <mxCell id="5u_YO6R74U7jfF19-v8g-0" />
        <mxCell id="5u_YO6R74U7jfF19-v8g-1" parent="5u_YO6R74U7jfF19-v8g-0" />
        <mxCell id="5u_YO6R74U7jfF19-v8g-14" value="" style="endArrow=none;dashed=1;html=1;dashPattern=1 3;strokeWidth=2;" parent="5u_YO6R74U7jfF19-v8g-1" edge="1">
          <mxGeometry width="50" height="50" relative="1" as="geometry">
            <mxPoint x="120" y="628.5" as="sourcePoint" />
            <mxPoint x="120" y="198.5" as="targetPoint" />
          </mxGeometry>
        </mxCell>
        <mxCell id="5u_YO6R74U7jfF19-v8g-15" value="" style="endArrow=none;dashed=1;html=1;dashPattern=1 3;strokeWidth=2;" parent="5u_YO6R74U7jfF19-v8g-1" edge="1">
          <mxGeometry width="50" height="50" relative="1" as="geometry">
            <mxPoint x="240" y="629" as="sourcePoint" />
            <mxPoint x="240" y="199" as="targetPoint" />
          </mxGeometry>
        </mxCell>
        <mxCell id="5u_YO6R74U7jfF19-v8g-3" value="" style="rounded=0;whiteSpace=wrap;html=1;fillColor=#fff2cc;strokeColor=#d6b656;" parent="5u_YO6R74U7jfF19-v8g-1" vertex="1">
          <mxGeometry x="40" y="240" width="80" height="40" as="geometry" />
        </mxCell>
        <mxCell id="5u_YO6R74U7jfF19-v8g-4" value="" style="rounded=0;whiteSpace=wrap;html=1;fillColor=#d5e8d4;strokeColor=#82b366;" parent="5u_YO6R74U7jfF19-v8g-1" vertex="1">
          <mxGeometry x="40" y="580" width="80" height="40" as="geometry" />
        </mxCell>
        <mxCell id="5u_YO6R74U7jfF19-v8g-5" value="" style="rounded=0;whiteSpace=wrap;html=1;strokeColor=#82b366;fillColor=#97D077;" parent="5u_YO6R74U7jfF19-v8g-1" vertex="1">
          <mxGeometry x="160" y="240" width="80" height="40" as="geometry" />
        </mxCell>
        <mxCell id="5u_YO6R74U7jfF19-v8g-6" value="" style="rounded=0;whiteSpace=wrap;html=1;fillColor=#fff2cc;strokeColor=#d6b656;" parent="5u_YO6R74U7jfF19-v8g-1" vertex="1">
          <mxGeometry x="120" y="580" width="120" height="40" as="geometry" />
        </mxCell>
        <mxCell id="5u_YO6R74U7jfF19-v8g-7" value="" style="whiteSpace=wrap;html=1;aspect=fixed;" parent="5u_YO6R74U7jfF19-v8g-1" vertex="1">
          <mxGeometry x="40" y="360" width="40" height="40" as="geometry" />
        </mxCell>
        <mxCell id="5u_YO6R74U7jfF19-v8g-8" value="" style="whiteSpace=wrap;html=1;aspect=fixed;" parent="5u_YO6R74U7jfF19-v8g-1" vertex="1">
          <mxGeometry x="80" y="360" width="40" height="40" as="geometry" />
        </mxCell>
        <mxCell id="5u_YO6R74U7jfF19-v8g-9" value="" style="whiteSpace=wrap;html=1;aspect=fixed;" parent="5u_YO6R74U7jfF19-v8g-1" vertex="1">
          <mxGeometry x="120" y="360" width="40" height="40" as="geometry" />
        </mxCell>
        <mxCell id="5u_YO6R74U7jfF19-v8g-10" value="" style="rounded=0;whiteSpace=wrap;html=1;fillColor=#fff2cc;strokeColor=#d6b656;" parent="5u_YO6R74U7jfF19-v8g-1" vertex="1">
          <mxGeometry x="240" y="240" width="40" height="40" as="geometry" />
        </mxCell>
        <mxCell id="5u_YO6R74U7jfF19-v8g-11" value="&lt;font style=&quot;font-size: 30px&quot;&gt;V&lt;/font&gt;" style="whiteSpace=wrap;html=1;aspect=fixed;" parent="5u_YO6R74U7jfF19-v8g-1" vertex="1">
          <mxGeometry x="240" y="320" width="40" height="40" as="geometry" />
        </mxCell>
        <mxCell id="5u_YO6R74U7jfF19-v8g-12" value="" style="endArrow=classic;html=1;exitX=0.5;exitY=1;exitDx=0;exitDy=0;entryX=0.5;entryY=0;entryDx=0;entryDy=0;" parent="5u_YO6R74U7jfF19-v8g-1" source="5u_YO6R74U7jfF19-v8g-101" edge="1">
          <mxGeometry width="50" height="50" relative="1" as="geometry">
            <mxPoint x="50" y="710" as="sourcePoint" />
            <mxPoint x="180" y="360" as="targetPoint" />
          </mxGeometry>
        </mxCell>
        <mxCell id="5u_YO6R74U7jfF19-v8g-13" value="" style="endArrow=classic;html=1;exitX=0.5;exitY=1;exitDx=0;exitDy=0;entryX=0.5;entryY=0;entryDx=0;entryDy=0;" parent="5u_YO6R74U7jfF19-v8g-1" source="5u_YO6R74U7jfF19-v8g-11" target="5u_YO6R74U7jfF19-v8g-38" edge="1">
          <mxGeometry width="50" height="50" relative="1" as="geometry">
            <mxPoint x="400" y="660" as="sourcePoint" />
            <mxPoint x="300" y="580" as="targetPoint" />
          </mxGeometry>
        </mxCell>
        <mxCell id="5u_YO6R74U7jfF19-v8g-16" value="&lt;font face=&quot;Garamond&quot; color=&quot;#006633&quot; size=&quot;1&quot;&gt;&lt;b style=&quot;font-size: 36px&quot;&gt;Производитель и потребитель&lt;/b&gt;&lt;/font&gt;" style="text;html=1;align=left;verticalAlign=middle;whiteSpace=wrap;rounded=0;" parent="5u_YO6R74U7jfF19-v8g-1" vertex="1">
          <mxGeometry x="40" y="40" width="920" height="20" as="geometry" />
        </mxCell>
        <mxCell id="5u_YO6R74U7jfF19-v8g-18" value="&lt;font style=&quot;font-size: 24px&quot;&gt;Поток 1&lt;/font&gt;" style="text;html=1;strokeColor=none;fillColor=none;align=center;verticalAlign=middle;whiteSpace=wrap;rounded=0;" parent="5u_YO6R74U7jfF19-v8g-1" vertex="1">
          <mxGeometry x="30" y="160" width="130" height="20" as="geometry" />
        </mxCell>
        <mxCell id="5u_YO6R74U7jfF19-v8g-19" value="&lt;font style=&quot;font-size: 24px&quot;&gt;Поток 2&lt;/font&gt;" style="text;html=1;strokeColor=none;fillColor=none;align=center;verticalAlign=middle;whiteSpace=wrap;rounded=0;" parent="5u_YO6R74U7jfF19-v8g-1" vertex="1">
          <mxGeometry x="30" y="640" width="130" height="20" as="geometry" />
        </mxCell>
        <mxCell id="5u_YO6R74U7jfF19-v8g-20" value="" style="endArrow=none;dashed=1;html=1;dashPattern=1 3;strokeWidth=2;" parent="5u_YO6R74U7jfF19-v8g-1" edge="1">
          <mxGeometry width="50" height="50" relative="1" as="geometry">
            <mxPoint x="280" y="629" as="sourcePoint" />
            <mxPoint x="280" y="199" as="targetPoint" />
          </mxGeometry>
        </mxCell>
        <mxCell id="5u_YO6R74U7jfF19-v8g-22" value="" style="rounded=0;whiteSpace=wrap;html=1;fillColor=#d5e8d4;strokeColor=#82b366;" parent="5u_YO6R74U7jfF19-v8g-1" vertex="1">
          <mxGeometry x="120" y="240" width="40" height="40" as="geometry" />
        </mxCell>
        <mxCell id="5u_YO6R74U7jfF19-v8g-23" value="" style="rounded=0;whiteSpace=wrap;html=1;fillColor=none;fontColor=#006633;" parent="5u_YO6R74U7jfF19-v8g-1" vertex="1">
          <mxGeometry x="160" y="480" width="40" height="40" as="geometry" />
        </mxCell>
        <mxCell id="5u_YO6R74U7jfF19-v8g-24" value="" style="group" parent="5u_YO6R74U7jfF19-v8g-1" vertex="1" connectable="0">
          <mxGeometry x="200" y="480" width="40" height="40" as="geometry" />
        </mxCell>
        <mxCell id="5u_YO6R74U7jfF19-v8g-25" value="" style="rounded=0;whiteSpace=wrap;html=1;fillColor=none;fontColor=#006633;" parent="5u_YO6R74U7jfF19-v8g-24" vertex="1">
          <mxGeometry width="40" height="40" as="geometry" />
        </mxCell>
        <mxCell id="5u_YO6R74U7jfF19-v8g-26" style="edgeStyle=orthogonalEdgeStyle;rounded=0;orthogonalLoop=1;jettySize=auto;html=1;exitX=0.5;exitY=1;exitDx=0;exitDy=0;fontColor=#006633;" parent="5u_YO6R74U7jfF19-v8g-24" source="5u_YO6R74U7jfF19-v8g-25" target="5u_YO6R74U7jfF19-v8g-25" edge="1">
          <mxGeometry relative="1" as="geometry" />
        </mxCell>
        <mxCell id="5u_YO6R74U7jfF19-v8g-27" value="" style="ellipse;whiteSpace=wrap;html=1;aspect=fixed;fontColor=#006633;fillColor=#FF8000;" parent="5u_YO6R74U7jfF19-v8g-24" vertex="1">
          <mxGeometry x="10" y="10" width="20" height="20" as="geometry" />
        </mxCell>
        <mxCell id="5u_YO6R74U7jfF19-v8g-32" value="" style="group;fillColor=#ffffff;" parent="5u_YO6R74U7jfF19-v8g-1" vertex="1" connectable="0">
          <mxGeometry x="280" y="480" width="40" height="40" as="geometry" />
        </mxCell>
        <mxCell id="5u_YO6R74U7jfF19-v8g-33" value="" style="rounded=0;whiteSpace=wrap;html=1;fillColor=none;fontColor=#006633;" parent="5u_YO6R74U7jfF19-v8g-32" vertex="1">
          <mxGeometry width="40" height="40" as="geometry" />
        </mxCell>
        <mxCell id="5u_YO6R74U7jfF19-v8g-34" style="edgeStyle=orthogonalEdgeStyle;rounded=0;orthogonalLoop=1;jettySize=auto;html=1;exitX=0.5;exitY=1;exitDx=0;exitDy=0;fontColor=#006633;" parent="5u_YO6R74U7jfF19-v8g-32" source="5u_YO6R74U7jfF19-v8g-33" target="5u_YO6R74U7jfF19-v8g-33" edge="1">
          <mxGeometry relative="1" as="geometry" />
        </mxCell>
        <mxCell id="5u_YO6R74U7jfF19-v8g-35" value="" style="ellipse;whiteSpace=wrap;html=1;aspect=fixed;fontColor=#006633;fillColor=#FF8000;" parent="5u_YO6R74U7jfF19-v8g-32" vertex="1">
          <mxGeometry x="10" y="10" width="20" height="20" as="geometry" />
        </mxCell>
        <mxCell id="5u_YO6R74U7jfF19-v8g-36" value="" style="rounded=0;whiteSpace=wrap;html=1;fontColor=#006633;" parent="5u_YO6R74U7jfF19-v8g-1" vertex="1">
          <mxGeometry x="320" y="480" width="40" height="40" as="geometry" />
        </mxCell>
        <mxCell id="5u_YO6R74U7jfF19-v8g-38" value="" style="rounded=0;whiteSpace=wrap;html=1;fillColor=#d5e8d4;strokeColor=#82b366;" parent="5u_YO6R74U7jfF19-v8g-1" vertex="1">
          <mxGeometry x="240" y="580" width="40" height="40" as="geometry" />
        </mxCell>
        <mxCell id="5u_YO6R74U7jfF19-v8g-40" value="" style="rounded=0;whiteSpace=wrap;html=1;fillColor=none;fontColor=#006633;" parent="5u_YO6R74U7jfF19-v8g-1" vertex="1">
          <mxGeometry x="280" y="360" width="40" height="40" as="geometry" />
        </mxCell>
        <mxCell id="5u_YO6R74U7jfF19-v8g-41" value="" style="rounded=0;whiteSpace=wrap;html=1;strokeColor=#82b366;fillColor=#97D077;" parent="5u_YO6R74U7jfF19-v8g-1" vertex="1">
          <mxGeometry x="320" y="240" width="80" height="40" as="geometry" />
        </mxCell>
        <mxCell id="5u_YO6R74U7jfF19-v8g-48" value="" style="endArrow=none;dashed=1;html=1;dashPattern=1 3;strokeWidth=2;" parent="5u_YO6R74U7jfF19-v8g-1" edge="1">
          <mxGeometry width="50" height="50" relative="1" as="geometry">
            <mxPoint x="360" y="629" as="sourcePoint" />
            <mxPoint x="360" y="198.9999999999999" as="targetPoint" />
          </mxGeometry>
        </mxCell>
        <mxCell id="5u_YO6R74U7jfF19-v8g-51" value="" style="rounded=0;whiteSpace=wrap;html=1;fillColor=#d5e8d4;strokeColor=#82b366;" parent="5u_YO6R74U7jfF19-v8g-1" vertex="1">
          <mxGeometry x="280" y="240" width="40" height="40" as="geometry" />
        </mxCell>
        <mxCell id="5u_YO6R74U7jfF19-v8g-53" value="" style="group" parent="5u_YO6R74U7jfF19-v8g-1" vertex="1" connectable="0">
          <mxGeometry x="400" y="480" width="40" height="40" as="geometry" />
        </mxCell>
        <mxCell id="5u_YO6R74U7jfF19-v8g-55" style="edgeStyle=orthogonalEdgeStyle;rounded=0;orthogonalLoop=1;jettySize=auto;html=1;exitX=0.5;exitY=1;exitDx=0;exitDy=0;fontColor=#006633;" parent="5u_YO6R74U7jfF19-v8g-53" edge="1">
          <mxGeometry relative="1" as="geometry">
            <mxPoint x="20" y="40" as="sourcePoint" />
            <mxPoint x="20" y="40" as="targetPoint" />
          </mxGeometry>
        </mxCell>
        <mxCell id="5u_YO6R74U7jfF19-v8g-100" value="&lt;font style=&quot;font-size: 24px&quot;&gt;Буфер&lt;/font&gt;" style="text;html=1;strokeColor=none;fillColor=none;align=center;verticalAlign=middle;whiteSpace=wrap;rounded=0;" parent="5u_YO6R74U7jfF19-v8g-1" vertex="1">
          <mxGeometry x="10" y="490" width="130" height="20" as="geometry" />
        </mxCell>
        <mxCell id="5u_YO6R74U7jfF19-v8g-101" value="&lt;font style=&quot;font-size: 30px&quot;&gt;V&lt;/font&gt;" style="whiteSpace=wrap;html=1;aspect=fixed;" parent="5u_YO6R74U7jfF19-v8g-1" vertex="1">
          <mxGeometry x="160" y="320" width="40" height="40" as="geometry" />
        </mxCell>
        <mxCell id="5u_YO6R74U7jfF19-v8g-102" value="" style="endArrow=classic;html=1;exitX=0.5;exitY=0;exitDx=0;exitDy=0;entryX=0.25;entryY=1;entryDx=0;entryDy=0;" parent="5u_YO6R74U7jfF19-v8g-1" source="5u_YO6R74U7jfF19-v8g-101" target="5u_YO6R74U7jfF19-v8g-5" edge="1">
          <mxGeometry width="50" height="50" relative="1" as="geometry">
            <mxPoint x="180" y="279.9999999999999" as="sourcePoint" />
            <mxPoint x="210" y="180" as="targetPoint" />
          </mxGeometry>
        </mxCell>
        <mxCell id="5u_YO6R74U7jfF19-v8g-103" value="&lt;font style=&quot;font-size: 30px&quot;&gt;V&lt;/font&gt;" style="whiteSpace=wrap;html=1;aspect=fixed;" parent="5u_YO6R74U7jfF19-v8g-1" vertex="1">
          <mxGeometry x="320" y="320" width="40" height="40" as="geometry" />
        </mxCell>
        <mxCell id="5u_YO6R74U7jfF19-v8g-109" value="" style="endArrow=classic;html=1;exitX=0.75;exitY=1;exitDx=0;exitDy=0;" parent="5u_YO6R74U7jfF19-v8g-1" source="5u_YO6R74U7jfF19-v8g-5" target="5u_YO6R74U7jfF19-v8g-27" edge="1">
          <mxGeometry width="50" height="50" relative="1" as="geometry">
            <mxPoint x="560" y="440" as="sourcePoint" />
            <mxPoint x="610" y="390" as="targetPoint" />
          </mxGeometry>
        </mxCell>
        <mxCell id="5u_YO6R74U7jfF19-v8g-110" value="&lt;font style=&quot;font-size: 30px&quot;&gt;V&lt;/font&gt;" style="whiteSpace=wrap;html=1;aspect=fixed;" parent="5u_YO6R74U7jfF19-v8g-1" vertex="1">
          <mxGeometry x="200" y="320" width="40" height="40" as="geometry" />
        </mxCell>
        <mxCell id="5u_YO6R74U7jfF19-v8g-112" value="" style="endArrow=classic;html=1;exitX=0.5;exitY=1;exitDx=0;exitDy=0;" parent="5u_YO6R74U7jfF19-v8g-1" edge="1">
          <mxGeometry width="50" height="50" relative="1" as="geometry">
            <mxPoint x="380" y="280" as="sourcePoint" />
            <mxPoint x="380" y="441" as="targetPoint" />
          </mxGeometry>
        </mxCell>
        <mxCell id="5u_YO6R74U7jfF19-v8g-28" value="" style="group" parent="5u_YO6R74U7jfF19-v8g-1" vertex="1" connectable="0">
          <mxGeometry x="240" y="480" width="40" height="40" as="geometry" />
        </mxCell>
        <mxCell id="5u_YO6R74U7jfF19-v8g-29" value="" style="rounded=0;whiteSpace=wrap;html=1;fontColor=#006633;" parent="5u_YO6R74U7jfF19-v8g-28" vertex="1">
          <mxGeometry width="40" height="40" as="geometry" />
        </mxCell>
        <mxCell id="5u_YO6R74U7jfF19-v8g-30" style="edgeStyle=orthogonalEdgeStyle;rounded=0;orthogonalLoop=1;jettySize=auto;html=1;exitX=0.5;exitY=1;exitDx=0;exitDy=0;fontColor=#006633;" parent="5u_YO6R74U7jfF19-v8g-28" source="5u_YO6R74U7jfF19-v8g-29" target="5u_YO6R74U7jfF19-v8g-29" edge="1">
          <mxGeometry relative="1" as="geometry" />
        </mxCell>
        <mxCell id="5u_YO6R74U7jfF19-v8g-31" value="" style="ellipse;whiteSpace=wrap;html=1;aspect=fixed;fontColor=#006633;fillColor=#FF8000;" parent="5u_YO6R74U7jfF19-v8g-28" vertex="1">
          <mxGeometry x="10" y="10" width="20" height="20" as="geometry" />
        </mxCell>
        <mxCell id="VyIgY7h8mCXXNCvi7PoS-0" value="" style="rounded=0;whiteSpace=wrap;html=1;fillColor=#e51400;strokeColor=#B20000;fontColor=#ffffff;" parent="5u_YO6R74U7jfF19-v8g-1" vertex="1">
          <mxGeometry x="280" y="580" width="120" height="40" as="geometry" />
        </mxCell>
        <mxCell id="VyIgY7h8mCXXNCvi7PoS-1" value="" style="endArrow=classic;html=1;exitX=0.5;exitY=0;exitDx=0;exitDy=0;" parent="5u_YO6R74U7jfF19-v8g-1" source="5u_YO6R74U7jfF19-v8g-103" edge="1">
          <mxGeometry width="50" height="50" relative="1" as="geometry">
            <mxPoint x="190" y="330" as="sourcePoint" />
            <mxPoint x="340" y="280" as="targetPoint" />
          </mxGeometry>
        </mxCell>
        <mxCell id="5u_YO6R74U7jfF19-v8g-39" value="" style="rounded=0;whiteSpace=wrap;html=1;fontColor=#006633;" parent="5u_YO6R74U7jfF19-v8g-1" vertex="1">
          <mxGeometry x="360" y="480" width="40" height="40" as="geometry" />
        </mxCell>
        <mxCell id="VyIgY7h8mCXXNCvi7PoS-3" value="" style="ellipse;whiteSpace=wrap;html=1;aspect=fixed;fillColor=#FF8000;" parent="5u_YO6R74U7jfF19-v8g-1" vertex="1">
          <mxGeometry x="330" y="490" width="20" height="20" as="geometry" />
        </mxCell>
        <mxCell id="VyIgY7h8mCXXNCvi7PoS-4" value="" style="ellipse;whiteSpace=wrap;html=1;aspect=fixed;fillColor=#FF8000;" parent="5u_YO6R74U7jfF19-v8g-1" vertex="1">
          <mxGeometry x="370" y="489" width="20" height="20" as="geometry" />
        </mxCell>
        <mxCell id="VyIgY7h8mCXXNCvi7PoS-10" value="&lt;font style=&quot;font-size: 18px&quot;&gt;Буфер заполнен!&lt;/font&gt;" style="text;html=1;strokeColor=none;fillColor=none;align=center;verticalAlign=middle;whiteSpace=wrap;rounded=0;" parent="5u_YO6R74U7jfF19-v8g-1" vertex="1">
          <mxGeometry x="400" y="420" width="160" height="20" as="geometry" />
        </mxCell>
        <mxCell id="MOEdvi8cb0sD0N5r2Xpn-1" value="&lt;font style=&quot;font-size: 30px&quot;&gt;V&lt;/font&gt;" style="whiteSpace=wrap;html=1;aspect=fixed;" parent="5u_YO6R74U7jfF19-v8g-1" vertex="1">
          <mxGeometry x="360" y="320" width="40" height="40" as="geometry" />
        </mxCell>
      </root>
    </mxGraphModel>
  </diagram>
  <diagram name="ProCon - Pro locks" id="U9eC6H3TarfAr-AHuEVb">
    <mxGraphModel dx="1174" dy="736" grid="1" gridSize="10" guides="1" tooltips="1" connect="1" arrows="1" fold="1" page="1" pageScale="1" pageWidth="1169" pageHeight="827" math="0" shadow="0">
      <root>
        <mxCell id="41Q57kKfronBTt-WTHNP-0" />
        <mxCell id="41Q57kKfronBTt-WTHNP-1" parent="41Q57kKfronBTt-WTHNP-0" />
        <mxCell id="ORhP9ttfb-qEcz6edvpQ-0" value="" style="endArrow=none;dashed=1;html=1;dashPattern=1 3;strokeWidth=2;" parent="41Q57kKfronBTt-WTHNP-1" edge="1">
          <mxGeometry width="50" height="50" relative="1" as="geometry">
            <mxPoint x="439.17" y="631" as="sourcePoint" />
            <mxPoint x="439.17" y="201" as="targetPoint" />
          </mxGeometry>
        </mxCell>
        <mxCell id="41Q57kKfronBTt-WTHNP-64" value="" style="endArrow=none;dashed=1;html=1;dashPattern=1 3;strokeWidth=2;" parent="41Q57kKfronBTt-WTHNP-1" edge="1">
          <mxGeometry width="50" height="50" relative="1" as="geometry">
            <mxPoint x="399" y="630" as="sourcePoint" />
            <mxPoint x="399" y="199.9999999999999" as="targetPoint" />
          </mxGeometry>
        </mxCell>
        <mxCell id="41Q57kKfronBTt-WTHNP-2" value="" style="endArrow=none;dashed=1;html=1;dashPattern=1 3;strokeWidth=2;" parent="41Q57kKfronBTt-WTHNP-1" edge="1">
          <mxGeometry width="50" height="50" relative="1" as="geometry">
            <mxPoint x="120" y="628.5" as="sourcePoint" />
            <mxPoint x="120" y="198.5" as="targetPoint" />
          </mxGeometry>
        </mxCell>
        <mxCell id="41Q57kKfronBTt-WTHNP-3" value="" style="endArrow=none;dashed=1;html=1;dashPattern=1 3;strokeWidth=2;" parent="41Q57kKfronBTt-WTHNP-1" edge="1">
          <mxGeometry width="50" height="50" relative="1" as="geometry">
            <mxPoint x="240" y="629" as="sourcePoint" />
            <mxPoint x="240" y="199" as="targetPoint" />
          </mxGeometry>
        </mxCell>
        <mxCell id="41Q57kKfronBTt-WTHNP-5" value="" style="rounded=0;whiteSpace=wrap;html=1;fillColor=#fff2cc;strokeColor=#d6b656;" parent="41Q57kKfronBTt-WTHNP-1" vertex="1">
          <mxGeometry x="40" y="240" width="80" height="40" as="geometry" />
        </mxCell>
        <mxCell id="41Q57kKfronBTt-WTHNP-6" value="" style="rounded=0;whiteSpace=wrap;html=1;fillColor=#d5e8d4;strokeColor=#82b366;" parent="41Q57kKfronBTt-WTHNP-1" vertex="1">
          <mxGeometry x="40" y="580" width="80" height="40" as="geometry" />
        </mxCell>
        <mxCell id="41Q57kKfronBTt-WTHNP-7" value="" style="rounded=0;whiteSpace=wrap;html=1;strokeColor=#82b366;fillColor=#97D077;" parent="41Q57kKfronBTt-WTHNP-1" vertex="1">
          <mxGeometry x="160" y="240" width="80" height="40" as="geometry" />
        </mxCell>
        <mxCell id="41Q57kKfronBTt-WTHNP-8" value="" style="rounded=0;whiteSpace=wrap;html=1;fillColor=#fff2cc;strokeColor=#d6b656;" parent="41Q57kKfronBTt-WTHNP-1" vertex="1">
          <mxGeometry x="120" y="580" width="120" height="40" as="geometry" />
        </mxCell>
        <mxCell id="41Q57kKfronBTt-WTHNP-9" value="" style="whiteSpace=wrap;html=1;aspect=fixed;" parent="41Q57kKfronBTt-WTHNP-1" vertex="1">
          <mxGeometry x="40" y="360" width="40" height="40" as="geometry" />
        </mxCell>
        <mxCell id="41Q57kKfronBTt-WTHNP-10" value="" style="whiteSpace=wrap;html=1;aspect=fixed;" parent="41Q57kKfronBTt-WTHNP-1" vertex="1">
          <mxGeometry x="80" y="360" width="40" height="40" as="geometry" />
        </mxCell>
        <mxCell id="41Q57kKfronBTt-WTHNP-11" value="" style="whiteSpace=wrap;html=1;aspect=fixed;" parent="41Q57kKfronBTt-WTHNP-1" vertex="1">
          <mxGeometry x="120" y="360" width="40" height="40" as="geometry" />
        </mxCell>
        <mxCell id="41Q57kKfronBTt-WTHNP-12" value="" style="rounded=0;whiteSpace=wrap;html=1;fillColor=#fff2cc;strokeColor=#d6b656;" parent="41Q57kKfronBTt-WTHNP-1" vertex="1">
          <mxGeometry x="240" y="240" width="40" height="40" as="geometry" />
        </mxCell>
        <mxCell id="41Q57kKfronBTt-WTHNP-13" value="&lt;font style=&quot;font-size: 30px&quot;&gt;V&lt;/font&gt;" style="whiteSpace=wrap;html=1;aspect=fixed;" parent="41Q57kKfronBTt-WTHNP-1" vertex="1">
          <mxGeometry x="240" y="320" width="40" height="40" as="geometry" />
        </mxCell>
        <mxCell id="41Q57kKfronBTt-WTHNP-14" value="" style="endArrow=classic;html=1;exitX=0.5;exitY=1;exitDx=0;exitDy=0;entryX=0.5;entryY=0;entryDx=0;entryDy=0;" parent="41Q57kKfronBTt-WTHNP-1" source="41Q57kKfronBTt-WTHNP-42" edge="1">
          <mxGeometry width="50" height="50" relative="1" as="geometry">
            <mxPoint x="50" y="710" as="sourcePoint" />
            <mxPoint x="180" y="360" as="targetPoint" />
          </mxGeometry>
        </mxCell>
        <mxCell id="41Q57kKfronBTt-WTHNP-15" value="" style="endArrow=classic;html=1;exitX=0.5;exitY=1;exitDx=0;exitDy=0;entryX=0.5;entryY=0;entryDx=0;entryDy=0;" parent="41Q57kKfronBTt-WTHNP-1" source="41Q57kKfronBTt-WTHNP-13" target="41Q57kKfronBTt-WTHNP-31" edge="1">
          <mxGeometry width="50" height="50" relative="1" as="geometry">
            <mxPoint x="400" y="660" as="sourcePoint" />
            <mxPoint x="300" y="580" as="targetPoint" />
          </mxGeometry>
        </mxCell>
        <mxCell id="41Q57kKfronBTt-WTHNP-16" value="&lt;font face=&quot;Garamond&quot; color=&quot;#006633&quot; size=&quot;1&quot;&gt;&lt;b style=&quot;font-size: 36px&quot;&gt;Производитель и потребитель&lt;/b&gt;&lt;/font&gt;" style="text;html=1;align=left;verticalAlign=middle;whiteSpace=wrap;rounded=0;" parent="41Q57kKfronBTt-WTHNP-1" vertex="1">
          <mxGeometry x="40" y="40" width="920" height="20" as="geometry" />
        </mxCell>
        <mxCell id="41Q57kKfronBTt-WTHNP-17" value="&lt;font style=&quot;font-size: 24px&quot;&gt;Поток 1&lt;/font&gt;" style="text;html=1;strokeColor=none;fillColor=none;align=center;verticalAlign=middle;whiteSpace=wrap;rounded=0;" parent="41Q57kKfronBTt-WTHNP-1" vertex="1">
          <mxGeometry x="30" y="160" width="130" height="20" as="geometry" />
        </mxCell>
        <mxCell id="41Q57kKfronBTt-WTHNP-18" value="&lt;font style=&quot;font-size: 24px&quot;&gt;Поток 2&lt;/font&gt;" style="text;html=1;strokeColor=none;fillColor=none;align=center;verticalAlign=middle;whiteSpace=wrap;rounded=0;" parent="41Q57kKfronBTt-WTHNP-1" vertex="1">
          <mxGeometry x="30" y="640" width="130" height="20" as="geometry" />
        </mxCell>
        <mxCell id="41Q57kKfronBTt-WTHNP-19" value="" style="endArrow=none;dashed=1;html=1;dashPattern=1 3;strokeWidth=2;" parent="41Q57kKfronBTt-WTHNP-1" edge="1">
          <mxGeometry width="50" height="50" relative="1" as="geometry">
            <mxPoint x="280" y="629" as="sourcePoint" />
            <mxPoint x="280" y="199" as="targetPoint" />
          </mxGeometry>
        </mxCell>
        <mxCell id="41Q57kKfronBTt-WTHNP-20" value="" style="rounded=0;whiteSpace=wrap;html=1;fillColor=#d5e8d4;strokeColor=#82b366;" parent="41Q57kKfronBTt-WTHNP-1" vertex="1">
          <mxGeometry x="120" y="240" width="40" height="40" as="geometry" />
        </mxCell>
        <mxCell id="41Q57kKfronBTt-WTHNP-21" value="" style="rounded=0;whiteSpace=wrap;html=1;fillColor=none;fontColor=#006633;" parent="41Q57kKfronBTt-WTHNP-1" vertex="1">
          <mxGeometry x="160" y="480" width="40" height="40" as="geometry" />
        </mxCell>
        <mxCell id="41Q57kKfronBTt-WTHNP-22" value="" style="group" parent="41Q57kKfronBTt-WTHNP-1" vertex="1" connectable="0">
          <mxGeometry x="200" y="480" width="40" height="40" as="geometry" />
        </mxCell>
        <mxCell id="41Q57kKfronBTt-WTHNP-23" value="" style="rounded=0;whiteSpace=wrap;html=1;fillColor=none;fontColor=#006633;" parent="41Q57kKfronBTt-WTHNP-22" vertex="1">
          <mxGeometry width="40" height="40" as="geometry" />
        </mxCell>
        <mxCell id="41Q57kKfronBTt-WTHNP-24" style="edgeStyle=orthogonalEdgeStyle;rounded=0;orthogonalLoop=1;jettySize=auto;html=1;exitX=0.5;exitY=1;exitDx=0;exitDy=0;fontColor=#006633;" parent="41Q57kKfronBTt-WTHNP-22" source="41Q57kKfronBTt-WTHNP-23" target="41Q57kKfronBTt-WTHNP-23" edge="1">
          <mxGeometry relative="1" as="geometry" />
        </mxCell>
        <mxCell id="41Q57kKfronBTt-WTHNP-25" value="" style="ellipse;whiteSpace=wrap;html=1;aspect=fixed;fontColor=#006633;fillColor=#FF8000;" parent="41Q57kKfronBTt-WTHNP-22" vertex="1">
          <mxGeometry x="10" y="10" width="20" height="20" as="geometry" />
        </mxCell>
        <mxCell id="41Q57kKfronBTt-WTHNP-26" value="" style="group;fillColor=#ffffff;" parent="41Q57kKfronBTt-WTHNP-1" vertex="1" connectable="0">
          <mxGeometry x="280" y="480" width="40" height="40" as="geometry" />
        </mxCell>
        <mxCell id="41Q57kKfronBTt-WTHNP-27" value="" style="rounded=0;whiteSpace=wrap;html=1;fillColor=none;fontColor=#006633;" parent="41Q57kKfronBTt-WTHNP-26" vertex="1">
          <mxGeometry width="40" height="40" as="geometry" />
        </mxCell>
        <mxCell id="41Q57kKfronBTt-WTHNP-28" style="edgeStyle=orthogonalEdgeStyle;rounded=0;orthogonalLoop=1;jettySize=auto;html=1;exitX=0.5;exitY=1;exitDx=0;exitDy=0;fontColor=#006633;" parent="41Q57kKfronBTt-WTHNP-26" source="41Q57kKfronBTt-WTHNP-27" target="41Q57kKfronBTt-WTHNP-27" edge="1">
          <mxGeometry relative="1" as="geometry" />
        </mxCell>
        <mxCell id="41Q57kKfronBTt-WTHNP-29" value="" style="ellipse;whiteSpace=wrap;html=1;aspect=fixed;fontColor=#006633;fillColor=#FF8000;" parent="41Q57kKfronBTt-WTHNP-26" vertex="1">
          <mxGeometry x="10" y="10" width="20" height="20" as="geometry" />
        </mxCell>
        <mxCell id="41Q57kKfronBTt-WTHNP-30" value="" style="rounded=0;whiteSpace=wrap;html=1;fontColor=#006633;" parent="41Q57kKfronBTt-WTHNP-1" vertex="1">
          <mxGeometry x="320" y="480" width="40" height="40" as="geometry" />
        </mxCell>
        <mxCell id="41Q57kKfronBTt-WTHNP-31" value="" style="rounded=0;whiteSpace=wrap;html=1;fillColor=#d5e8d4;strokeColor=#82b366;" parent="41Q57kKfronBTt-WTHNP-1" vertex="1">
          <mxGeometry x="240" y="580" width="40" height="40" as="geometry" />
        </mxCell>
        <mxCell id="41Q57kKfronBTt-WTHNP-32" value="" style="rounded=0;whiteSpace=wrap;html=1;fillColor=none;fontColor=#006633;" parent="41Q57kKfronBTt-WTHNP-1" vertex="1">
          <mxGeometry x="280" y="360" width="40" height="40" as="geometry" />
        </mxCell>
        <mxCell id="41Q57kKfronBTt-WTHNP-33" value="" style="rounded=0;whiteSpace=wrap;html=1;strokeColor=#82b366;fillColor=#97D077;" parent="41Q57kKfronBTt-WTHNP-1" vertex="1">
          <mxGeometry x="320" y="240" width="80" height="40" as="geometry" />
        </mxCell>
        <mxCell id="41Q57kKfronBTt-WTHNP-34" value="" style="endArrow=none;dashed=1;html=1;dashPattern=1 3;strokeWidth=2;" parent="41Q57kKfronBTt-WTHNP-1" edge="1">
          <mxGeometry width="50" height="50" relative="1" as="geometry">
            <mxPoint x="360" y="629" as="sourcePoint" />
            <mxPoint x="360" y="198.9999999999999" as="targetPoint" />
          </mxGeometry>
        </mxCell>
        <mxCell id="41Q57kKfronBTt-WTHNP-35" value="" style="rounded=0;whiteSpace=wrap;html=1;fillColor=#d5e8d4;strokeColor=#82b366;" parent="41Q57kKfronBTt-WTHNP-1" vertex="1">
          <mxGeometry x="280" y="240" width="40" height="40" as="geometry" />
        </mxCell>
        <mxCell id="41Q57kKfronBTt-WTHNP-36" value="" style="group" parent="41Q57kKfronBTt-WTHNP-1" vertex="1" connectable="0">
          <mxGeometry x="360" y="480" width="40" height="40" as="geometry" />
        </mxCell>
        <mxCell id="41Q57kKfronBTt-WTHNP-37" value="" style="rounded=0;whiteSpace=wrap;html=1;fillColor=none;fontColor=#006633;" parent="41Q57kKfronBTt-WTHNP-36" vertex="1">
          <mxGeometry width="40" height="40" as="geometry" />
        </mxCell>
        <mxCell id="41Q57kKfronBTt-WTHNP-38" style="edgeStyle=orthogonalEdgeStyle;rounded=0;orthogonalLoop=1;jettySize=auto;html=1;exitX=0.5;exitY=1;exitDx=0;exitDy=0;fontColor=#006633;" parent="41Q57kKfronBTt-WTHNP-36" source="41Q57kKfronBTt-WTHNP-37" target="41Q57kKfronBTt-WTHNP-37" edge="1">
          <mxGeometry relative="1" as="geometry" />
        </mxCell>
        <mxCell id="41Q57kKfronBTt-WTHNP-39" value="" style="ellipse;whiteSpace=wrap;html=1;aspect=fixed;fontColor=#006633;fillColor=#FF8000;" parent="41Q57kKfronBTt-WTHNP-36" vertex="1">
          <mxGeometry x="10" y="10" width="20" height="20" as="geometry" />
        </mxCell>
        <mxCell id="41Q57kKfronBTt-WTHNP-41" value="&lt;font style=&quot;font-size: 24px&quot;&gt;Буфер&lt;/font&gt;" style="text;html=1;strokeColor=none;fillColor=none;align=center;verticalAlign=middle;whiteSpace=wrap;rounded=0;" parent="41Q57kKfronBTt-WTHNP-1" vertex="1">
          <mxGeometry x="10" y="490" width="130" height="20" as="geometry" />
        </mxCell>
        <mxCell id="41Q57kKfronBTt-WTHNP-42" value="&lt;font style=&quot;font-size: 30px&quot;&gt;V&lt;/font&gt;" style="whiteSpace=wrap;html=1;aspect=fixed;" parent="41Q57kKfronBTt-WTHNP-1" vertex="1">
          <mxGeometry x="160" y="320" width="40" height="40" as="geometry" />
        </mxCell>
        <mxCell id="41Q57kKfronBTt-WTHNP-43" value="" style="endArrow=classic;html=1;exitX=0.5;exitY=0;exitDx=0;exitDy=0;entryX=0.25;entryY=1;entryDx=0;entryDy=0;" parent="41Q57kKfronBTt-WTHNP-1" source="41Q57kKfronBTt-WTHNP-42" target="41Q57kKfronBTt-WTHNP-7" edge="1">
          <mxGeometry width="50" height="50" relative="1" as="geometry">
            <mxPoint x="180" y="279.9999999999999" as="sourcePoint" />
            <mxPoint x="210" y="180" as="targetPoint" />
          </mxGeometry>
        </mxCell>
        <mxCell id="41Q57kKfronBTt-WTHNP-44" value="&lt;font style=&quot;font-size: 30px&quot;&gt;V&lt;/font&gt;" style="whiteSpace=wrap;html=1;aspect=fixed;" parent="41Q57kKfronBTt-WTHNP-1" vertex="1">
          <mxGeometry x="320" y="320" width="40" height="40" as="geometry" />
        </mxCell>
        <mxCell id="41Q57kKfronBTt-WTHNP-47" value="" style="endArrow=classic;html=1;exitX=0.75;exitY=1;exitDx=0;exitDy=0;" parent="41Q57kKfronBTt-WTHNP-1" source="41Q57kKfronBTt-WTHNP-7" target="41Q57kKfronBTt-WTHNP-25" edge="1">
          <mxGeometry width="50" height="50" relative="1" as="geometry">
            <mxPoint x="560" y="440" as="sourcePoint" />
            <mxPoint x="610" y="390" as="targetPoint" />
          </mxGeometry>
        </mxCell>
        <mxCell id="41Q57kKfronBTt-WTHNP-48" value="&lt;font style=&quot;font-size: 30px&quot;&gt;V&lt;/font&gt;" style="whiteSpace=wrap;html=1;aspect=fixed;" parent="41Q57kKfronBTt-WTHNP-1" vertex="1">
          <mxGeometry x="200" y="320" width="40" height="40" as="geometry" />
        </mxCell>
        <mxCell id="41Q57kKfronBTt-WTHNP-49" value="" style="endArrow=classic;html=1;exitX=0.5;exitY=1;exitDx=0;exitDy=0;" parent="41Q57kKfronBTt-WTHNP-1" edge="1">
          <mxGeometry width="50" height="50" relative="1" as="geometry">
            <mxPoint x="380" y="280" as="sourcePoint" />
            <mxPoint x="380" y="441" as="targetPoint" />
          </mxGeometry>
        </mxCell>
        <mxCell id="41Q57kKfronBTt-WTHNP-50" value="" style="group" parent="41Q57kKfronBTt-WTHNP-1" vertex="1" connectable="0">
          <mxGeometry x="240" y="480" width="40" height="40" as="geometry" />
        </mxCell>
        <mxCell id="41Q57kKfronBTt-WTHNP-51" value="" style="rounded=0;whiteSpace=wrap;html=1;fontColor=#006633;" parent="41Q57kKfronBTt-WTHNP-50" vertex="1">
          <mxGeometry width="40" height="40" as="geometry" />
        </mxCell>
        <mxCell id="41Q57kKfronBTt-WTHNP-52" style="edgeStyle=orthogonalEdgeStyle;rounded=0;orthogonalLoop=1;jettySize=auto;html=1;exitX=0.5;exitY=1;exitDx=0;exitDy=0;fontColor=#006633;" parent="41Q57kKfronBTt-WTHNP-50" source="41Q57kKfronBTt-WTHNP-51" target="41Q57kKfronBTt-WTHNP-51" edge="1">
          <mxGeometry relative="1" as="geometry" />
        </mxCell>
        <mxCell id="41Q57kKfronBTt-WTHNP-53" value="" style="ellipse;whiteSpace=wrap;html=1;aspect=fixed;fontColor=#006633;fillColor=#FF8000;" parent="41Q57kKfronBTt-WTHNP-50" vertex="1">
          <mxGeometry x="10" y="10" width="20" height="20" as="geometry" />
        </mxCell>
        <mxCell id="41Q57kKfronBTt-WTHNP-54" value="" style="rounded=0;whiteSpace=wrap;html=1;fillColor=#e51400;strokeColor=#B20000;fontColor=#ffffff;" parent="41Q57kKfronBTt-WTHNP-1" vertex="1">
          <mxGeometry x="280" y="580" width="120" height="40" as="geometry" />
        </mxCell>
        <mxCell id="41Q57kKfronBTt-WTHNP-55" value="" style="endArrow=classic;html=1;exitX=0.5;exitY=0;exitDx=0;exitDy=0;" parent="41Q57kKfronBTt-WTHNP-1" source="41Q57kKfronBTt-WTHNP-44" edge="1">
          <mxGeometry width="50" height="50" relative="1" as="geometry">
            <mxPoint x="190" y="330" as="sourcePoint" />
            <mxPoint x="340" y="280" as="targetPoint" />
          </mxGeometry>
        </mxCell>
        <mxCell id="41Q57kKfronBTt-WTHNP-58" value="" style="ellipse;whiteSpace=wrap;html=1;aspect=fixed;fillColor=#FF8000;" parent="41Q57kKfronBTt-WTHNP-1" vertex="1">
          <mxGeometry x="330" y="490" width="20" height="20" as="geometry" />
        </mxCell>
        <mxCell id="41Q57kKfronBTt-WTHNP-62" value="&lt;span style=&quot;font-size: 18px&quot;&gt;1. Буфер заполнен - поток 1 блокируется в ожидании готовности буфера&lt;/span&gt;" style="text;html=1;strokeColor=none;fillColor=none;align=left;verticalAlign=middle;whiteSpace=wrap;rounded=0;" parent="41Q57kKfronBTt-WTHNP-1" vertex="1">
          <mxGeometry x="380" y="180" width="630" height="20" as="geometry" />
        </mxCell>
        <mxCell id="41Q57kKfronBTt-WTHNP-63" value="&lt;font style=&quot;font-size: 30px&quot;&gt;V&lt;/font&gt;" style="whiteSpace=wrap;html=1;aspect=fixed;" parent="41Q57kKfronBTt-WTHNP-1" vertex="1">
          <mxGeometry x="360" y="320" width="40" height="40" as="geometry" />
        </mxCell>
        <mxCell id="41Q57kKfronBTt-WTHNP-65" value="&lt;font style=&quot;font-size: 30px&quot;&gt;V&lt;/font&gt;" style="whiteSpace=wrap;html=1;aspect=fixed;" parent="41Q57kKfronBTt-WTHNP-1" vertex="1">
          <mxGeometry x="400" y="400" width="40" height="40" as="geometry" />
        </mxCell>
        <mxCell id="41Q57kKfronBTt-WTHNP-66" value="" style="endArrow=classic;html=1;exitX=0.5;exitY=1;exitDx=0;exitDy=0;" parent="41Q57kKfronBTt-WTHNP-1" source="41Q57kKfronBTt-WTHNP-65" edge="1">
          <mxGeometry width="50" height="50" relative="1" as="geometry">
            <mxPoint x="560" y="740" as="sourcePoint" />
            <mxPoint x="420" y="580" as="targetPoint" />
          </mxGeometry>
        </mxCell>
        <mxCell id="41Q57kKfronBTt-WTHNP-68" value="" style="rounded=0;whiteSpace=wrap;html=1;fillColor=#e51400;strokeColor=#B20000;fontColor=#ffffff;" parent="41Q57kKfronBTt-WTHNP-1" vertex="1">
          <mxGeometry x="400" y="240" width="120" height="40" as="geometry" />
        </mxCell>
        <mxCell id="41Q57kKfronBTt-WTHNP-69" value="" style="group" parent="41Q57kKfronBTt-WTHNP-1" vertex="1" connectable="0">
          <mxGeometry x="400" y="480" width="40" height="40" as="geometry" />
        </mxCell>
        <mxCell id="41Q57kKfronBTt-WTHNP-70" value="" style="rounded=0;whiteSpace=wrap;html=1;fontColor=#006633;" parent="41Q57kKfronBTt-WTHNP-69" vertex="1">
          <mxGeometry width="40" height="40" as="geometry" />
        </mxCell>
        <mxCell id="41Q57kKfronBTt-WTHNP-71" style="edgeStyle=orthogonalEdgeStyle;rounded=0;orthogonalLoop=1;jettySize=auto;html=1;exitX=0.5;exitY=1;exitDx=0;exitDy=0;fontColor=#006633;" parent="41Q57kKfronBTt-WTHNP-69" source="41Q57kKfronBTt-WTHNP-70" target="41Q57kKfronBTt-WTHNP-70" edge="1">
          <mxGeometry relative="1" as="geometry" />
        </mxCell>
        <mxCell id="41Q57kKfronBTt-WTHNP-72" value="" style="ellipse;whiteSpace=wrap;html=1;aspect=fixed;fontColor=#006633;fillColor=#FF8000;" parent="41Q57kKfronBTt-WTHNP-69" vertex="1">
          <mxGeometry x="10" y="10" width="20" height="20" as="geometry" />
        </mxCell>
        <mxCell id="Xyn1695YQntnbUV5DzYy-0" value="" style="endArrow=classic;html=1;exitX=0.5;exitY=1;exitDx=0;exitDy=0;entryX=0.75;entryY=0;entryDx=0;entryDy=0;" parent="41Q57kKfronBTt-WTHNP-1" source="Xyn1695YQntnbUV5DzYy-2" target="Xyn1695YQntnbUV5DzYy-1" edge="1">
          <mxGeometry width="50" height="50" relative="1" as="geometry">
            <mxPoint x="680" y="440" as="sourcePoint" />
            <mxPoint x="730" y="390" as="targetPoint" />
          </mxGeometry>
        </mxCell>
        <mxCell id="Xyn1695YQntnbUV5DzYy-1" value="" style="rounded=0;whiteSpace=wrap;html=1;strokeColor=#82b366;fillColor=#97D077;" parent="41Q57kKfronBTt-WTHNP-1" vertex="1">
          <mxGeometry x="400" y="580" width="80" height="40" as="geometry" />
        </mxCell>
        <mxCell id="Xyn1695YQntnbUV5DzYy-2" value="" style="ellipse;whiteSpace=wrap;html=1;aspect=fixed;fillColor=#FF8000;" parent="41Q57kKfronBTt-WTHNP-1" vertex="1">
          <mxGeometry x="450" y="530" width="20" height="20" as="geometry" />
        </mxCell>
        <mxCell id="Xyn1695YQntnbUV5DzYy-3" value="" style="rounded=0;whiteSpace=wrap;html=1;fillColor=none;fontColor=#006633;" parent="41Q57kKfronBTt-WTHNP-1" vertex="1">
          <mxGeometry x="440" y="480" width="40" height="40" as="geometry" />
        </mxCell>
        <mxCell id="Xyn1695YQntnbUV5DzYy-4" value="&lt;font style=&quot;font-size: 30px&quot;&gt;V&lt;/font&gt;" style="whiteSpace=wrap;html=1;aspect=fixed;" parent="41Q57kKfronBTt-WTHNP-1" vertex="1">
          <mxGeometry x="440" y="400" width="40" height="40" as="geometry" />
        </mxCell>
        <mxCell id="ORhP9ttfb-qEcz6edvpQ-1" value="" style="rounded=0;whiteSpace=wrap;html=1;fillColor=#d5e8d4;strokeColor=#82b366;" parent="41Q57kKfronBTt-WTHNP-1" vertex="1">
          <mxGeometry x="480" y="580" width="40" height="40" as="geometry" />
        </mxCell>
        <mxCell id="Izuyqnjk60rQBvvh-u_s-0" value="" style="rounded=0;whiteSpace=wrap;html=1;fillColor=none;fontColor=#006633;" parent="41Q57kKfronBTt-WTHNP-1" vertex="1">
          <mxGeometry x="480" y="360" width="40" height="40" as="geometry" />
        </mxCell>
        <mxCell id="Izuyqnjk60rQBvvh-u_s-1" value="" style="endArrow=none;dashed=1;html=1;dashPattern=1 3;strokeWidth=2;" parent="41Q57kKfronBTt-WTHNP-1" edge="1">
          <mxGeometry width="50" height="50" relative="1" as="geometry">
            <mxPoint x="520.0000000000001" y="635" as="sourcePoint" />
            <mxPoint x="520.0000000000001" y="205" as="targetPoint" />
          </mxGeometry>
        </mxCell>
        <mxCell id="Izuyqnjk60rQBvvh-u_s-2" value="&lt;font style=&quot;font-size: 30px&quot;&gt;V&lt;/font&gt;" style="whiteSpace=wrap;html=1;aspect=fixed;" parent="41Q57kKfronBTt-WTHNP-1" vertex="1">
          <mxGeometry x="520" y="320" width="40" height="40" as="geometry" />
        </mxCell>
        <mxCell id="Izuyqnjk60rQBvvh-u_s-3" value="" style="rounded=0;whiteSpace=wrap;html=1;strokeColor=#82b366;fillColor=#97D077;" parent="41Q57kKfronBTt-WTHNP-1" vertex="1">
          <mxGeometry x="520" y="240" width="40" height="40" as="geometry" />
        </mxCell>
        <mxCell id="Izuyqnjk60rQBvvh-u_s-4" value="&lt;span style=&quot;font-size: 18px&quot;&gt;4. Блокировка возвращается потоку 1&lt;/span&gt;" style="text;html=1;strokeColor=none;fillColor=none;align=left;verticalAlign=middle;whiteSpace=wrap;rounded=0;" parent="41Q57kKfronBTt-WTHNP-1" vertex="1">
          <mxGeometry x="570" y="330" width="360" height="20" as="geometry" />
        </mxCell>
        <mxCell id="Izuyqnjk60rQBvvh-u_s-7" value="" style="rounded=0;whiteSpace=wrap;html=1;fillColor=none;fontColor=#006633;" parent="41Q57kKfronBTt-WTHNP-1" vertex="1">
          <mxGeometry x="480" y="480" width="40" height="40" as="geometry" />
        </mxCell>
        <mxCell id="Izuyqnjk60rQBvvh-u_s-8" value="" style="rounded=0;whiteSpace=wrap;html=1;fillColor=none;fontColor=#006633;" parent="41Q57kKfronBTt-WTHNP-1" vertex="1">
          <mxGeometry x="520" y="480" width="40" height="40" as="geometry" />
        </mxCell>
        <mxCell id="Izuyqnjk60rQBvvh-u_s-9" value="" style="rounded=0;whiteSpace=wrap;html=1;fillColor=#fff2cc;strokeColor=#d6b656;" parent="41Q57kKfronBTt-WTHNP-1" vertex="1">
          <mxGeometry x="520" y="580" width="120" height="40" as="geometry" />
        </mxCell>
        <mxCell id="Tk45lUOHTAHu3-uTDQRM-0" value="&lt;span style=&quot;font-size: 18px&quot;&gt;3. Поток 2 сообщает о наступлении события, ожидаемого потоком 1 и освобождает блокировку&lt;/span&gt;" style="text;html=1;strokeColor=none;fillColor=none;align=left;verticalAlign=middle;whiteSpace=wrap;rounded=0;" parent="41Q57kKfronBTt-WTHNP-1" vertex="1">
          <mxGeometry x="480" y="740" width="580" height="20" as="geometry" />
        </mxCell>
        <mxCell id="a0lNFA_KPteuEmOVidm6-1" value="&lt;span style=&quot;font-size: 18px&quot;&gt;2. Блокировка передается потоку 2&lt;/span&gt;" style="text;html=1;strokeColor=none;fillColor=none;align=center;verticalAlign=middle;whiteSpace=wrap;rounded=0;" parent="41Q57kKfronBTt-WTHNP-1" vertex="1">
          <mxGeometry x="385" y="680" width="150" height="20" as="geometry" />
        </mxCell>
        <mxCell id="9_HXHODPHphg5O-xPx62-0" value="&lt;span style=&quot;font-size: 18px&quot;&gt;???&lt;/span&gt;" style="text;html=1;strokeColor=none;fillColor=none;align=center;verticalAlign=middle;whiteSpace=wrap;rounded=0;" parent="41Q57kKfronBTt-WTHNP-1" vertex="1">
          <mxGeometry x="360" y="450" width="40" height="20" as="geometry" />
        </mxCell>
      </root>
    </mxGraphModel>
  </diagram>
  <diagram name="ProCon - Con fails" id="eEHkh9BQYD-dLbquRJge">
    <mxGraphModel dx="1174" dy="736" grid="1" gridSize="10" guides="1" tooltips="1" connect="1" arrows="1" fold="1" page="1" pageScale="1" pageWidth="1169" pageHeight="827" math="0" shadow="0">
      <root>
        <mxCell id="XcTVxEGX33RJJ-_6ZjVj-0" />
        <mxCell id="XcTVxEGX33RJJ-_6ZjVj-1" parent="XcTVxEGX33RJJ-_6ZjVj-0" />
        <mxCell id="XcTVxEGX33RJJ-_6ZjVj-2" value="" style="endArrow=classic;html=1;exitX=0.5;exitY=1;exitDx=0;exitDy=0;entryX=0.75;entryY=0;entryDx=0;entryDy=0;" edge="1" parent="XcTVxEGX33RJJ-_6ZjVj-1" source="XcTVxEGX33RJJ-_6ZjVj-110" target="XcTVxEGX33RJJ-_6ZjVj-37">
          <mxGeometry width="50" height="50" relative="1" as="geometry">
            <mxPoint x="601" y="440" as="sourcePoint" />
            <mxPoint x="651" y="390" as="targetPoint" />
          </mxGeometry>
        </mxCell>
        <mxCell id="XcTVxEGX33RJJ-_6ZjVj-3" value="" style="rounded=0;whiteSpace=wrap;html=1;fillColor=#fff2cc;strokeColor=#d6b656;" vertex="1" parent="XcTVxEGX33RJJ-_6ZjVj-1">
          <mxGeometry x="40" y="240" width="120" height="40" as="geometry" />
        </mxCell>
        <mxCell id="XcTVxEGX33RJJ-_6ZjVj-4" value="" style="rounded=0;whiteSpace=wrap;html=1;fillColor=#d5e8d4;strokeColor=#82b366;" vertex="1" parent="XcTVxEGX33RJJ-_6ZjVj-1">
          <mxGeometry x="40" y="580" width="120" height="40" as="geometry" />
        </mxCell>
        <mxCell id="XcTVxEGX33RJJ-_6ZjVj-5" value="" style="rounded=0;whiteSpace=wrap;html=1;strokeColor=#82b366;fillColor=#97D077;" vertex="1" parent="XcTVxEGX33RJJ-_6ZjVj-1">
          <mxGeometry x="160" y="240" width="80" height="40" as="geometry" />
        </mxCell>
        <mxCell id="XcTVxEGX33RJJ-_6ZjVj-6" value="" style="rounded=0;whiteSpace=wrap;html=1;fillColor=#fff2cc;strokeColor=#d6b656;" vertex="1" parent="XcTVxEGX33RJJ-_6ZjVj-1">
          <mxGeometry x="160" y="580" width="120" height="40" as="geometry" />
        </mxCell>
        <mxCell id="XcTVxEGX33RJJ-_6ZjVj-7" value="" style="whiteSpace=wrap;html=1;aspect=fixed;" vertex="1" parent="XcTVxEGX33RJJ-_6ZjVj-1">
          <mxGeometry x="40" y="360" width="40" height="40" as="geometry" />
        </mxCell>
        <mxCell id="XcTVxEGX33RJJ-_6ZjVj-8" value="" style="whiteSpace=wrap;html=1;aspect=fixed;" vertex="1" parent="XcTVxEGX33RJJ-_6ZjVj-1">
          <mxGeometry x="80" y="360" width="40" height="40" as="geometry" />
        </mxCell>
        <mxCell id="XcTVxEGX33RJJ-_6ZjVj-9" value="" style="whiteSpace=wrap;html=1;aspect=fixed;" vertex="1" parent="XcTVxEGX33RJJ-_6ZjVj-1">
          <mxGeometry x="120" y="360" width="40" height="40" as="geometry" />
        </mxCell>
        <mxCell id="XcTVxEGX33RJJ-_6ZjVj-10" value="" style="rounded=0;whiteSpace=wrap;html=1;fillColor=#fff2cc;strokeColor=#d6b656;" vertex="1" parent="XcTVxEGX33RJJ-_6ZjVj-1">
          <mxGeometry x="281" y="240" width="120" height="40" as="geometry" />
        </mxCell>
        <mxCell id="XcTVxEGX33RJJ-_6ZjVj-11" value="&lt;font style=&quot;font-size: 30px&quot;&gt;V&lt;/font&gt;" style="whiteSpace=wrap;html=1;aspect=fixed;" vertex="1" parent="XcTVxEGX33RJJ-_6ZjVj-1">
          <mxGeometry x="361" y="400" width="40" height="40" as="geometry" />
        </mxCell>
        <mxCell id="XcTVxEGX33RJJ-_6ZjVj-12" value="" style="endArrow=classic;html=1;exitX=0.5;exitY=1;exitDx=0;exitDy=0;entryX=0.5;entryY=0;entryDx=0;entryDy=0;" edge="1" parent="XcTVxEGX33RJJ-_6ZjVj-1" source="XcTVxEGX33RJJ-_6ZjVj-100">
          <mxGeometry width="50" height="50" relative="1" as="geometry">
            <mxPoint x="50" y="710" as="sourcePoint" />
            <mxPoint x="180" y="360" as="targetPoint" />
          </mxGeometry>
        </mxCell>
        <mxCell id="XcTVxEGX33RJJ-_6ZjVj-13" value="" style="endArrow=classic;html=1;exitX=0.5;exitY=1;exitDx=0;exitDy=0;entryX=0.5;entryY=0;entryDx=0;entryDy=0;" edge="1" parent="XcTVxEGX33RJJ-_6ZjVj-1" source="XcTVxEGX33RJJ-_6ZjVj-102">
          <mxGeometry width="50" height="50" relative="1" as="geometry">
            <mxPoint x="441" y="660" as="sourcePoint" />
            <mxPoint x="341" y="580" as="targetPoint" />
          </mxGeometry>
        </mxCell>
        <mxCell id="XcTVxEGX33RJJ-_6ZjVj-14" value="" style="endArrow=none;dashed=1;html=1;dashPattern=1 3;strokeWidth=2;" edge="1" parent="XcTVxEGX33RJJ-_6ZjVj-1">
          <mxGeometry width="50" height="50" relative="1" as="geometry">
            <mxPoint x="160" y="630" as="sourcePoint" />
            <mxPoint x="160" y="200" as="targetPoint" />
          </mxGeometry>
        </mxCell>
        <mxCell id="XcTVxEGX33RJJ-_6ZjVj-15" value="" style="endArrow=none;dashed=1;html=1;dashPattern=1 3;strokeWidth=2;" edge="1" parent="XcTVxEGX33RJJ-_6ZjVj-1">
          <mxGeometry width="50" height="50" relative="1" as="geometry">
            <mxPoint x="280" y="629" as="sourcePoint" />
            <mxPoint x="280" y="199" as="targetPoint" />
          </mxGeometry>
        </mxCell>
        <mxCell id="XcTVxEGX33RJJ-_6ZjVj-16" value="&lt;font face=&quot;Garamond&quot; color=&quot;#006633&quot; size=&quot;1&quot;&gt;&lt;b style=&quot;font-size: 36px&quot;&gt;Производитель и потребитель&lt;/b&gt;&lt;/font&gt;" style="text;html=1;align=left;verticalAlign=middle;whiteSpace=wrap;rounded=0;" vertex="1" parent="XcTVxEGX33RJJ-_6ZjVj-1">
          <mxGeometry x="40" y="40" width="920" height="20" as="geometry" />
        </mxCell>
        <mxCell id="XcTVxEGX33RJJ-_6ZjVj-17" value="&lt;font color=&quot;#000000&quot;&gt;&lt;span style=&quot;font-size: 18px&quot;&gt;Буфер пуст!&lt;/span&gt;&lt;/font&gt;" style="text;html=1;strokeColor=none;fillColor=none;align=left;verticalAlign=middle;whiteSpace=wrap;rounded=0;fontColor=#006633;" vertex="1" parent="XcTVxEGX33RJJ-_6ZjVj-1">
          <mxGeometry x="570" y="560" width="110" height="20" as="geometry" />
        </mxCell>
        <mxCell id="XcTVxEGX33RJJ-_6ZjVj-18" value="&lt;font style=&quot;font-size: 24px&quot;&gt;Поток 1&lt;/font&gt;" style="text;html=1;strokeColor=none;fillColor=none;align=center;verticalAlign=middle;whiteSpace=wrap;rounded=0;" vertex="1" parent="XcTVxEGX33RJJ-_6ZjVj-1">
          <mxGeometry x="30" y="160" width="130" height="20" as="geometry" />
        </mxCell>
        <mxCell id="XcTVxEGX33RJJ-_6ZjVj-19" value="&lt;font style=&quot;font-size: 24px&quot;&gt;Поток 2&lt;/font&gt;" style="text;html=1;strokeColor=none;fillColor=none;align=center;verticalAlign=middle;whiteSpace=wrap;rounded=0;" vertex="1" parent="XcTVxEGX33RJJ-_6ZjVj-1">
          <mxGeometry x="30" y="640" width="130" height="20" as="geometry" />
        </mxCell>
        <mxCell id="XcTVxEGX33RJJ-_6ZjVj-20" value="" style="endArrow=none;dashed=1;html=1;dashPattern=1 3;strokeWidth=2;" edge="1" parent="XcTVxEGX33RJJ-_6ZjVj-1">
          <mxGeometry width="50" height="50" relative="1" as="geometry">
            <mxPoint x="400.52" y="628" as="sourcePoint" />
            <mxPoint x="400.52" y="198" as="targetPoint" />
          </mxGeometry>
        </mxCell>
        <mxCell id="XcTVxEGX33RJJ-_6ZjVj-21" value="" style="whiteSpace=wrap;html=1;aspect=fixed;" vertex="1" parent="XcTVxEGX33RJJ-_6ZjVj-1">
          <mxGeometry x="240" y="360" width="40" height="40" as="geometry" />
        </mxCell>
        <mxCell id="XcTVxEGX33RJJ-_6ZjVj-22" value="" style="rounded=0;whiteSpace=wrap;html=1;fillColor=#d5e8d4;strokeColor=#82b366;" vertex="1" parent="XcTVxEGX33RJJ-_6ZjVj-1">
          <mxGeometry x="240" y="240" width="40" height="40" as="geometry" />
        </mxCell>
        <mxCell id="XcTVxEGX33RJJ-_6ZjVj-23" value="" style="rounded=0;whiteSpace=wrap;html=1;fillColor=none;fontColor=#006633;" vertex="1" parent="XcTVxEGX33RJJ-_6ZjVj-1">
          <mxGeometry x="160" y="480" width="40" height="40" as="geometry" />
        </mxCell>
        <mxCell id="XcTVxEGX33RJJ-_6ZjVj-24" value="" style="group" vertex="1" connectable="0" parent="XcTVxEGX33RJJ-_6ZjVj-1">
          <mxGeometry x="200" y="480" width="40" height="40" as="geometry" />
        </mxCell>
        <mxCell id="XcTVxEGX33RJJ-_6ZjVj-25" value="" style="rounded=0;whiteSpace=wrap;html=1;fillColor=none;fontColor=#006633;" vertex="1" parent="XcTVxEGX33RJJ-_6ZjVj-24">
          <mxGeometry width="40" height="40" as="geometry" />
        </mxCell>
        <mxCell id="XcTVxEGX33RJJ-_6ZjVj-26" style="edgeStyle=orthogonalEdgeStyle;rounded=0;orthogonalLoop=1;jettySize=auto;html=1;exitX=0.5;exitY=1;exitDx=0;exitDy=0;fontColor=#006633;" edge="1" parent="XcTVxEGX33RJJ-_6ZjVj-24" source="XcTVxEGX33RJJ-_6ZjVj-25" target="XcTVxEGX33RJJ-_6ZjVj-25">
          <mxGeometry relative="1" as="geometry" />
        </mxCell>
        <mxCell id="XcTVxEGX33RJJ-_6ZjVj-27" value="" style="ellipse;whiteSpace=wrap;html=1;aspect=fixed;fontColor=#006633;fillColor=#FF8000;" vertex="1" parent="XcTVxEGX33RJJ-_6ZjVj-24">
          <mxGeometry x="10" y="10" width="20" height="20" as="geometry" />
        </mxCell>
        <mxCell id="XcTVxEGX33RJJ-_6ZjVj-28" value="" style="group" vertex="1" connectable="0" parent="XcTVxEGX33RJJ-_6ZjVj-1">
          <mxGeometry x="240" y="480" width="40" height="40" as="geometry" />
        </mxCell>
        <mxCell id="XcTVxEGX33RJJ-_6ZjVj-29" value="" style="rounded=0;whiteSpace=wrap;html=1;fillColor=none;fontColor=#006633;" vertex="1" parent="XcTVxEGX33RJJ-_6ZjVj-28">
          <mxGeometry width="40" height="40" as="geometry" />
        </mxCell>
        <mxCell id="XcTVxEGX33RJJ-_6ZjVj-30" style="edgeStyle=orthogonalEdgeStyle;rounded=0;orthogonalLoop=1;jettySize=auto;html=1;exitX=0.5;exitY=1;exitDx=0;exitDy=0;fontColor=#006633;" edge="1" parent="XcTVxEGX33RJJ-_6ZjVj-28" source="XcTVxEGX33RJJ-_6ZjVj-29" target="XcTVxEGX33RJJ-_6ZjVj-29">
          <mxGeometry relative="1" as="geometry" />
        </mxCell>
        <mxCell id="XcTVxEGX33RJJ-_6ZjVj-31" value="" style="ellipse;whiteSpace=wrap;html=1;aspect=fixed;fontColor=#006633;fillColor=#FF8000;" vertex="1" parent="XcTVxEGX33RJJ-_6ZjVj-28">
          <mxGeometry x="10" y="10" width="20" height="20" as="geometry" />
        </mxCell>
        <mxCell id="XcTVxEGX33RJJ-_6ZjVj-32" value="" style="group;fillColor=#ffffff;" vertex="1" connectable="0" parent="XcTVxEGX33RJJ-_6ZjVj-1">
          <mxGeometry x="320" y="480" width="40" height="40" as="geometry" />
        </mxCell>
        <mxCell id="XcTVxEGX33RJJ-_6ZjVj-33" value="" style="rounded=0;whiteSpace=wrap;html=1;fillColor=none;fontColor=#006633;" vertex="1" parent="XcTVxEGX33RJJ-_6ZjVj-32">
          <mxGeometry width="40" height="40" as="geometry" />
        </mxCell>
        <mxCell id="XcTVxEGX33RJJ-_6ZjVj-34" style="edgeStyle=orthogonalEdgeStyle;rounded=0;orthogonalLoop=1;jettySize=auto;html=1;exitX=0.5;exitY=1;exitDx=0;exitDy=0;fontColor=#006633;" edge="1" parent="XcTVxEGX33RJJ-_6ZjVj-32" source="XcTVxEGX33RJJ-_6ZjVj-33" target="XcTVxEGX33RJJ-_6ZjVj-33">
          <mxGeometry relative="1" as="geometry" />
        </mxCell>
        <mxCell id="XcTVxEGX33RJJ-_6ZjVj-35" value="" style="ellipse;whiteSpace=wrap;html=1;aspect=fixed;fontColor=#006633;fillColor=#FF8000;" vertex="1" parent="XcTVxEGX33RJJ-_6ZjVj-32">
          <mxGeometry x="10" y="10" width="20" height="20" as="geometry" />
        </mxCell>
        <mxCell id="XcTVxEGX33RJJ-_6ZjVj-36" value="" style="rounded=0;whiteSpace=wrap;html=1;fontColor=#006633;" vertex="1" parent="XcTVxEGX33RJJ-_6ZjVj-1">
          <mxGeometry x="360" y="480" width="40" height="40" as="geometry" />
        </mxCell>
        <mxCell id="XcTVxEGX33RJJ-_6ZjVj-37" value="" style="rounded=0;whiteSpace=wrap;html=1;strokeColor=#82b366;fillColor=#97D077;" vertex="1" parent="XcTVxEGX33RJJ-_6ZjVj-1">
          <mxGeometry x="320" y="580" width="80" height="40" as="geometry" />
        </mxCell>
        <mxCell id="XcTVxEGX33RJJ-_6ZjVj-38" value="" style="rounded=0;whiteSpace=wrap;html=1;fillColor=#d5e8d4;strokeColor=#82b366;" vertex="1" parent="XcTVxEGX33RJJ-_6ZjVj-1">
          <mxGeometry x="441" y="580" width="40" height="40" as="geometry" />
        </mxCell>
        <mxCell id="XcTVxEGX33RJJ-_6ZjVj-39" value="" style="rounded=0;whiteSpace=wrap;html=1;fillColor=none;fontColor=#006633;" vertex="1" parent="XcTVxEGX33RJJ-_6ZjVj-1">
          <mxGeometry x="400" y="480" width="40" height="40" as="geometry" />
        </mxCell>
        <mxCell id="XcTVxEGX33RJJ-_6ZjVj-42" value="" style="rounded=0;whiteSpace=wrap;html=1;fillColor=#fff2cc;strokeColor=#d6b656;" vertex="1" parent="XcTVxEGX33RJJ-_6ZjVj-1">
          <mxGeometry x="400" y="580" width="40" height="40" as="geometry" />
        </mxCell>
        <mxCell id="XcTVxEGX33RJJ-_6ZjVj-49" value="" style="whiteSpace=wrap;html=1;aspect=fixed;" vertex="1" parent="XcTVxEGX33RJJ-_6ZjVj-1">
          <mxGeometry x="440" y="360" width="40" height="40" as="geometry" />
        </mxCell>
        <mxCell id="XcTVxEGX33RJJ-_6ZjVj-50" value="" style="rounded=0;whiteSpace=wrap;html=1;fillColor=#d5e8d4;strokeColor=#82b366;" vertex="1" parent="XcTVxEGX33RJJ-_6ZjVj-1">
          <mxGeometry x="400" y="240" width="40" height="40" as="geometry" />
        </mxCell>
        <mxCell id="XcTVxEGX33RJJ-_6ZjVj-51" value="" style="rounded=0;whiteSpace=wrap;html=1;fillColor=none;fontColor=#006633;" vertex="1" parent="XcTVxEGX33RJJ-_6ZjVj-1">
          <mxGeometry x="440" y="480" width="40" height="40" as="geometry" />
        </mxCell>
        <mxCell id="XcTVxEGX33RJJ-_6ZjVj-60" value="" style="group;fillColor=#ffffff;container=0;" vertex="1" connectable="0" parent="XcTVxEGX33RJJ-_6ZjVj-1">
          <mxGeometry x="560" y="480" width="40" height="40" as="geometry" />
        </mxCell>
        <mxCell id="XcTVxEGX33RJJ-_6ZjVj-99" value="&lt;font style=&quot;font-size: 24px&quot;&gt;Буфер&lt;/font&gt;" style="text;html=1;strokeColor=none;fillColor=none;align=center;verticalAlign=middle;whiteSpace=wrap;rounded=0;" vertex="1" parent="XcTVxEGX33RJJ-_6ZjVj-1">
          <mxGeometry x="10" y="490" width="130" height="20" as="geometry" />
        </mxCell>
        <mxCell id="XcTVxEGX33RJJ-_6ZjVj-100" value="&lt;font style=&quot;font-size: 30px&quot;&gt;V&lt;/font&gt;" style="whiteSpace=wrap;html=1;aspect=fixed;" vertex="1" parent="XcTVxEGX33RJJ-_6ZjVj-1">
          <mxGeometry x="160" y="320" width="40" height="40" as="geometry" />
        </mxCell>
        <mxCell id="XcTVxEGX33RJJ-_6ZjVj-101" value="" style="endArrow=classic;html=1;exitX=0.5;exitY=0;exitDx=0;exitDy=0;entryX=0.25;entryY=1;entryDx=0;entryDy=0;" edge="1" parent="XcTVxEGX33RJJ-_6ZjVj-1" source="XcTVxEGX33RJJ-_6ZjVj-100" target="XcTVxEGX33RJJ-_6ZjVj-5">
          <mxGeometry width="50" height="50" relative="1" as="geometry">
            <mxPoint x="180" y="279.9999999999999" as="sourcePoint" />
            <mxPoint x="210" y="180" as="targetPoint" />
          </mxGeometry>
        </mxCell>
        <mxCell id="XcTVxEGX33RJJ-_6ZjVj-102" value="&lt;font style=&quot;font-size: 30px&quot;&gt;V&lt;/font&gt;" style="whiteSpace=wrap;html=1;aspect=fixed;" vertex="1" parent="XcTVxEGX33RJJ-_6ZjVj-1">
          <mxGeometry x="321" y="400" width="40" height="40" as="geometry" />
        </mxCell>
        <mxCell id="XcTVxEGX33RJJ-_6ZjVj-103" value="&lt;font style=&quot;font-size: 30px&quot;&gt;V&lt;/font&gt;" style="whiteSpace=wrap;html=1;aspect=fixed;" vertex="1" parent="XcTVxEGX33RJJ-_6ZjVj-1">
          <mxGeometry x="400" y="400" width="40" height="40" as="geometry" />
        </mxCell>
        <mxCell id="XcTVxEGX33RJJ-_6ZjVj-104" value="" style="endArrow=classic;html=1;entryX=0.5;entryY=0;entryDx=0;entryDy=0;exitX=0.5;exitY=1;exitDx=0;exitDy=0;" edge="1" parent="XcTVxEGX33RJJ-_6ZjVj-1" source="XcTVxEGX33RJJ-_6ZjVj-50" target="XcTVxEGX33RJJ-_6ZjVj-103">
          <mxGeometry width="50" height="50" relative="1" as="geometry">
            <mxPoint x="430" y="290" as="sourcePoint" />
            <mxPoint x="461" y="280" as="targetPoint" />
          </mxGeometry>
        </mxCell>
        <mxCell id="XcTVxEGX33RJJ-_6ZjVj-105" value="&lt;font style=&quot;font-size: 30px&quot;&gt;V&lt;/font&gt;" style="whiteSpace=wrap;html=1;aspect=fixed;" vertex="1" parent="XcTVxEGX33RJJ-_6ZjVj-1">
          <mxGeometry x="520" y="400" width="40" height="40" as="geometry" />
        </mxCell>
        <mxCell id="XcTVxEGX33RJJ-_6ZjVj-108" value="" style="endArrow=classic;html=1;exitX=0.75;exitY=1;exitDx=0;exitDy=0;" edge="1" parent="XcTVxEGX33RJJ-_6ZjVj-1" source="XcTVxEGX33RJJ-_6ZjVj-5" target="XcTVxEGX33RJJ-_6ZjVj-27">
          <mxGeometry width="50" height="50" relative="1" as="geometry">
            <mxPoint x="560" y="440" as="sourcePoint" />
            <mxPoint x="610" y="390" as="targetPoint" />
          </mxGeometry>
        </mxCell>
        <mxCell id="XcTVxEGX33RJJ-_6ZjVj-109" value="&lt;font style=&quot;font-size: 30px&quot;&gt;V&lt;/font&gt;" style="whiteSpace=wrap;html=1;aspect=fixed;" vertex="1" parent="XcTVxEGX33RJJ-_6ZjVj-1">
          <mxGeometry x="200" y="320" width="40" height="40" as="geometry" />
        </mxCell>
        <mxCell id="XcTVxEGX33RJJ-_6ZjVj-110" value="" style="ellipse;whiteSpace=wrap;html=1;aspect=fixed;fillColor=#FF8000;" vertex="1" parent="XcTVxEGX33RJJ-_6ZjVj-1">
          <mxGeometry x="371" y="530" width="20" height="20" as="geometry" />
        </mxCell>
        <mxCell id="XcTVxEGX33RJJ-_6ZjVj-111" value="" style="endArrow=classic;html=1;exitX=0.5;exitY=1;exitDx=0;exitDy=0;" edge="1" parent="XcTVxEGX33RJJ-_6ZjVj-1" source="XcTVxEGX33RJJ-_6ZjVj-116">
          <mxGeometry width="50" height="50" relative="1" as="geometry">
            <mxPoint x="499" y="440" as="sourcePoint" />
            <mxPoint x="500" y="580" as="targetPoint" />
          </mxGeometry>
        </mxCell>
        <mxCell id="XcTVxEGX33RJJ-_6ZjVj-116" value="&lt;font style=&quot;font-size: 30px&quot;&gt;V&lt;/font&gt;" style="whiteSpace=wrap;html=1;aspect=fixed;" vertex="1" parent="XcTVxEGX33RJJ-_6ZjVj-1">
          <mxGeometry x="480" y="400" width="40" height="40" as="geometry" />
        </mxCell>
        <mxCell id="yRsC5waYW8IGA5uxlYTE-0" value="" style="rounded=0;whiteSpace=wrap;html=1;fillColor=#d5e8d4;strokeColor=#82b366;" vertex="1" parent="XcTVxEGX33RJJ-_6ZjVj-1">
          <mxGeometry x="280" y="580" width="40" height="40" as="geometry" />
        </mxCell>
        <mxCell id="yRsC5waYW8IGA5uxlYTE-1" value="" style="group;fillColor=#ffffff;" vertex="1" connectable="0" parent="XcTVxEGX33RJJ-_6ZjVj-1">
          <mxGeometry x="280" y="480" width="40" height="40" as="geometry" />
        </mxCell>
        <mxCell id="yRsC5waYW8IGA5uxlYTE-2" value="" style="rounded=0;whiteSpace=wrap;html=1;fillColor=none;fontColor=#006633;" vertex="1" parent="yRsC5waYW8IGA5uxlYTE-1">
          <mxGeometry width="40" height="40" as="geometry" />
        </mxCell>
        <mxCell id="yRsC5waYW8IGA5uxlYTE-3" style="edgeStyle=orthogonalEdgeStyle;rounded=0;orthogonalLoop=1;jettySize=auto;html=1;exitX=0.5;exitY=1;exitDx=0;exitDy=0;fontColor=#006633;" edge="1" parent="yRsC5waYW8IGA5uxlYTE-1" source="yRsC5waYW8IGA5uxlYTE-2" target="yRsC5waYW8IGA5uxlYTE-2">
          <mxGeometry relative="1" as="geometry" />
        </mxCell>
        <mxCell id="yRsC5waYW8IGA5uxlYTE-4" value="" style="ellipse;whiteSpace=wrap;html=1;aspect=fixed;fontColor=#006633;fillColor=#FF8000;" vertex="1" parent="yRsC5waYW8IGA5uxlYTE-1">
          <mxGeometry x="10" y="10" width="20" height="20" as="geometry" />
        </mxCell>
        <mxCell id="yRsC5waYW8IGA5uxlYTE-5" value="" style="whiteSpace=wrap;html=1;aspect=fixed;" vertex="1" parent="XcTVxEGX33RJJ-_6ZjVj-1">
          <mxGeometry x="281" y="360" width="40" height="40" as="geometry" />
        </mxCell>
        <mxCell id="QY1EvnZmq7nOXO6qm6X8-1" value="" style="endArrow=none;dashed=1;html=1;dashPattern=1 3;strokeWidth=2;" edge="1" parent="XcTVxEGX33RJJ-_6ZjVj-1">
          <mxGeometry width="50" height="50" relative="1" as="geometry">
            <mxPoint x="440" y="634" as="sourcePoint" />
            <mxPoint x="440" y="203.9999999999999" as="targetPoint" />
          </mxGeometry>
        </mxCell>
        <mxCell id="XcTVxEGX33RJJ-_6ZjVj-57" value="" style="rounded=0;whiteSpace=wrap;html=1;fillColor=none;fontColor=#006633;" vertex="1" parent="XcTVxEGX33RJJ-_6ZjVj-1">
          <mxGeometry x="520" y="480" width="40" height="40" as="geometry" />
        </mxCell>
        <mxCell id="XcTVxEGX33RJJ-_6ZjVj-58" style="edgeStyle=orthogonalEdgeStyle;rounded=0;orthogonalLoop=1;jettySize=auto;html=1;exitX=0.5;exitY=1;exitDx=0;exitDy=0;fontColor=#006633;" edge="1" parent="XcTVxEGX33RJJ-_6ZjVj-1" source="XcTVxEGX33RJJ-_6ZjVj-57" target="XcTVxEGX33RJJ-_6ZjVj-57">
          <mxGeometry x="520" y="480" as="geometry" />
        </mxCell>
        <mxCell id="XcTVxEGX33RJJ-_6ZjVj-52" value="" style="group;fillColor=#ffffff;" vertex="1" connectable="0" parent="XcTVxEGX33RJJ-_6ZjVj-1">
          <mxGeometry x="480" y="480" width="40" height="40" as="geometry" />
        </mxCell>
        <mxCell id="XcTVxEGX33RJJ-_6ZjVj-53" value="" style="rounded=0;whiteSpace=wrap;html=1;fillColor=none;fontColor=#006633;" vertex="1" parent="XcTVxEGX33RJJ-_6ZjVj-52">
          <mxGeometry width="40" height="40" as="geometry" />
        </mxCell>
        <mxCell id="XcTVxEGX33RJJ-_6ZjVj-54" style="edgeStyle=orthogonalEdgeStyle;rounded=0;orthogonalLoop=1;jettySize=auto;html=1;exitX=0.5;exitY=1;exitDx=0;exitDy=0;fontColor=#006633;" edge="1" parent="XcTVxEGX33RJJ-_6ZjVj-52" source="XcTVxEGX33RJJ-_6ZjVj-53" target="XcTVxEGX33RJJ-_6ZjVj-53">
          <mxGeometry relative="1" as="geometry" />
        </mxCell>
        <mxCell id="XcTVxEGX33RJJ-_6ZjVj-62" style="edgeStyle=orthogonalEdgeStyle;rounded=0;orthogonalLoop=1;jettySize=auto;html=1;exitX=0.5;exitY=1;exitDx=0;exitDy=0;fontColor=#006633;" edge="1" parent="XcTVxEGX33RJJ-_6ZjVj-1">
          <mxGeometry x="560" y="480" as="geometry">
            <mxPoint x="580" y="520" as="sourcePoint" />
            <mxPoint x="580" y="520" as="targetPoint" />
          </mxGeometry>
        </mxCell>
        <mxCell id="QY1EvnZmq7nOXO6qm6X8-2" value="" style="endArrow=classic;html=1;strokeWidth=1;exitX=0.5;exitY=1;exitDx=0;exitDy=0;" edge="1" parent="XcTVxEGX33RJJ-_6ZjVj-1" source="XcTVxEGX33RJJ-_6ZjVj-57">
          <mxGeometry width="50" height="50" relative="1" as="geometry">
            <mxPoint x="550" y="440" as="sourcePoint" />
            <mxPoint x="540" y="560" as="targetPoint" />
          </mxGeometry>
        </mxCell>
        <mxCell id="QY1EvnZmq7nOXO6qm6X8-3" value="" style="endArrow=none;dashed=1;html=1;dashPattern=1 3;strokeWidth=2;" edge="1" parent="XcTVxEGX33RJJ-_6ZjVj-1">
          <mxGeometry width="50" height="50" relative="1" as="geometry">
            <mxPoint x="519" y="635" as="sourcePoint" />
            <mxPoint x="519" y="204.9999999999999" as="targetPoint" />
          </mxGeometry>
        </mxCell>
        <mxCell id="QY1EvnZmq7nOXO6qm6X8-0" value="" style="rounded=0;whiteSpace=wrap;html=1;fillColor=#e51400;strokeColor=#B20000;fontColor=#ffffff;" vertex="1" parent="XcTVxEGX33RJJ-_6ZjVj-1">
          <mxGeometry x="440" y="240" width="120" height="40" as="geometry" />
        </mxCell>
        <mxCell id="XcTVxEGX33RJJ-_6ZjVj-64" value="" style="rounded=0;whiteSpace=wrap;html=1;strokeColor=#82b366;fillColor=#97D077;" vertex="1" parent="XcTVxEGX33RJJ-_6ZjVj-1">
          <mxGeometry x="480" y="580" width="80" height="40" as="geometry" />
        </mxCell>
      </root>
    </mxGraphModel>
  </diagram>
  <diagram name="ProCon - Con locks" id="J06Q2u0EKKNbP-Ixmmeo">
    <mxGraphModel dx="1174" dy="736" grid="1" gridSize="10" guides="1" tooltips="1" connect="1" arrows="1" fold="1" page="1" pageScale="1" pageWidth="1169" pageHeight="827" math="0" shadow="0">
      <root>
        <mxCell id="bszwcxLDNJzqHkpJtsez-0" />
        <mxCell id="bszwcxLDNJzqHkpJtsez-1" parent="bszwcxLDNJzqHkpJtsez-0" />
        <mxCell id="bszwcxLDNJzqHkpJtsez-63" value="" style="endArrow=none;dashed=1;html=1;dashPattern=1 3;strokeWidth=2;" parent="bszwcxLDNJzqHkpJtsez-1" edge="1">
          <mxGeometry width="50" height="50" relative="1" as="geometry">
            <mxPoint x="440" y="634" as="sourcePoint" />
            <mxPoint x="440" y="203.9999999999999" as="targetPoint" />
          </mxGeometry>
        </mxCell>
        <mxCell id="bszwcxLDNJzqHkpJtsez-2" value="" style="endArrow=classic;html=1;exitX=0.5;exitY=1;exitDx=0;exitDy=0;entryX=0.75;entryY=0;entryDx=0;entryDy=0;" parent="bszwcxLDNJzqHkpJtsez-1" source="bszwcxLDNJzqHkpJtsez-54" target="bszwcxLDNJzqHkpJtsez-37" edge="1">
          <mxGeometry width="50" height="50" relative="1" as="geometry">
            <mxPoint x="601" y="440" as="sourcePoint" />
            <mxPoint x="651" y="390" as="targetPoint" />
          </mxGeometry>
        </mxCell>
        <mxCell id="bszwcxLDNJzqHkpJtsez-3" value="" style="rounded=0;whiteSpace=wrap;html=1;fillColor=#fff2cc;strokeColor=#d6b656;" parent="bszwcxLDNJzqHkpJtsez-1" vertex="1">
          <mxGeometry x="40" y="240" width="120" height="40" as="geometry" />
        </mxCell>
        <mxCell id="bszwcxLDNJzqHkpJtsez-4" value="" style="rounded=0;whiteSpace=wrap;html=1;fillColor=#d5e8d4;strokeColor=#82b366;" parent="bszwcxLDNJzqHkpJtsez-1" vertex="1">
          <mxGeometry x="40" y="580" width="120" height="40" as="geometry" />
        </mxCell>
        <mxCell id="bszwcxLDNJzqHkpJtsez-5" value="" style="rounded=0;whiteSpace=wrap;html=1;strokeColor=#82b366;fillColor=#97D077;" parent="bszwcxLDNJzqHkpJtsez-1" vertex="1">
          <mxGeometry x="160" y="240" width="80" height="40" as="geometry" />
        </mxCell>
        <mxCell id="bszwcxLDNJzqHkpJtsez-6" value="" style="rounded=0;whiteSpace=wrap;html=1;fillColor=#fff2cc;strokeColor=#d6b656;" parent="bszwcxLDNJzqHkpJtsez-1" vertex="1">
          <mxGeometry x="160" y="580" width="120" height="40" as="geometry" />
        </mxCell>
        <mxCell id="bszwcxLDNJzqHkpJtsez-7" value="" style="whiteSpace=wrap;html=1;aspect=fixed;" parent="bszwcxLDNJzqHkpJtsez-1" vertex="1">
          <mxGeometry x="40" y="360" width="40" height="40" as="geometry" />
        </mxCell>
        <mxCell id="bszwcxLDNJzqHkpJtsez-8" value="" style="whiteSpace=wrap;html=1;aspect=fixed;" parent="bszwcxLDNJzqHkpJtsez-1" vertex="1">
          <mxGeometry x="80" y="360" width="40" height="40" as="geometry" />
        </mxCell>
        <mxCell id="bszwcxLDNJzqHkpJtsez-9" value="" style="whiteSpace=wrap;html=1;aspect=fixed;" parent="bszwcxLDNJzqHkpJtsez-1" vertex="1">
          <mxGeometry x="120" y="360" width="40" height="40" as="geometry" />
        </mxCell>
        <mxCell id="bszwcxLDNJzqHkpJtsez-10" value="" style="rounded=0;whiteSpace=wrap;html=1;fillColor=#fff2cc;strokeColor=#d6b656;" parent="bszwcxLDNJzqHkpJtsez-1" vertex="1">
          <mxGeometry x="281" y="240" width="120" height="40" as="geometry" />
        </mxCell>
        <mxCell id="bszwcxLDNJzqHkpJtsez-11" value="&lt;font style=&quot;font-size: 30px&quot;&gt;V&lt;/font&gt;" style="whiteSpace=wrap;html=1;aspect=fixed;" parent="bszwcxLDNJzqHkpJtsez-1" vertex="1">
          <mxGeometry x="361" y="400" width="40" height="40" as="geometry" />
        </mxCell>
        <mxCell id="bszwcxLDNJzqHkpJtsez-12" value="" style="endArrow=classic;html=1;exitX=0.5;exitY=1;exitDx=0;exitDy=0;entryX=0.5;entryY=0;entryDx=0;entryDy=0;" parent="bszwcxLDNJzqHkpJtsez-1" source="bszwcxLDNJzqHkpJtsez-46" edge="1">
          <mxGeometry width="50" height="50" relative="1" as="geometry">
            <mxPoint x="50" y="710" as="sourcePoint" />
            <mxPoint x="180" y="360" as="targetPoint" />
          </mxGeometry>
        </mxCell>
        <mxCell id="bszwcxLDNJzqHkpJtsez-13" value="" style="endArrow=classic;html=1;exitX=0.5;exitY=1;exitDx=0;exitDy=0;entryX=0.5;entryY=0;entryDx=0;entryDy=0;" parent="bszwcxLDNJzqHkpJtsez-1" source="bszwcxLDNJzqHkpJtsez-48" edge="1">
          <mxGeometry width="50" height="50" relative="1" as="geometry">
            <mxPoint x="441" y="660" as="sourcePoint" />
            <mxPoint x="341" y="580" as="targetPoint" />
          </mxGeometry>
        </mxCell>
        <mxCell id="bszwcxLDNJzqHkpJtsez-14" value="" style="endArrow=none;dashed=1;html=1;dashPattern=1 3;strokeWidth=2;" parent="bszwcxLDNJzqHkpJtsez-1" edge="1">
          <mxGeometry width="50" height="50" relative="1" as="geometry">
            <mxPoint x="160" y="630" as="sourcePoint" />
            <mxPoint x="160" y="200" as="targetPoint" />
          </mxGeometry>
        </mxCell>
        <mxCell id="bszwcxLDNJzqHkpJtsez-15" value="" style="endArrow=none;dashed=1;html=1;dashPattern=1 3;strokeWidth=2;" parent="bszwcxLDNJzqHkpJtsez-1" edge="1">
          <mxGeometry width="50" height="50" relative="1" as="geometry">
            <mxPoint x="280" y="629" as="sourcePoint" />
            <mxPoint x="280" y="199" as="targetPoint" />
          </mxGeometry>
        </mxCell>
        <mxCell id="bszwcxLDNJzqHkpJtsez-16" value="&lt;font face=&quot;Garamond&quot; color=&quot;#006633&quot; size=&quot;1&quot;&gt;&lt;b style=&quot;font-size: 36px&quot;&gt;Производитель и потребитель&lt;/b&gt;&lt;/font&gt;" style="text;html=1;align=left;verticalAlign=middle;whiteSpace=wrap;rounded=0;" parent="bszwcxLDNJzqHkpJtsez-1" vertex="1">
          <mxGeometry x="40" y="40" width="920" height="20" as="geometry" />
        </mxCell>
        <mxCell id="bszwcxLDNJzqHkpJtsez-17" value="&lt;font color=&quot;#000000&quot;&gt;&lt;span style=&quot;font-size: 18px&quot;&gt;1. Буфер пуст - поток 2 блокируется в ожидании готовности буфера&lt;/span&gt;&lt;/font&gt;" style="text;html=1;strokeColor=none;fillColor=none;align=left;verticalAlign=middle;whiteSpace=wrap;rounded=0;fontColor=#006633;" parent="bszwcxLDNJzqHkpJtsez-1" vertex="1">
          <mxGeometry x="520" y="660" width="570" height="20" as="geometry" />
        </mxCell>
        <mxCell id="bszwcxLDNJzqHkpJtsez-18" value="&lt;font style=&quot;font-size: 24px&quot;&gt;Поток 1&lt;/font&gt;" style="text;html=1;strokeColor=none;fillColor=none;align=center;verticalAlign=middle;whiteSpace=wrap;rounded=0;" parent="bszwcxLDNJzqHkpJtsez-1" vertex="1">
          <mxGeometry x="30" y="160" width="130" height="20" as="geometry" />
        </mxCell>
        <mxCell id="bszwcxLDNJzqHkpJtsez-19" value="&lt;font style=&quot;font-size: 24px&quot;&gt;Поток 2&lt;/font&gt;" style="text;html=1;strokeColor=none;fillColor=none;align=center;verticalAlign=middle;whiteSpace=wrap;rounded=0;" parent="bszwcxLDNJzqHkpJtsez-1" vertex="1">
          <mxGeometry x="30" y="640" width="130" height="20" as="geometry" />
        </mxCell>
        <mxCell id="bszwcxLDNJzqHkpJtsez-20" value="" style="endArrow=none;dashed=1;html=1;dashPattern=1 3;strokeWidth=2;" parent="bszwcxLDNJzqHkpJtsez-1" edge="1">
          <mxGeometry width="50" height="50" relative="1" as="geometry">
            <mxPoint x="400.52" y="628" as="sourcePoint" />
            <mxPoint x="400.52" y="198" as="targetPoint" />
          </mxGeometry>
        </mxCell>
        <mxCell id="bszwcxLDNJzqHkpJtsez-21" value="" style="whiteSpace=wrap;html=1;aspect=fixed;" parent="bszwcxLDNJzqHkpJtsez-1" vertex="1">
          <mxGeometry x="240" y="360" width="40" height="40" as="geometry" />
        </mxCell>
        <mxCell id="bszwcxLDNJzqHkpJtsez-22" value="" style="rounded=0;whiteSpace=wrap;html=1;fillColor=#d5e8d4;strokeColor=#82b366;" parent="bszwcxLDNJzqHkpJtsez-1" vertex="1">
          <mxGeometry x="240" y="240" width="40" height="40" as="geometry" />
        </mxCell>
        <mxCell id="bszwcxLDNJzqHkpJtsez-23" value="" style="rounded=0;whiteSpace=wrap;html=1;fillColor=none;fontColor=#006633;" parent="bszwcxLDNJzqHkpJtsez-1" vertex="1">
          <mxGeometry x="160" y="480" width="40" height="40" as="geometry" />
        </mxCell>
        <mxCell id="bszwcxLDNJzqHkpJtsez-24" value="" style="group" parent="bszwcxLDNJzqHkpJtsez-1" vertex="1" connectable="0">
          <mxGeometry x="200" y="480" width="40" height="40" as="geometry" />
        </mxCell>
        <mxCell id="bszwcxLDNJzqHkpJtsez-25" value="" style="rounded=0;whiteSpace=wrap;html=1;fillColor=none;fontColor=#006633;" parent="bszwcxLDNJzqHkpJtsez-24" vertex="1">
          <mxGeometry width="40" height="40" as="geometry" />
        </mxCell>
        <mxCell id="bszwcxLDNJzqHkpJtsez-26" style="edgeStyle=orthogonalEdgeStyle;rounded=0;orthogonalLoop=1;jettySize=auto;html=1;exitX=0.5;exitY=1;exitDx=0;exitDy=0;fontColor=#006633;" parent="bszwcxLDNJzqHkpJtsez-24" source="bszwcxLDNJzqHkpJtsez-25" target="bszwcxLDNJzqHkpJtsez-25" edge="1">
          <mxGeometry relative="1" as="geometry" />
        </mxCell>
        <mxCell id="bszwcxLDNJzqHkpJtsez-27" value="" style="ellipse;whiteSpace=wrap;html=1;aspect=fixed;fontColor=#006633;fillColor=#FF8000;" parent="bszwcxLDNJzqHkpJtsez-24" vertex="1">
          <mxGeometry x="10" y="10" width="20" height="20" as="geometry" />
        </mxCell>
        <mxCell id="bszwcxLDNJzqHkpJtsez-28" value="" style="group" parent="bszwcxLDNJzqHkpJtsez-1" vertex="1" connectable="0">
          <mxGeometry x="240" y="480" width="40" height="40" as="geometry" />
        </mxCell>
        <mxCell id="bszwcxLDNJzqHkpJtsez-29" value="" style="rounded=0;whiteSpace=wrap;html=1;fillColor=none;fontColor=#006633;" parent="bszwcxLDNJzqHkpJtsez-28" vertex="1">
          <mxGeometry width="40" height="40" as="geometry" />
        </mxCell>
        <mxCell id="bszwcxLDNJzqHkpJtsez-30" style="edgeStyle=orthogonalEdgeStyle;rounded=0;orthogonalLoop=1;jettySize=auto;html=1;exitX=0.5;exitY=1;exitDx=0;exitDy=0;fontColor=#006633;" parent="bszwcxLDNJzqHkpJtsez-28" source="bszwcxLDNJzqHkpJtsez-29" target="bszwcxLDNJzqHkpJtsez-29" edge="1">
          <mxGeometry relative="1" as="geometry" />
        </mxCell>
        <mxCell id="bszwcxLDNJzqHkpJtsez-31" value="" style="ellipse;whiteSpace=wrap;html=1;aspect=fixed;fontColor=#006633;fillColor=#FF8000;" parent="bszwcxLDNJzqHkpJtsez-28" vertex="1">
          <mxGeometry x="10" y="10" width="20" height="20" as="geometry" />
        </mxCell>
        <mxCell id="bszwcxLDNJzqHkpJtsez-32" value="" style="group;fillColor=#ffffff;" parent="bszwcxLDNJzqHkpJtsez-1" vertex="1" connectable="0">
          <mxGeometry x="320" y="480" width="40" height="40" as="geometry" />
        </mxCell>
        <mxCell id="bszwcxLDNJzqHkpJtsez-33" value="" style="rounded=0;whiteSpace=wrap;html=1;fillColor=none;fontColor=#006633;" parent="bszwcxLDNJzqHkpJtsez-32" vertex="1">
          <mxGeometry width="40" height="40" as="geometry" />
        </mxCell>
        <mxCell id="bszwcxLDNJzqHkpJtsez-34" style="edgeStyle=orthogonalEdgeStyle;rounded=0;orthogonalLoop=1;jettySize=auto;html=1;exitX=0.5;exitY=1;exitDx=0;exitDy=0;fontColor=#006633;" parent="bszwcxLDNJzqHkpJtsez-32" source="bszwcxLDNJzqHkpJtsez-33" target="bszwcxLDNJzqHkpJtsez-33" edge="1">
          <mxGeometry relative="1" as="geometry" />
        </mxCell>
        <mxCell id="bszwcxLDNJzqHkpJtsez-35" value="" style="ellipse;whiteSpace=wrap;html=1;aspect=fixed;fontColor=#006633;fillColor=#FF8000;" parent="bszwcxLDNJzqHkpJtsez-32" vertex="1">
          <mxGeometry x="10" y="10" width="20" height="20" as="geometry" />
        </mxCell>
        <mxCell id="bszwcxLDNJzqHkpJtsez-36" value="" style="rounded=0;whiteSpace=wrap;html=1;fontColor=#006633;" parent="bszwcxLDNJzqHkpJtsez-1" vertex="1">
          <mxGeometry x="360" y="480" width="40" height="40" as="geometry" />
        </mxCell>
        <mxCell id="bszwcxLDNJzqHkpJtsez-37" value="" style="rounded=0;whiteSpace=wrap;html=1;strokeColor=#82b366;fillColor=#97D077;" parent="bszwcxLDNJzqHkpJtsez-1" vertex="1">
          <mxGeometry x="320" y="580" width="80" height="40" as="geometry" />
        </mxCell>
        <mxCell id="bszwcxLDNJzqHkpJtsez-38" value="" style="rounded=0;whiteSpace=wrap;html=1;fillColor=#d5e8d4;strokeColor=#82b366;" parent="bszwcxLDNJzqHkpJtsez-1" vertex="1">
          <mxGeometry x="441" y="580" width="40" height="40" as="geometry" />
        </mxCell>
        <mxCell id="bszwcxLDNJzqHkpJtsez-39" value="" style="rounded=0;whiteSpace=wrap;html=1;fillColor=none;fontColor=#006633;" parent="bszwcxLDNJzqHkpJtsez-1" vertex="1">
          <mxGeometry x="400" y="480" width="40" height="40" as="geometry" />
        </mxCell>
        <mxCell id="bszwcxLDNJzqHkpJtsez-40" value="" style="rounded=0;whiteSpace=wrap;html=1;fillColor=#fff2cc;strokeColor=#d6b656;" parent="bszwcxLDNJzqHkpJtsez-1" vertex="1">
          <mxGeometry x="400" y="580" width="40" height="40" as="geometry" />
        </mxCell>
        <mxCell id="bszwcxLDNJzqHkpJtsez-41" value="" style="whiteSpace=wrap;html=1;aspect=fixed;" parent="bszwcxLDNJzqHkpJtsez-1" vertex="1">
          <mxGeometry x="440" y="360" width="40" height="40" as="geometry" />
        </mxCell>
        <mxCell id="bszwcxLDNJzqHkpJtsez-42" value="" style="rounded=0;whiteSpace=wrap;html=1;fillColor=#d5e8d4;strokeColor=#82b366;" parent="bszwcxLDNJzqHkpJtsez-1" vertex="1">
          <mxGeometry x="400" y="240" width="40" height="40" as="geometry" />
        </mxCell>
        <mxCell id="bszwcxLDNJzqHkpJtsez-43" value="" style="rounded=0;whiteSpace=wrap;html=1;fillColor=none;fontColor=#006633;" parent="bszwcxLDNJzqHkpJtsez-1" vertex="1">
          <mxGeometry x="440" y="480" width="40" height="40" as="geometry" />
        </mxCell>
        <mxCell id="bszwcxLDNJzqHkpJtsez-45" value="&lt;font style=&quot;font-size: 24px&quot;&gt;Буфер&lt;/font&gt;" style="text;html=1;strokeColor=none;fillColor=none;align=center;verticalAlign=middle;whiteSpace=wrap;rounded=0;" parent="bszwcxLDNJzqHkpJtsez-1" vertex="1">
          <mxGeometry x="10" y="490" width="130" height="20" as="geometry" />
        </mxCell>
        <mxCell id="bszwcxLDNJzqHkpJtsez-46" value="&lt;font style=&quot;font-size: 30px&quot;&gt;V&lt;/font&gt;" style="whiteSpace=wrap;html=1;aspect=fixed;" parent="bszwcxLDNJzqHkpJtsez-1" vertex="1">
          <mxGeometry x="160" y="320" width="40" height="40" as="geometry" />
        </mxCell>
        <mxCell id="bszwcxLDNJzqHkpJtsez-47" value="" style="endArrow=classic;html=1;exitX=0.5;exitY=0;exitDx=0;exitDy=0;entryX=0.25;entryY=1;entryDx=0;entryDy=0;" parent="bszwcxLDNJzqHkpJtsez-1" source="bszwcxLDNJzqHkpJtsez-46" target="bszwcxLDNJzqHkpJtsez-5" edge="1">
          <mxGeometry width="50" height="50" relative="1" as="geometry">
            <mxPoint x="180" y="279.9999999999999" as="sourcePoint" />
            <mxPoint x="210" y="180" as="targetPoint" />
          </mxGeometry>
        </mxCell>
        <mxCell id="bszwcxLDNJzqHkpJtsez-48" value="&lt;font style=&quot;font-size: 30px&quot;&gt;V&lt;/font&gt;" style="whiteSpace=wrap;html=1;aspect=fixed;" parent="bszwcxLDNJzqHkpJtsez-1" vertex="1">
          <mxGeometry x="321" y="400" width="40" height="40" as="geometry" />
        </mxCell>
        <mxCell id="bszwcxLDNJzqHkpJtsez-49" value="&lt;font style=&quot;font-size: 30px&quot;&gt;V&lt;/font&gt;" style="whiteSpace=wrap;html=1;aspect=fixed;" parent="bszwcxLDNJzqHkpJtsez-1" vertex="1">
          <mxGeometry x="400" y="400" width="40" height="40" as="geometry" />
        </mxCell>
        <mxCell id="bszwcxLDNJzqHkpJtsez-50" value="" style="endArrow=classic;html=1;entryX=0.5;entryY=0;entryDx=0;entryDy=0;exitX=0.5;exitY=1;exitDx=0;exitDy=0;" parent="bszwcxLDNJzqHkpJtsez-1" source="bszwcxLDNJzqHkpJtsez-42" target="bszwcxLDNJzqHkpJtsez-49" edge="1">
          <mxGeometry width="50" height="50" relative="1" as="geometry">
            <mxPoint x="430" y="290" as="sourcePoint" />
            <mxPoint x="461" y="280" as="targetPoint" />
          </mxGeometry>
        </mxCell>
        <mxCell id="bszwcxLDNJzqHkpJtsez-51" value="&lt;font style=&quot;font-size: 30px&quot;&gt;V&lt;/font&gt;" style="whiteSpace=wrap;html=1;aspect=fixed;" parent="bszwcxLDNJzqHkpJtsez-1" vertex="1">
          <mxGeometry x="520" y="400" width="40" height="40" as="geometry" />
        </mxCell>
        <mxCell id="bszwcxLDNJzqHkpJtsez-52" value="" style="endArrow=classic;html=1;exitX=0.75;exitY=1;exitDx=0;exitDy=0;" parent="bszwcxLDNJzqHkpJtsez-1" source="bszwcxLDNJzqHkpJtsez-5" target="bszwcxLDNJzqHkpJtsez-27" edge="1">
          <mxGeometry width="50" height="50" relative="1" as="geometry">
            <mxPoint x="560" y="440" as="sourcePoint" />
            <mxPoint x="610" y="390" as="targetPoint" />
          </mxGeometry>
        </mxCell>
        <mxCell id="bszwcxLDNJzqHkpJtsez-53" value="&lt;font style=&quot;font-size: 30px&quot;&gt;V&lt;/font&gt;" style="whiteSpace=wrap;html=1;aspect=fixed;" parent="bszwcxLDNJzqHkpJtsez-1" vertex="1">
          <mxGeometry x="200" y="320" width="40" height="40" as="geometry" />
        </mxCell>
        <mxCell id="bszwcxLDNJzqHkpJtsez-54" value="" style="ellipse;whiteSpace=wrap;html=1;aspect=fixed;fillColor=#FF8000;" parent="bszwcxLDNJzqHkpJtsez-1" vertex="1">
          <mxGeometry x="370" y="530" width="20" height="20" as="geometry" />
        </mxCell>
        <mxCell id="bszwcxLDNJzqHkpJtsez-55" value="" style="endArrow=classic;html=1;exitX=0.5;exitY=1;exitDx=0;exitDy=0;" parent="bszwcxLDNJzqHkpJtsez-1" source="bszwcxLDNJzqHkpJtsez-56" edge="1">
          <mxGeometry width="50" height="50" relative="1" as="geometry">
            <mxPoint x="499" y="440" as="sourcePoint" />
            <mxPoint x="500" y="580" as="targetPoint" />
          </mxGeometry>
        </mxCell>
        <mxCell id="bszwcxLDNJzqHkpJtsez-56" value="&lt;font style=&quot;font-size: 30px&quot;&gt;V&lt;/font&gt;" style="whiteSpace=wrap;html=1;aspect=fixed;" parent="bszwcxLDNJzqHkpJtsez-1" vertex="1">
          <mxGeometry x="480" y="400" width="40" height="40" as="geometry" />
        </mxCell>
        <mxCell id="bszwcxLDNJzqHkpJtsez-57" value="" style="rounded=0;whiteSpace=wrap;html=1;fillColor=#d5e8d4;strokeColor=#82b366;" parent="bszwcxLDNJzqHkpJtsez-1" vertex="1">
          <mxGeometry x="280" y="580" width="40" height="40" as="geometry" />
        </mxCell>
        <mxCell id="bszwcxLDNJzqHkpJtsez-58" value="" style="group;fillColor=#ffffff;" parent="bszwcxLDNJzqHkpJtsez-1" vertex="1" connectable="0">
          <mxGeometry x="280" y="480" width="40" height="40" as="geometry" />
        </mxCell>
        <mxCell id="bszwcxLDNJzqHkpJtsez-59" value="" style="rounded=0;whiteSpace=wrap;html=1;fillColor=none;fontColor=#006633;" parent="bszwcxLDNJzqHkpJtsez-58" vertex="1">
          <mxGeometry width="40" height="40" as="geometry" />
        </mxCell>
        <mxCell id="bszwcxLDNJzqHkpJtsez-60" style="edgeStyle=orthogonalEdgeStyle;rounded=0;orthogonalLoop=1;jettySize=auto;html=1;exitX=0.5;exitY=1;exitDx=0;exitDy=0;fontColor=#006633;" parent="bszwcxLDNJzqHkpJtsez-58" source="bszwcxLDNJzqHkpJtsez-59" target="bszwcxLDNJzqHkpJtsez-59" edge="1">
          <mxGeometry relative="1" as="geometry" />
        </mxCell>
        <mxCell id="bszwcxLDNJzqHkpJtsez-61" value="" style="ellipse;whiteSpace=wrap;html=1;aspect=fixed;fontColor=#006633;fillColor=#FF8000;" parent="bszwcxLDNJzqHkpJtsez-58" vertex="1">
          <mxGeometry x="10" y="10" width="20" height="20" as="geometry" />
        </mxCell>
        <mxCell id="bszwcxLDNJzqHkpJtsez-62" value="" style="whiteSpace=wrap;html=1;aspect=fixed;" parent="bszwcxLDNJzqHkpJtsez-1" vertex="1">
          <mxGeometry x="281" y="360" width="40" height="40" as="geometry" />
        </mxCell>
        <mxCell id="bszwcxLDNJzqHkpJtsez-64" value="" style="rounded=0;whiteSpace=wrap;html=1;fillColor=none;fontColor=#006633;" parent="bszwcxLDNJzqHkpJtsez-1" vertex="1">
          <mxGeometry x="520" y="480" width="40" height="40" as="geometry" />
        </mxCell>
        <mxCell id="bszwcxLDNJzqHkpJtsez-65" style="edgeStyle=orthogonalEdgeStyle;rounded=0;orthogonalLoop=1;jettySize=auto;html=1;exitX=0.5;exitY=1;exitDx=0;exitDy=0;fontColor=#006633;" parent="bszwcxLDNJzqHkpJtsez-1" source="bszwcxLDNJzqHkpJtsez-64" target="bszwcxLDNJzqHkpJtsez-64" edge="1">
          <mxGeometry x="520" y="480" as="geometry" />
        </mxCell>
        <mxCell id="bszwcxLDNJzqHkpJtsez-66" value="" style="group;fillColor=#ffffff;" parent="bszwcxLDNJzqHkpJtsez-1" vertex="1" connectable="0">
          <mxGeometry x="480" y="480" width="40" height="40" as="geometry" />
        </mxCell>
        <mxCell id="bszwcxLDNJzqHkpJtsez-67" value="" style="rounded=0;whiteSpace=wrap;html=1;fillColor=none;fontColor=#006633;" parent="bszwcxLDNJzqHkpJtsez-66" vertex="1">
          <mxGeometry width="40" height="40" as="geometry" />
        </mxCell>
        <mxCell id="bszwcxLDNJzqHkpJtsez-68" style="edgeStyle=orthogonalEdgeStyle;rounded=0;orthogonalLoop=1;jettySize=auto;html=1;exitX=0.5;exitY=1;exitDx=0;exitDy=0;fontColor=#006633;" parent="bszwcxLDNJzqHkpJtsez-66" source="bszwcxLDNJzqHkpJtsez-67" target="bszwcxLDNJzqHkpJtsez-67" edge="1">
          <mxGeometry relative="1" as="geometry" />
        </mxCell>
        <mxCell id="bszwcxLDNJzqHkpJtsez-69" style="edgeStyle=orthogonalEdgeStyle;rounded=0;orthogonalLoop=1;jettySize=auto;html=1;exitX=0.5;exitY=1;exitDx=0;exitDy=0;fontColor=#006633;" parent="bszwcxLDNJzqHkpJtsez-1" edge="1">
          <mxGeometry x="560" y="480" as="geometry">
            <mxPoint x="580" y="520" as="sourcePoint" />
            <mxPoint x="580" y="520" as="targetPoint" />
          </mxGeometry>
        </mxCell>
        <mxCell id="bszwcxLDNJzqHkpJtsez-70" value="" style="endArrow=classic;html=1;strokeWidth=1;exitX=0.5;exitY=1;exitDx=0;exitDy=0;" parent="bszwcxLDNJzqHkpJtsez-1" source="bszwcxLDNJzqHkpJtsez-64" edge="1">
          <mxGeometry width="50" height="50" relative="1" as="geometry">
            <mxPoint x="550" y="440" as="sourcePoint" />
            <mxPoint x="540" y="560" as="targetPoint" />
          </mxGeometry>
        </mxCell>
        <mxCell id="bszwcxLDNJzqHkpJtsez-71" value="" style="endArrow=none;dashed=1;html=1;dashPattern=1 3;strokeWidth=2;" parent="bszwcxLDNJzqHkpJtsez-1" edge="1">
          <mxGeometry width="50" height="50" relative="1" as="geometry">
            <mxPoint x="519" y="635" as="sourcePoint" />
            <mxPoint x="519" y="204.9999999999999" as="targetPoint" />
          </mxGeometry>
        </mxCell>
        <mxCell id="bszwcxLDNJzqHkpJtsez-72" value="" style="rounded=0;whiteSpace=wrap;html=1;fillColor=#e51400;strokeColor=#B20000;fontColor=#ffffff;" parent="bszwcxLDNJzqHkpJtsez-1" vertex="1">
          <mxGeometry x="440" y="240" width="120" height="40" as="geometry" />
        </mxCell>
        <mxCell id="bszwcxLDNJzqHkpJtsez-73" value="" style="rounded=0;whiteSpace=wrap;html=1;strokeColor=#82b366;fillColor=#97D077;" parent="bszwcxLDNJzqHkpJtsez-1" vertex="1">
          <mxGeometry x="480" y="580" width="80" height="40" as="geometry" />
        </mxCell>
        <mxCell id="W0rqQaS-MiZ1Vh21l25A-0" value="" style="endArrow=none;dashed=1;html=1;dashPattern=1 3;strokeWidth=2;" parent="bszwcxLDNJzqHkpJtsez-1" edge="1">
          <mxGeometry width="50" height="50" relative="1" as="geometry">
            <mxPoint x="560" y="635" as="sourcePoint" />
            <mxPoint x="560" y="204.9999999999999" as="targetPoint" />
          </mxGeometry>
        </mxCell>
        <mxCell id="W0rqQaS-MiZ1Vh21l25A-1" value="" style="rounded=0;whiteSpace=wrap;html=1;fillColor=#e51400;strokeColor=#B20000;fontColor=#ffffff;" parent="bszwcxLDNJzqHkpJtsez-1" vertex="1">
          <mxGeometry x="560" y="580" width="120" height="40" as="geometry" />
        </mxCell>
        <mxCell id="yBMqk8_aDhEmcifEz4v9-0" value="&lt;span style=&quot;font-size: 18px&quot;&gt;???&lt;/span&gt;" style="text;html=1;strokeColor=none;fillColor=none;align=center;verticalAlign=middle;whiteSpace=wrap;rounded=0;" parent="bszwcxLDNJzqHkpJtsez-1" vertex="1">
          <mxGeometry x="520" y="560" width="40" height="20" as="geometry" />
        </mxCell>
        <mxCell id="yBMqk8_aDhEmcifEz4v9-1" value="&lt;font style=&quot;font-size: 30px&quot;&gt;V&lt;/font&gt;" style="whiteSpace=wrap;html=1;aspect=fixed;" parent="bszwcxLDNJzqHkpJtsez-1" vertex="1">
          <mxGeometry x="560" y="320" width="40" height="40" as="geometry" />
        </mxCell>
        <mxCell id="yBMqk8_aDhEmcifEz4v9-2" value="" style="rounded=0;whiteSpace=wrap;html=1;strokeColor=#82b366;fillColor=#97D077;" parent="bszwcxLDNJzqHkpJtsez-1" vertex="1">
          <mxGeometry x="560" y="240" width="80" height="40" as="geometry" />
        </mxCell>
        <mxCell id="QduKZU5rTsI2D-v4uus_-0" value="" style="endArrow=classic;html=1;exitX=0.5;exitY=0;exitDx=0;exitDy=0;entryX=0.25;entryY=1;entryDx=0;entryDy=0;" parent="bszwcxLDNJzqHkpJtsez-1" source="yBMqk8_aDhEmcifEz4v9-1" target="yBMqk8_aDhEmcifEz4v9-2" edge="1">
          <mxGeometry width="50" height="50" relative="1" as="geometry">
            <mxPoint x="190" y="330" as="sourcePoint" />
            <mxPoint x="190" y="290" as="targetPoint" />
          </mxGeometry>
        </mxCell>
        <mxCell id="uuidPjCVLHfcED7PlAnv-0" value="&lt;span style=&quot;font-size: 18px&quot;&gt;2. Блокировка передается потоку 2&lt;/span&gt;" style="text;html=1;strokeColor=none;fillColor=none;align=center;verticalAlign=middle;whiteSpace=wrap;rounded=0;" parent="bszwcxLDNJzqHkpJtsez-1" vertex="1">
          <mxGeometry x="560" y="160" width="150" height="80" as="geometry" />
        </mxCell>
        <mxCell id="uuidPjCVLHfcED7PlAnv-1" value="" style="rounded=0;whiteSpace=wrap;html=1;fillColor=none;fontColor=#006633;" parent="bszwcxLDNJzqHkpJtsez-1" vertex="1">
          <mxGeometry x="560" y="480" width="40" height="40" as="geometry" />
        </mxCell>
        <mxCell id="uuidPjCVLHfcED7PlAnv-4" value="" style="group" parent="bszwcxLDNJzqHkpJtsez-1" vertex="1" connectable="0">
          <mxGeometry x="600" y="480" width="40" height="40" as="geometry" />
        </mxCell>
        <mxCell id="uuidPjCVLHfcED7PlAnv-5" value="" style="rounded=0;whiteSpace=wrap;html=1;fillColor=none;fontColor=#006633;" parent="uuidPjCVLHfcED7PlAnv-4" vertex="1">
          <mxGeometry width="40" height="40" as="geometry" />
        </mxCell>
        <mxCell id="uuidPjCVLHfcED7PlAnv-6" style="edgeStyle=orthogonalEdgeStyle;rounded=0;orthogonalLoop=1;jettySize=auto;html=1;exitX=0.5;exitY=1;exitDx=0;exitDy=0;fontColor=#006633;" parent="uuidPjCVLHfcED7PlAnv-4" source="uuidPjCVLHfcED7PlAnv-5" target="uuidPjCVLHfcED7PlAnv-5" edge="1">
          <mxGeometry relative="1" as="geometry" />
        </mxCell>
        <mxCell id="uuidPjCVLHfcED7PlAnv-7" value="" style="ellipse;whiteSpace=wrap;html=1;aspect=fixed;fontColor=#006633;fillColor=#FF8000;" parent="uuidPjCVLHfcED7PlAnv-4" vertex="1">
          <mxGeometry x="10" y="10" width="20" height="20" as="geometry" />
        </mxCell>
        <mxCell id="SRvn3PZkAm3A2Pb-BxTV-0" value="" style="rounded=0;whiteSpace=wrap;html=1;fillColor=#d5e8d4;strokeColor=#82b366;" parent="bszwcxLDNJzqHkpJtsez-1" vertex="1">
          <mxGeometry x="640" y="240" width="40" height="40" as="geometry" />
        </mxCell>
        <mxCell id="SRvn3PZkAm3A2Pb-BxTV-4" value="" style="endArrow=classic;html=1;exitX=0.75;exitY=1;exitDx=0;exitDy=0;entryX=0.5;entryY=0;entryDx=0;entryDy=0;" parent="bszwcxLDNJzqHkpJtsez-1" target="uuidPjCVLHfcED7PlAnv-7" edge="1">
          <mxGeometry width="50" height="50" relative="1" as="geometry">
            <mxPoint x="620" y="280" as="sourcePoint" />
            <mxPoint x="620" y="490" as="targetPoint" />
          </mxGeometry>
        </mxCell>
        <mxCell id="SRvn3PZkAm3A2Pb-BxTV-1" value="&lt;font style=&quot;font-size: 30px&quot;&gt;V&lt;/font&gt;" style="whiteSpace=wrap;html=1;aspect=fixed;" parent="bszwcxLDNJzqHkpJtsez-1" vertex="1">
          <mxGeometry x="600" y="320" width="40" height="40" as="geometry" />
        </mxCell>
        <mxCell id="SRvn3PZkAm3A2Pb-BxTV-6" value="" style="whiteSpace=wrap;html=1;aspect=fixed;" parent="bszwcxLDNJzqHkpJtsez-1" vertex="1">
          <mxGeometry x="640" y="360" width="40" height="40" as="geometry" />
        </mxCell>
        <mxCell id="SRvn3PZkAm3A2Pb-BxTV-7" value="" style="rounded=0;whiteSpace=wrap;html=1;fillColor=none;fontColor=#006633;" parent="bszwcxLDNJzqHkpJtsez-1" vertex="1">
          <mxGeometry x="640" y="480" width="40" height="40" as="geometry" />
        </mxCell>
        <mxCell id="SRvn3PZkAm3A2Pb-BxTV-8" value="" style="ellipse;whiteSpace=wrap;html=1;aspect=fixed;fontColor=#006633;fillColor=#FF8000;" parent="bszwcxLDNJzqHkpJtsez-1" vertex="1">
          <mxGeometry x="650" y="490" width="20" height="20" as="geometry" />
        </mxCell>
        <mxCell id="FwKr36JNzHZnYYOhmr8d-0" value="&lt;span style=&quot;font-size: 18px&quot;&gt;3. Поток 1 сообщает о наступлении события, ожидаемого потоком 2 и освобождает блокировку&lt;/span&gt;" style="text;html=1;strokeColor=none;fillColor=none;align=left;verticalAlign=middle;whiteSpace=wrap;rounded=0;" parent="bszwcxLDNJzqHkpJtsez-1" vertex="1">
          <mxGeometry x="640" y="120" width="580" height="20" as="geometry" />
        </mxCell>
        <mxCell id="FwKr36JNzHZnYYOhmr8d-1" value="" style="endArrow=none;dashed=1;html=1;dashPattern=1 3;strokeWidth=2;" parent="bszwcxLDNJzqHkpJtsez-1" edge="1">
          <mxGeometry width="50" height="50" relative="1" as="geometry">
            <mxPoint x="679.17" y="635" as="sourcePoint" />
            <mxPoint x="679.17" y="204.9999999999999" as="targetPoint" />
          </mxGeometry>
        </mxCell>
        <mxCell id="FwKr36JNzHZnYYOhmr8d-2" value="&lt;font style=&quot;font-size: 30px&quot;&gt;V&lt;/font&gt;" style="whiteSpace=wrap;html=1;aspect=fixed;" parent="bszwcxLDNJzqHkpJtsez-1" vertex="1">
          <mxGeometry x="680" y="400" width="40" height="40" as="geometry" />
        </mxCell>
        <mxCell id="FwKr36JNzHZnYYOhmr8d-3" value="" style="rounded=0;whiteSpace=wrap;html=1;strokeColor=#82b366;fillColor=#97D077;" parent="bszwcxLDNJzqHkpJtsez-1" vertex="1">
          <mxGeometry x="680" y="580" width="40" height="40" as="geometry" />
        </mxCell>
        <mxCell id="FwKr36JNzHZnYYOhmr8d-4" value="" style="endArrow=classic;html=1;exitX=0.5;exitY=1;exitDx=0;exitDy=0;entryX=0.75;entryY=0;entryDx=0;entryDy=0;" parent="bszwcxLDNJzqHkpJtsez-1" source="FwKr36JNzHZnYYOhmr8d-6" edge="1">
          <mxGeometry width="50" height="50" relative="1" as="geometry">
            <mxPoint x="921" y="440" as="sourcePoint" />
            <mxPoint x="700" y="580" as="targetPoint" />
          </mxGeometry>
        </mxCell>
        <mxCell id="FwKr36JNzHZnYYOhmr8d-5" value="" style="rounded=0;whiteSpace=wrap;html=1;fontColor=#006633;" parent="bszwcxLDNJzqHkpJtsez-1" vertex="1">
          <mxGeometry x="680" y="480" width="40" height="40" as="geometry" />
        </mxCell>
        <mxCell id="FwKr36JNzHZnYYOhmr8d-6" value="" style="ellipse;whiteSpace=wrap;html=1;aspect=fixed;fillColor=#FF8000;" parent="bszwcxLDNJzqHkpJtsez-1" vertex="1">
          <mxGeometry x="690" y="530" width="20" height="20" as="geometry" />
        </mxCell>
        <mxCell id="FBXF3o5i_eMWVl9w3LAv-0" value="&lt;span style=&quot;font-size: 18px&quot;&gt;4. Блокировка возвращается потоку 2&lt;/span&gt;" style="text;html=1;strokeColor=none;fillColor=none;align=left;verticalAlign=middle;whiteSpace=wrap;rounded=0;" parent="bszwcxLDNJzqHkpJtsez-1" vertex="1">
          <mxGeometry x="730" y="420" width="360" height="20" as="geometry" />
        </mxCell>
        <mxCell id="FBXF3o5i_eMWVl9w3LAv-1" value="" style="rounded=0;whiteSpace=wrap;html=1;fillColor=#fff2cc;strokeColor=#d6b656;" parent="bszwcxLDNJzqHkpJtsez-1" vertex="1">
          <mxGeometry x="680" y="240" width="120" height="40" as="geometry" />
        </mxCell>
      </root>
    </mxGraphModel>
  </diagram>
  <diagram id="-On12_6Ydqzdza_ndSQO" name="CondVar">
    <mxGraphModel dx="1381" dy="866" grid="1" gridSize="10" guides="1" tooltips="1" connect="1" arrows="1" fold="1" page="1" pageScale="1" pageWidth="1169" pageHeight="827" math="0" shadow="0">
      <root>
        <mxCell id="Z5TzBeMdhVNq9CXv2E5--0" />
        <mxCell id="Z5TzBeMdhVNq9CXv2E5--1" parent="Z5TzBeMdhVNq9CXv2E5--0" />
        <mxCell id="is04VzoPi3hyaHdEEbSc-0" value="&lt;font color=&quot;#006633&quot; face=&quot;Garamond&quot;&gt;&lt;span style=&quot;font-size: 36px&quot;&gt;&lt;b&gt;Условная переменная&lt;/b&gt;&lt;/span&gt;&lt;/font&gt;" style="text;html=1;align=left;verticalAlign=middle;whiteSpace=wrap;rounded=0;" vertex="1" parent="Z5TzBeMdhVNq9CXv2E5--1">
          <mxGeometry x="40" y="40" width="920" height="20" as="geometry" />
        </mxCell>
        <mxCell id="is04VzoPi3hyaHdEEbSc-2" value="&lt;span style=&quot;color: rgb(0 , 0 , 0) ; font-family: &amp;#34;courier new&amp;#34; ; font-size: 28px ; font-style: normal ; font-weight: 400 ; letter-spacing: normal ; text-align: left ; text-indent: 0px ; text-transform: none ; word-spacing: 0px ; background-color: rgb(248 , 249 , 250) ; display: inline ; float: none&quot;&gt;CondVar v;&lt;br&gt;&lt;br&gt;&lt;/span&gt;" style="text;whiteSpace=wrap;html=1;" vertex="1" parent="Z5TzBeMdhVNq9CXv2E5--1">
          <mxGeometry x="50" y="110" width="180" height="30" as="geometry" />
        </mxCell>
        <mxCell id="is04VzoPi3hyaHdEEbSc-3" value="&lt;span style=&quot;color: rgb(0 , 0 , 0) ; font-family: &amp;#34;courier new&amp;#34; ; font-style: normal ; font-weight: 400 ; letter-spacing: normal ; text-align: left ; text-indent: 0px ; text-transform: none ; word-spacing: 0px ; background-color: rgb(248 , 249 , 250) ; display: inline ; float: none&quot;&gt;&lt;font style=&quot;font-size: 28px&quot;&gt;v.wait()&lt;/font&gt;&lt;/span&gt;" style="text;whiteSpace=wrap;html=1;" vertex="1" parent="Z5TzBeMdhVNq9CXv2E5--1">
          <mxGeometry x="80" y="170" width="180" height="30" as="geometry" />
        </mxCell>
        <mxCell id="is04VzoPi3hyaHdEEbSc-4" value="&lt;font style=&quot;font-size: 22px&quot;&gt;Дождаться выполнения условия &lt;br&gt;( &quot;попросить&quot; операционную систему &lt;br&gt;заблокировать выполнение до выполнения условия )&lt;/font&gt;" style="text;html=1;align=left;verticalAlign=middle;resizable=0;points=[];autosize=1;" vertex="1" parent="Z5TzBeMdhVNq9CXv2E5--1">
          <mxGeometry x="290" y="170" width="560" height="60" as="geometry" />
        </mxCell>
        <mxCell id="is04VzoPi3hyaHdEEbSc-5" value="&lt;span style=&quot;color: rgb(0 , 0 , 0) ; font-family: &amp;#34;courier new&amp;#34; ; font-style: normal ; font-weight: 400 ; letter-spacing: normal ; text-align: left ; text-indent: 0px ; text-transform: none ; word-spacing: 0px ; background-color: rgb(248 , 249 , 250) ; display: inline ; float: none&quot;&gt;&lt;font style=&quot;font-size: 28px&quot;&gt;v.signal()&lt;/font&gt;&lt;/span&gt;" style="text;whiteSpace=wrap;html=1;" vertex="1" parent="Z5TzBeMdhVNq9CXv2E5--1">
          <mxGeometry x="80" y="410" width="180" height="30" as="geometry" />
        </mxCell>
        <mxCell id="is04VzoPi3hyaHdEEbSc-6" value="&lt;font style=&quot;font-size: 22px&quot;&gt;Сигнализировать о выполнении условия &lt;br&gt;(прежде всего операционной системе)&lt;/font&gt;" style="text;html=1;align=left;verticalAlign=middle;resizable=0;points=[];autosize=1;" vertex="1" parent="Z5TzBeMdhVNq9CXv2E5--1">
          <mxGeometry x="280" y="414" width="430" height="40" as="geometry" />
        </mxCell>
      </root>
    </mxGraphModel>
  </diagram>
  <diagram name="Copy of CondVar" id="3LgtCrAbWZ7Xl5OdlAf7">
    <mxGraphModel dx="1174" dy="736" grid="1" gridSize="10" guides="1" tooltips="1" connect="1" arrows="1" fold="1" page="1" pageScale="1" pageWidth="1169" pageHeight="827" math="0" shadow="0">
      <root>
        <mxCell id="n3IK5PB9PfgdEEiZwMcD-0" />
        <mxCell id="n3IK5PB9PfgdEEiZwMcD-1" parent="n3IK5PB9PfgdEEiZwMcD-0" />
        <mxCell id="n3IK5PB9PfgdEEiZwMcD-2" value="&lt;font color=&quot;#006633&quot; face=&quot;Garamond&quot;&gt;&lt;span style=&quot;font-size: 36px&quot;&gt;&lt;b&gt;Условная переменная&lt;/b&gt;&lt;/span&gt;&lt;/font&gt;" style="text;html=1;align=left;verticalAlign=middle;whiteSpace=wrap;rounded=0;" vertex="1" parent="n3IK5PB9PfgdEEiZwMcD-1">
          <mxGeometry x="40" y="40" width="920" height="20" as="geometry" />
        </mxCell>
        <mxCell id="n3IK5PB9PfgdEEiZwMcD-3" value="&lt;div style=&quot;text-align: left ; font-size: 18px&quot;&gt;&lt;span&gt;&lt;font face=&quot;Courier New&quot; style=&quot;font-size: 18px&quot;&gt;Mutex mutex;&lt;/font&gt;&lt;/span&gt;&lt;/div&gt;&lt;font face=&quot;Courier New&quot;&gt;&lt;div style=&quot;text-align: left&quot;&gt;&lt;span style=&quot;font-size: 18px&quot;&gt;CondVar vFull;&lt;/span&gt;&lt;/div&gt;&lt;div style=&quot;text-align: left&quot;&gt;&lt;span style=&quot;font-size: 18px&quot;&gt;&lt;br&gt;&lt;/span&gt;&lt;/div&gt;&lt;div style=&quot;text-align: left&quot;&gt;&lt;span style=&quot;font-size: 18px&quot;&gt;{&lt;/span&gt;&lt;/div&gt;&lt;div style=&quot;text-align: left&quot;&gt;&lt;span style=&quot;font-size: 18px&quot;&gt;&amp;nbsp; while(true) {&lt;/span&gt;&lt;/div&gt;&lt;div style=&quot;text-align: left&quot;&gt;&lt;span style=&quot;font-size: 18px&quot;&gt;&amp;nbsp; &amp;nbsp; mutex.lock();&lt;/span&gt;&lt;/div&gt;&lt;div style=&quot;text-align: left&quot;&gt;&lt;span style=&quot;font-size: 18px&quot;&gt;&amp;nbsp; &amp;nbsp; vEmpty.wait();&lt;/span&gt;&lt;/div&gt;&lt;div style=&quot;text-align: left&quot;&gt;&lt;span style=&quot;font-size: 18px&quot;&gt;&amp;nbsp; &amp;nbsp; addItem();&lt;/span&gt;&lt;/div&gt;&lt;div style=&quot;text-align: left&quot;&gt;&lt;span style=&quot;font-size: 18px&quot;&gt;&amp;nbsp; &amp;nbsp; vFull.signal&amp;nbsp;&lt;/span&gt;&lt;/div&gt;&lt;div style=&quot;text-align: left&quot;&gt;&lt;span style=&quot;font-size: 18px&quot;&gt;&amp;nbsp; }&lt;/span&gt;&lt;/div&gt;&lt;div style=&quot;text-align: left&quot;&gt;&lt;span style=&quot;font-size: 18px&quot;&gt;}&lt;/span&gt;&lt;/div&gt;&lt;/font&gt;" style="text;html=1;align=center;verticalAlign=middle;resizable=0;points=[];autosize=1;" vertex="1" parent="n3IK5PB9PfgdEEiZwMcD-1">
          <mxGeometry x="100" y="360" width="210" height="180" as="geometry" />
        </mxCell>
        <mxCell id="n3IK5PB9PfgdEEiZwMcD-4" value="&lt;span style=&quot;color: rgb(0 , 0 , 0) ; font-family: &amp;#34;courier new&amp;#34; ; font-size: 18px ; font-style: normal ; font-weight: 400 ; letter-spacing: normal ; text-align: left ; text-indent: 0px ; text-transform: none ; word-spacing: 0px ; background-color: rgb(248 , 249 , 250) ; display: inline ; float: none&quot;&gt;CondVar v;&lt;br&gt;&lt;br&gt;&lt;/span&gt;" style="text;whiteSpace=wrap;html=1;" vertex="1" parent="n3IK5PB9PfgdEEiZwMcD-1">
          <mxGeometry x="60" y="90" width="180" height="30" as="geometry" />
        </mxCell>
        <mxCell id="n3IK5PB9PfgdEEiZwMcD-5" value="&lt;span style=&quot;color: rgb(0 , 0 , 0) ; font-family: &amp;#34;courier new&amp;#34; ; font-size: 18px ; font-style: normal ; font-weight: 400 ; letter-spacing: normal ; text-align: left ; text-indent: 0px ; text-transform: none ; word-spacing: 0px ; background-color: rgb(248 , 249 , 250) ; display: inline ; float: none&quot;&gt;v.wait()&lt;/span&gt;" style="text;whiteSpace=wrap;html=1;" vertex="1" parent="n3IK5PB9PfgdEEiZwMcD-1">
          <mxGeometry x="90" y="180" width="180" height="30" as="geometry" />
        </mxCell>
        <mxCell id="n3IK5PB9PfgdEEiZwMcD-6" value="Дождаться выполнения условия ( &quot;попросить&quot; операционную систему заблокировать выполнение до выполнения условия )" style="text;html=1;align=center;verticalAlign=middle;resizable=0;points=[];autosize=1;" vertex="1" parent="n3IK5PB9PfgdEEiZwMcD-1">
          <mxGeometry x="210" y="185" width="710" height="20" as="geometry" />
        </mxCell>
        <mxCell id="n3IK5PB9PfgdEEiZwMcD-7" value="&lt;span style=&quot;color: rgb(0 , 0 , 0) ; font-family: &amp;#34;courier new&amp;#34; ; font-size: 18px ; font-style: normal ; font-weight: 400 ; letter-spacing: normal ; text-align: left ; text-indent: 0px ; text-transform: none ; word-spacing: 0px ; background-color: rgb(248 , 249 , 250) ; display: inline ; float: none&quot;&gt;v.signal()&lt;/span&gt;" style="text;whiteSpace=wrap;html=1;" vertex="1" parent="n3IK5PB9PfgdEEiZwMcD-1">
          <mxGeometry x="90" y="230" width="180" height="30" as="geometry" />
        </mxCell>
        <mxCell id="n3IK5PB9PfgdEEiZwMcD-8" value="Сигнализировать о выполнении условия (прежде всего операционной системе)" style="text;html=1;align=center;verticalAlign=middle;resizable=0;points=[];autosize=1;" vertex="1" parent="n3IK5PB9PfgdEEiZwMcD-1">
          <mxGeometry x="210" y="235" width="460" height="20" as="geometry" />
        </mxCell>
      </root>
    </mxGraphModel>
  </diagram>
</mxfile>
